<?xml version="1.0" encoding="UTF-8"?>
<svg id="Layer_1" xmlns="http://www.w3.org/2000/svg" version="1.1" xmlns:xlink="http://www.w3.org/1999/xlink" viewBox="0 0 90.979 59.847">
  <!-- Generator: Adobe Illustrator 29.3.1, SVG Export Plug-In . SVG Version: 2.1.0 Build 151)  -->
  <defs>
    <clipPath id="clippath">
      <rect x=".143" width="90.766" height="59.872" fill="none"/>
    </clipPath>
    <clipPath id="clippath-1">
      <rect x=".143" width="90.709" height="60.678" fill="none"/>
    </clipPath>
  </defs>
  <g clip-path="url(#clippath)">
    <g clip-path="url(#clippath-1)">
      <path d="M83.677,40.554c-.849-2.131-1.305-4.506-2.158-6.699-2.163-5.562-5.98-10.766-10.408-14.729-.579-.519-3.465-2.469-3.547-2.901.01-1.182,3.821-6.684,3.304-7.267-2.96-.363-4.958-2.268-7.307-3.834l-.458.491-6.105-1.907-.615,2.614c-2.912-4.981-7.889-5.465-13.052-3.952-2.083.61-3.53,1.32-4.589,3.311-.386.726-.574,1.894-.903,2.388-.529.795-2.708,1.15-2.182,3.266-13.631,3.521-24.435,15.385-27.038,29.221H0v19.869l31.014-.009c2.061.378,4.057.999,6.195.707.782-.107,1.378-.609,2.169-.704,2.647-.317,5.512.176,8.137.256,1.801.055,3.75.066,5.532-.173.255.523.545.944.858,1.294.096-.074.192-.151.288-.228-.226-.299-.416-.674-.563-1.143h9.577l-4.537,2.047c-1.819.252-3.493.399-4.477-.904-.096.077-.192.153-.288.228,2.397,2.681,6.316.639,9.31-.765.299-.14.779-.606.831-.606h26.935v-19.869h-7.302ZM80.205,40.554h-13.527l-.344-.388c.392-1.769-.313-4.057-.905-5.785-.756-2.21-2.169-4.087-2.68-6.4.008-.82,1.161-1.513,1.614-2.189,1.274-1.903,1.143-4.28,2.077-6.307,6.948,4.845,12.28,12.694,13.764,21.069ZM62.252,28.586l.716,1.672-1.436.24.721-1.911ZM59.401,30.866l-.721-.149.018-.899,3.072-1.71c-.548,1.086-1.281,2.16-2.369,2.758ZM58.421,29.541l-.237-1.187,3.804-1.586,2.652-2.97c-.451,3.138-3.964,4.122-6.22,5.743ZM57.947,28.004c-.711.106-1.164-.44-1.98-.334-1.34.174-2.461,2.462-3.909.914l1.816-4.902,13.161-7.784c-1.252,4.865-3.309,11.244-9.089,12.106ZM52.197,29.416c1.919.872,2.975-1.501,4.365-1.27,2.34.389.851,2.633,2.573,3.074.063.341-.089.197-.322.269-4.313,1.321-5.873-.884-9.223-2.939-.365-.53.995-2.01,1.164-1.88.185,1.113.486,2.07,1.443,2.747ZM49.318,28.106l-2.873-.36c-1.25.613.277,5.022.481,6.201l-2.394,6.606h-10.056c.535-3.78,2.852-6.986,3.953-10.53.754-2.427.582-4.514,1.082-6.94,3.178,1.175,7.577,2.388,9.094-1.68.895.512,1.785,1.19,2.101,2.23l-1.387,4.473ZM47.168,34.091l2.146,2.758,4.076,3.702c-1.518.518-3.48-.747-4.678-.734-.744.008-.84.619-1.43.733-.672.13-1.562-.079-2.271.002l2.156-6.461ZM49.197,36.008c-1.988-2.36-2.992-4.742-2.751-7.904,3.197-.503,5.264,3.374,8.078,4.014,3.284.748,5.406-.924,8.522-1.106.546.186,2.076,3.672,2.076,4.155v5.147c-2.672.049-5.357-.061-8.031-.01-1.082.021-1.688.529-2.916.062-1.061-.403-4.156-3.383-4.978-4.358ZM67.258,15.041c-3.796,3.266-8.532,4.815-12.558,7.313-1.691,1.049-2.916,2.568-4.421,3.836l1.921-4.421c5.988-1.297,10.723-5.468,16.031-8.266.016.661-.52,1.147-.974,1.538ZM69.43,8.957l-1.313.234-4.67-.953c2.27-.508,3.901-.154,5.983.719ZM64.411,9.308l5.738.366c.338.322-1.158,2.713-1.592,3.075-1.764,1.472-7.175,4.459-9.415,5.667-2.133,1.15-4.348,2.154-6.708,2.747,1.032-3.77,4.803-5.379,7.534-7.666,1.498-1.255,2.867-2.954,4.443-4.188ZM53.393,17.812c.878-3.812,4.555-5.63,7.898-6.94-2.146,2.884-5.455,4.368-7.898,6.94ZM62.966,6.677c-.087.393-.291.321-.595.122-.611-.399-1.466-1.169-2.037-1.673.829.202,2.685.47,2.632,1.551ZM57.223,4.167l3.585,2.035c-1.028.594-1.407,2.203-1.987,2.915-.112.137-1.723,1.16-1.838,1.033-.147-2.11-.398-3.907.24-5.984ZM60.818,8.109l2.149.368c.735.81-4.05,2.723-4.386,2.914-1.151.653-2.23,1.425-3.284,2.222l-2.382,3.479c.389-4.814,4.848-6.211,7.904-8.984ZM54.114,12.91c-.879,1.118-1.48,2.557-1.805,3.941-.478,2.041-.09,4.319-1.433,5.984l-2.039-1.84-.713-5.336c4.574,1.226,5.016-2.528,3.83-5.984l4.31.477c.52.408-1.843,2.367-2.15,2.757ZM46.677,13.632c-2.56-2.055-9.064,1.285-9.795.576-.842-3.267.049-3.823,3.046-4.47,1.866-.403,10.023-1.047,11.299-.177,1.188,2.283,1.621,6.152-1.995,5.836-1.89-.165-1.548-.956-2.555-1.765ZM42.562,3.035c4.31-1.534,9.258-1.754,12.388,2.086.715.877,1.459,1.926,1.315,3.115-1.68-.095-3.482.131-5.147-.002-3.586-.286-7.122-.859-10.786-.727-.504.018-1.87.617-1.782-.102.24-1.959,2.237-3.739,4.012-4.371ZM39.504,8.239l-3.35,2.631c-.129-1.766,1.855-2.602,3.35-2.631ZM31.653,14.63c.569-1.979,4.764.059,6.295.088,2.798.054,7.668-3.675,9.504.772.6,1.454,1.208,5.188.479,6.558-1.909,3.585-7.793.809-10.429-.44-2.163-1.025-4.956-2.161-5.614-4.682,1.168-2.312,3.503.448,5.012,1.214,3.387,1.719,6.865,1.534,10.506.867.015-.427.121-.508-.357-.479-.905.054-1.921.428-2.866.49-2.545.166-4.81-.144-7.077-1.322-1.778-.924-3.349-3.025-5.5-1.56l.047-1.506ZM31.362,16.136c.01,2.7,2.193,3.757,4.028,5.177l-2.832,7.513c-2.128-.36-4.192-.308-6.327-.975-1.502-.469-4.582-2.934-5.897-1.08-.581.819.337,4.697.726,5.773,1.199,3.32,4.635,5.497,6.953,8.01H11.732c2.293-10.617,9.726-19.965,19.63-24.417ZM16.52,55.874h-7.901v-10.054h3.112v7.66h4.788v2.394ZM20.59,55.874h-2.634v-7.421h2.634v7.421ZM20.594,47.739h-2.642v-1.923h2.642v1.923ZM30.167,55.874h-2.634v-4.189c0-1.507-2.155-1.301-2.155-.239v4.429h-2.873v-7.421l2.635-.002v.96c1.027-.932,3.14-1.443,4.303-.594.182.133.723.816.723.953v6.104ZM30.634,40.302c-1.773.345-2.49-.354-3.706-1.417-2.166-1.894-4.894-4.476-5.65-7.278-.271-1.003-1.251-4.526-.043-4.889,1.578-.467,2.452.652,3.741,1.191,2.37.991,4.811,1.185,7.345,1.395-1.228,3.555-1.34,7.289-1.687,10.998ZM36.031,21.408l2.97,1.587c-.38,1.179-.087,2.399-.219,3.551-.562,4.905-3.879,8.927-4.659,13.774l-2.761.234c-.356-6.762,1.817-13.146,4.668-19.147ZM39.744,55.874l-2.635.002-.117-.959c-1.297,1.938-5.149,1.331-5.149-1.078v-5.386h2.873v4.429c0,1.108,2.155,1.108,2.155,0v-4.429h2.873v7.421ZM46.447,55.874l-1.08-2.156-1.712,2.117-2.954.036,2.403-3.726-2.162-3.692,3.25.219,1.178,1.69,1.481-1.866,2.948-.042-2.347,3.671,2.347,3.748h-3.352ZM52.93,60.255h1-1ZM50.777,52.143c-.629-4.595,1.802-7.312,6.507-6.506,1.247.214,3.493,1.75,2.811,3.176l-2.291.521c-2.339-3.163-4.422-.66-3.92,2.575.386,2.488,3.476,2.341,3.845-.077l2.845.693c-.878,5.123-9.107,4.652-9.797-.383ZM71.826,55.874l-3.112-.12-3.592-5.146v5.266h-3.112v-10.054l3.114.118,3.829,5.149v-5.266h2.873v10.054ZM83.281,53.068c-.847,3.018-4.238,3.616-6.906,2.685-3.743-1.307-3.942-8.095-.329-9.664,2.769-1.203,6.193-.612,7.265,2.485l-2.856.833c-.798-2.529-3.569-1.707-3.817.87-.331,3.437,2.84,5.072,3.817,1.538.127-.112,3.284.394,2.825,1.252Z"/>
      <path d="M47.573,15.301c.297.198,1.21.015,1.575-.139,1.724-.729,1.382-4.869.141-5.287-.236-.079-2.834-.174-3.085-.07-1.173.485-1.718,3.4-.223,3.858.631.168.266-1.263.405-1.741.861-2.974,5.328,1.934.907,2.706.095.159.229.638.282.673Z"/>
      <path d="M42.266,13.427c1.836.299.819-3.511-.303-3.532-3.294-.063-2.464,1.53-2.33,4.012l.717-.003c-.228-1.032-.742-2.501.638-2.817,1.23.119,1.374,1.287,1.279,2.34Z"/>
    </g>
  </g>
</svg>