%TF.GenerationSoftware,KiCad,Pcbnew,9.0.0*%
%TF.CreationDate,2025-03-10T19:04:21-04:00*%
%TF.ProjectId,cnc-hmi,636e632d-686d-4692-9e6b-696361645f70,rev?*%
%TF.SameCoordinates,Original*%
%TF.FileFunction,Soldermask,Bot*%
%TF.FilePolarity,Negative*%
%FSLAX46Y46*%
G04 Gerber Fmt 4.6, Leading zero omitted, Abs format (unit mm)*
G04 Created by KiCad (PCBNEW 9.0.0) date 2025-03-10 19:04:21*
%MOMM*%
%LPD*%
G01*
G04 APERTURE LIST*
G04 Aperture macros list*
%AMRoundRect*
0 Rectangle with rounded corners*
0 $1 Rounding radius*
0 $2 $3 $4 $5 $6 $7 $8 $9 X,Y pos of 4 corners*
0 Add a 4 corners polygon primitive as box body*
4,1,4,$2,$3,$4,$5,$6,$7,$8,$9,$2,$3,0*
0 Add four circle primitives for the rounded corners*
1,1,$1+$1,$2,$3*
1,1,$1+$1,$4,$5*
1,1,$1+$1,$6,$7*
1,1,$1+$1,$8,$9*
0 Add four rect primitives between the rounded corners*
20,1,$1+$1,$2,$3,$4,$5,0*
20,1,$1+$1,$4,$5,$6,$7,0*
20,1,$1+$1,$6,$7,$8,$9,0*
20,1,$1+$1,$8,$9,$2,$3,0*%
%AMFreePoly0*
4,1,37,0.800000,0.796148,0.878414,0.796148,1.032228,0.765552,1.177117,0.705537,1.307515,0.618408,1.418408,0.507515,1.505537,0.377117,1.565552,0.232228,1.596148,0.078414,1.596148,-0.078414,1.565552,-0.232228,1.505537,-0.377117,1.418408,-0.507515,1.307515,-0.618408,1.177117,-0.705537,1.032228,-0.765552,0.878414,-0.796148,0.800000,-0.796148,0.800000,-0.800000,-1.400000,-0.800000,
-1.403843,-0.796157,-1.439018,-0.796157,-1.511114,-0.766294,-1.566294,-0.711114,-1.596157,-0.639018,-1.596157,-0.603843,-1.600000,-0.600000,-1.600000,0.600000,-1.596157,0.603843,-1.596157,0.639018,-1.566294,0.711114,-1.511114,0.766294,-1.439018,0.796157,-1.403843,0.796157,-1.400000,0.800000,0.800000,0.800000,0.800000,0.796148,0.800000,0.796148,$1*%
%AMFreePoly1*
4,1,37,1.403843,0.796157,1.439018,0.796157,1.511114,0.766294,1.566294,0.711114,1.596157,0.639018,1.596157,0.603843,1.600000,0.600000,1.600000,-0.600000,1.596157,-0.603843,1.596157,-0.639018,1.566294,-0.711114,1.511114,-0.766294,1.439018,-0.796157,1.403843,-0.796157,1.400000,-0.800000,-0.800000,-0.800000,-0.800000,-0.796148,-0.878414,-0.796148,-1.032228,-0.765552,-1.177117,-0.705537,
-1.307515,-0.618408,-1.418408,-0.507515,-1.505537,-0.377117,-1.565552,-0.232228,-1.596148,-0.078414,-1.596148,0.078414,-1.565552,0.232228,-1.505537,0.377117,-1.418408,0.507515,-1.307515,0.618408,-1.177117,0.705537,-1.032228,0.765552,-0.878414,0.796148,-0.800000,0.796148,-0.800000,0.800000,1.400000,0.800000,1.403843,0.796157,1.403843,0.796157,$1*%
%AMFreePoly2*
4,1,37,1.600000,0.796148,1.678414,0.796148,1.832228,0.765552,1.977117,0.705537,2.107515,0.618408,2.218408,0.507515,2.305537,0.377117,2.365552,0.232228,2.396148,0.078414,2.396148,-0.078414,2.365552,-0.232228,2.305537,-0.377117,2.218408,-0.507515,2.107515,-0.618408,1.977117,-0.705537,1.832228,-0.765552,1.678414,-0.796148,1.600000,-0.796148,1.600000,-0.800000,-0.600000,-0.800000,
-0.603843,-0.796157,-0.639018,-0.796157,-0.711114,-0.766294,-0.766294,-0.711114,-0.796157,-0.639018,-0.796157,-0.603843,-0.800000,-0.600000,-0.800000,0.600000,-0.796157,0.603843,-0.796157,0.639018,-0.766294,0.711114,-0.711114,0.766294,-0.639018,0.796157,-0.603843,0.796157,-0.600000,0.800000,1.600000,0.800000,1.600000,0.796148,1.600000,0.796148,$1*%
G04 Aperture macros list end*
%ADD10C,1.750000*%
%ADD11C,4.000000*%
%ADD12C,2.500000*%
%ADD13C,3.048000*%
%ADD14C,3.987800*%
%ADD15R,1.905000X1.905000*%
%ADD16C,1.905000*%
%ADD17C,6.000000*%
%ADD18C,1.000000*%
%ADD19R,1.416000X1.416000*%
%ADD20C,1.416000*%
%ADD21C,3.300000*%
%ADD22C,3.050000*%
%ADD23C,1.500000*%
%ADD24RoundRect,0.225000X-0.225000X-0.250000X0.225000X-0.250000X0.225000X0.250000X-0.225000X0.250000X0*%
%ADD25RoundRect,0.150000X0.150000X0.200000X-0.150000X0.200000X-0.150000X-0.200000X0.150000X-0.200000X0*%
%ADD26RoundRect,0.200000X0.200000X0.275000X-0.200000X0.275000X-0.200000X-0.275000X0.200000X-0.275000X0*%
%ADD27R,3.000000X2.179000*%
%ADD28R,1.250000X0.300000*%
%ADD29RoundRect,0.250000X0.350000X0.625000X-0.350000X0.625000X-0.350000X-0.625000X0.350000X-0.625000X0*%
%ADD30O,1.200000X1.750000*%
%ADD31RoundRect,0.250000X0.337500X0.475000X-0.337500X0.475000X-0.337500X-0.475000X0.337500X-0.475000X0*%
%ADD32RoundRect,0.200000X-0.275000X0.200000X-0.275000X-0.200000X0.275000X-0.200000X0.275000X0.200000X0*%
%ADD33RoundRect,0.250000X0.475000X-0.250000X0.475000X0.250000X-0.475000X0.250000X-0.475000X-0.250000X0*%
%ADD34RoundRect,0.250000X-0.250000X-0.475000X0.250000X-0.475000X0.250000X0.475000X-0.250000X0.475000X0*%
%ADD35RoundRect,0.250000X-0.625000X0.350000X-0.625000X-0.350000X0.625000X-0.350000X0.625000X0.350000X0*%
%ADD36O,1.750000X1.200000*%
%ADD37RoundRect,0.225000X0.250000X-0.225000X0.250000X0.225000X-0.250000X0.225000X-0.250000X-0.225000X0*%
%ADD38C,2.200000*%
%ADD39C,1.850000*%
%ADD40FreePoly0,0.000000*%
%ADD41RoundRect,0.800000X-0.800000X-0.000010X0.800000X-0.000010X0.800000X0.000010X-0.800000X0.000010X0*%
%ADD42FreePoly1,0.000000*%
%ADD43RoundRect,0.800000X-0.000010X0.800000X-0.000010X-0.800000X0.000010X-0.800000X0.000010X0.800000X0*%
%ADD44FreePoly2,90.000000*%
%ADD45RoundRect,0.150000X0.825000X0.150000X-0.825000X0.150000X-0.825000X-0.150000X0.825000X-0.150000X0*%
%ADD46RoundRect,0.200000X-0.200000X-0.275000X0.200000X-0.275000X0.200000X0.275000X-0.200000X0.275000X0*%
%ADD47RoundRect,0.032500X-0.097500X0.387500X-0.097500X-0.387500X0.097500X-0.387500X0.097500X0.387500X0*%
%ADD48RoundRect,0.032500X-0.387500X0.097500X-0.387500X-0.097500X0.387500X-0.097500X0.387500X0.097500X0*%
%ADD49R,2.450000X2.450000*%
%ADD50RoundRect,0.051250X0.733750X0.153750X-0.733750X0.153750X-0.733750X-0.153750X0.733750X-0.153750X0*%
%ADD51RoundRect,0.250000X0.625000X-0.350000X0.625000X0.350000X-0.625000X0.350000X-0.625000X-0.350000X0*%
%ADD52RoundRect,0.225000X0.225000X0.250000X-0.225000X0.250000X-0.225000X-0.250000X0.225000X-0.250000X0*%
G04 APERTURE END LIST*
D10*
%TO.C,SW50*%
X256540000Y-75225000D03*
D11*
X261620000Y-75225000D03*
D10*
X266700000Y-75225000D03*
D12*
X257810000Y-72685000D03*
X264160000Y-70145000D03*
%TD*%
D10*
%TO.C,SW12*%
X175895000Y-114300000D03*
D11*
X180975000Y-114300000D03*
D10*
X186055000Y-114300000D03*
D12*
X177165000Y-111760000D03*
X183515000Y-109220000D03*
%TD*%
D10*
%TO.C,SW3*%
X156845000Y-76200000D03*
D11*
X161925000Y-76200000D03*
D10*
X167005000Y-76200000D03*
D12*
X158115000Y-73660000D03*
X164465000Y-71120000D03*
%TD*%
D10*
%TO.C,SW6*%
X137795000Y-95250000D03*
D11*
X142875000Y-95250000D03*
D10*
X147955000Y-95250000D03*
D12*
X139065000Y-92710000D03*
X145415000Y-90170000D03*
%TD*%
D13*
%TO.C,ST6*%
X240157000Y-87290000D03*
D14*
X240157000Y-102500000D03*
D13*
X264033000Y-87290000D03*
D14*
X264033000Y-102500000D03*
%TD*%
D10*
%TO.C,SW16*%
X175895000Y-142875000D03*
D11*
X180975000Y-142875000D03*
D10*
X186055000Y-142875000D03*
D12*
X177165000Y-140335000D03*
X183515000Y-137795000D03*
%TD*%
D15*
%TO.C,LED6*%
X387350000Y-100330000D03*
D16*
X384810000Y-100330000D03*
%TD*%
D10*
%TO.C,SW48*%
X247015000Y-151425000D03*
D11*
X252095000Y-151425000D03*
D10*
X257175000Y-151425000D03*
D12*
X248285000Y-148885000D03*
X254635000Y-146345000D03*
%TD*%
D10*
%TO.C,SW26*%
X67118000Y-95250000D03*
D11*
X72198000Y-95250000D03*
D10*
X77278000Y-95250000D03*
D12*
X68388000Y-92710000D03*
X74738000Y-90170000D03*
%TD*%
D10*
%TO.C,SW8*%
X175895000Y-95250000D03*
D11*
X180975000Y-95250000D03*
D10*
X186055000Y-95250000D03*
D12*
X177165000Y-92710000D03*
X183515000Y-90170000D03*
%TD*%
D17*
%TO.C,H10*%
X398780000Y-47498000D03*
%TD*%
D10*
%TO.C,SW9*%
X118745000Y-114300000D03*
D11*
X123825000Y-114300000D03*
D10*
X128905000Y-114300000D03*
D12*
X120015000Y-111760000D03*
X126365000Y-109220000D03*
%TD*%
D17*
%TO.C,H11*%
X398780000Y-166878000D03*
%TD*%
D10*
%TO.C,SW38*%
X76643000Y-152400000D03*
D11*
X81723000Y-152400000D03*
D10*
X86803000Y-152400000D03*
D12*
X77913000Y-149860000D03*
X84263000Y-147320000D03*
%TD*%
D15*
%TO.C,LED2*%
X368300000Y-81280000D03*
D16*
X365760000Y-81280000D03*
%TD*%
D10*
%TO.C,SW49*%
X237490000Y-75225000D03*
D11*
X242570000Y-75225000D03*
D10*
X247650000Y-75225000D03*
D12*
X238760000Y-72685000D03*
X245110000Y-70145000D03*
%TD*%
D15*
%TO.C,LED5*%
X368300000Y-100330000D03*
D16*
X365760000Y-100330000D03*
%TD*%
D10*
%TO.C,SW22*%
X67118000Y-76200000D03*
D11*
X72198000Y-76200000D03*
D10*
X77278000Y-76200000D03*
D12*
X68388000Y-73660000D03*
X74738000Y-71120000D03*
%TD*%
D18*
%TO.C,H16*%
X330200000Y-53848000D03*
%TD*%
D10*
%TO.C,SW34*%
X67118000Y-133350000D03*
D11*
X72198000Y-133350000D03*
D10*
X77278000Y-133350000D03*
D12*
X68388000Y-130810000D03*
X74738000Y-128270000D03*
%TD*%
D10*
%TO.C,SW29*%
X48068000Y-114300000D03*
D11*
X53148000Y-114300000D03*
D10*
X58228000Y-114300000D03*
D12*
X49338000Y-111760000D03*
X55688000Y-109220000D03*
%TD*%
D10*
%TO.C,SW13*%
X118745000Y-133350000D03*
D11*
X123825000Y-133350000D03*
D10*
X128905000Y-133350000D03*
D12*
X120015000Y-130810000D03*
X126365000Y-128270000D03*
%TD*%
D10*
%TO.C,SW20*%
X29018000Y-76200000D03*
D11*
X34098000Y-76200000D03*
D10*
X39178000Y-76200000D03*
D12*
X30288000Y-73660000D03*
X36638000Y-71120000D03*
%TD*%
D10*
%TO.C,SW24*%
X29018000Y-95250000D03*
D11*
X34098000Y-95250000D03*
D10*
X39178000Y-95250000D03*
D12*
X30288000Y-92710000D03*
X36638000Y-90170000D03*
%TD*%
D10*
%TO.C,SW23*%
X86168000Y-76200000D03*
D11*
X91248000Y-76200000D03*
D10*
X96328000Y-76200000D03*
D12*
X87438000Y-73660000D03*
X93788000Y-71120000D03*
%TD*%
D10*
%TO.C,SW44*%
X381000000Y-95250000D03*
D11*
X386080000Y-95250000D03*
D10*
X391160000Y-95250000D03*
D12*
X382270000Y-92710000D03*
X388620000Y-90170000D03*
%TD*%
D10*
%TO.C,SW31*%
X86168000Y-114300000D03*
D11*
X91248000Y-114300000D03*
D10*
X96328000Y-114300000D03*
D12*
X87438000Y-111760000D03*
X93788000Y-109220000D03*
%TD*%
D10*
%TO.C,SW30*%
X67118000Y-114300000D03*
D11*
X72198000Y-114300000D03*
D10*
X77278000Y-114300000D03*
D12*
X68388000Y-111760000D03*
X74738000Y-109220000D03*
%TD*%
D10*
%TO.C,SW35*%
X86168000Y-133350000D03*
D11*
X91248000Y-133350000D03*
D10*
X96328000Y-133350000D03*
D12*
X87438000Y-130810000D03*
X93788000Y-128270000D03*
%TD*%
D15*
%TO.C,LED12*%
X253365000Y-156505000D03*
D16*
X250825000Y-156505000D03*
%TD*%
D19*
%TO.C,S3*%
X311785000Y-162945000D03*
D20*
X309245000Y-162945000D03*
X306705000Y-162945000D03*
X304165000Y-162945000D03*
X301625000Y-162945000D03*
X299085000Y-162945000D03*
%TD*%
D13*
%TO.C,ST1*%
X173990000Y-154813000D03*
D14*
X189200000Y-154813000D03*
D13*
X173990000Y-130937000D03*
D14*
X189200000Y-130937000D03*
%TD*%
D10*
%TO.C,SW10*%
X137795000Y-114300000D03*
D11*
X142875000Y-114300000D03*
D10*
X147955000Y-114300000D03*
D12*
X139065000Y-111760000D03*
X145415000Y-109220000D03*
%TD*%
D15*
%TO.C,LED4*%
X349250000Y-100330000D03*
D16*
X346710000Y-100330000D03*
%TD*%
D10*
%TO.C,SW43*%
X361950000Y-95250000D03*
D11*
X367030000Y-95250000D03*
D10*
X372110000Y-95250000D03*
D12*
X363220000Y-92710000D03*
X369570000Y-90170000D03*
%TD*%
D10*
%TO.C,SW4*%
X175895000Y-76200000D03*
D11*
X180975000Y-76200000D03*
D10*
X186055000Y-76200000D03*
D12*
X177165000Y-73660000D03*
X183515000Y-71120000D03*
%TD*%
D10*
%TO.C,SW32*%
X29018000Y-133350000D03*
D11*
X34098000Y-133350000D03*
D10*
X39178000Y-133350000D03*
D12*
X30288000Y-130810000D03*
X36638000Y-128270000D03*
%TD*%
D10*
%TO.C,SW1*%
X118745000Y-76200000D03*
D11*
X123825000Y-76200000D03*
D10*
X128905000Y-76200000D03*
D12*
X120015000Y-73660000D03*
X126365000Y-71120000D03*
%TD*%
D18*
%TO.C,H17*%
X388620000Y-53848000D03*
%TD*%
D10*
%TO.C,SW21*%
X48068000Y-76200000D03*
D11*
X53148000Y-76200000D03*
D10*
X58228000Y-76200000D03*
D12*
X49338000Y-73660000D03*
X55688000Y-71120000D03*
%TD*%
D10*
%TO.C,SW36*%
X29018000Y-152400000D03*
D11*
X34098000Y-152400000D03*
D10*
X39178000Y-152400000D03*
D12*
X30288000Y-149860000D03*
X36638000Y-147320000D03*
%TD*%
D10*
%TO.C,SW41*%
X381000000Y-76200000D03*
D11*
X386080000Y-76200000D03*
D10*
X391160000Y-76200000D03*
D12*
X382270000Y-73660000D03*
X388620000Y-71120000D03*
%TD*%
D17*
%TO.C,H9*%
X290830000Y-47498000D03*
%TD*%
D15*
%TO.C,LED8*%
X262890000Y-80305000D03*
D16*
X260350000Y-80305000D03*
%TD*%
D10*
%TO.C,SW25*%
X48068000Y-95250000D03*
D11*
X53148000Y-95250000D03*
D10*
X58228000Y-95250000D03*
D12*
X49338000Y-92710000D03*
X55688000Y-90170000D03*
%TD*%
D13*
%TO.C,ST4*%
X240157000Y-125390000D03*
D14*
X240157000Y-140600000D03*
D13*
X264033000Y-125390000D03*
D14*
X264033000Y-140600000D03*
%TD*%
D10*
%TO.C,SW18*%
X137795000Y-152400000D03*
D11*
X142875000Y-152400000D03*
D10*
X147955000Y-152400000D03*
D12*
X139065000Y-149860000D03*
X145415000Y-147320000D03*
%TD*%
D15*
%TO.C,LED3*%
X387350000Y-81280000D03*
D16*
X384810000Y-81280000D03*
%TD*%
D10*
%TO.C,SW28*%
X29018000Y-114300000D03*
D11*
X34098000Y-114300000D03*
D10*
X39178000Y-114300000D03*
D12*
X30288000Y-111760000D03*
X36638000Y-109220000D03*
%TD*%
D17*
%TO.C,H2*%
X25400000Y-166878000D03*
%TD*%
%TO.C,H4*%
X107950000Y-166878000D03*
%TD*%
D10*
%TO.C,SW27*%
X86168000Y-95250000D03*
D11*
X91248000Y-95250000D03*
D10*
X96328000Y-95250000D03*
D12*
X87438000Y-92710000D03*
X93788000Y-90170000D03*
%TD*%
D17*
%TO.C,H3*%
X107950000Y-47498000D03*
%TD*%
D10*
%TO.C,SW40*%
X361950000Y-76200000D03*
D11*
X367030000Y-76200000D03*
D10*
X372110000Y-76200000D03*
D12*
X363220000Y-73660000D03*
X369570000Y-71120000D03*
%TD*%
D15*
%TO.C,LED10*%
X253365000Y-118405000D03*
D16*
X250825000Y-118405000D03*
%TD*%
D15*
%TO.C,LED7*%
X243840000Y-80305000D03*
D16*
X241300000Y-80305000D03*
%TD*%
D10*
%TO.C,SW11*%
X156845000Y-114300000D03*
D11*
X161925000Y-114300000D03*
D10*
X167005000Y-114300000D03*
D12*
X158115000Y-111760000D03*
X164465000Y-109220000D03*
%TD*%
D10*
%TO.C,SW46*%
X247015000Y-113325000D03*
D11*
X252095000Y-113325000D03*
D10*
X257175000Y-113325000D03*
D12*
X248285000Y-110785000D03*
X254635000Y-108245000D03*
%TD*%
D13*
%TO.C,ST5*%
X240157000Y-106340000D03*
D14*
X240157000Y-121550000D03*
D13*
X264033000Y-106340000D03*
D14*
X264033000Y-121550000D03*
%TD*%
D10*
%TO.C,SW17*%
X118745000Y-152400000D03*
D11*
X123825000Y-152400000D03*
D10*
X128905000Y-152400000D03*
D12*
X120015000Y-149860000D03*
X126365000Y-147320000D03*
%TD*%
D10*
%TO.C,SW45*%
X247015000Y-94275000D03*
D11*
X252095000Y-94275000D03*
D10*
X257175000Y-94275000D03*
D12*
X248285000Y-91735000D03*
X254635000Y-89195000D03*
%TD*%
D10*
%TO.C,SW2*%
X137795000Y-76200000D03*
D11*
X142875000Y-76200000D03*
D10*
X147955000Y-76200000D03*
D12*
X139065000Y-73660000D03*
X145415000Y-71120000D03*
%TD*%
D15*
%TO.C,LED11*%
X253365000Y-137455000D03*
D16*
X250825000Y-137455000D03*
%TD*%
D19*
%TO.C,S2*%
X311785000Y-124845000D03*
D20*
X309245000Y-124845000D03*
X306705000Y-124845000D03*
X304165000Y-124845000D03*
X301625000Y-124845000D03*
X299085000Y-124845000D03*
%TD*%
D15*
%TO.C,LED9*%
X253365000Y-99355000D03*
D16*
X250825000Y-99355000D03*
%TD*%
D10*
%TO.C,SW5*%
X118745000Y-95250000D03*
D11*
X123825000Y-95250000D03*
D10*
X128905000Y-95250000D03*
D12*
X120015000Y-92710000D03*
X126365000Y-90170000D03*
%TD*%
D10*
%TO.C,SW14*%
X137795000Y-133350000D03*
D11*
X142875000Y-133350000D03*
D10*
X147955000Y-133350000D03*
D12*
X139065000Y-130810000D03*
X145415000Y-128270000D03*
%TD*%
D10*
%TO.C,SW33*%
X48068000Y-133350000D03*
D11*
X53148000Y-133350000D03*
D10*
X58228000Y-133350000D03*
D12*
X49338000Y-130810000D03*
X55688000Y-128270000D03*
%TD*%
D10*
%TO.C,SW42*%
X342900000Y-95250000D03*
D11*
X347980000Y-95250000D03*
D10*
X353060000Y-95250000D03*
D12*
X344170000Y-92710000D03*
X350520000Y-90170000D03*
%TD*%
D10*
%TO.C,SW47*%
X247015000Y-132375000D03*
D11*
X252095000Y-132375000D03*
D10*
X257175000Y-132375000D03*
D12*
X248285000Y-129835000D03*
X254635000Y-127295000D03*
%TD*%
D17*
%TO.C,H15*%
X386080000Y-124968000D03*
%TD*%
D15*
%TO.C,LED1*%
X349250000Y-81280000D03*
D16*
X346710000Y-81280000D03*
%TD*%
D17*
%TO.C,H5*%
X210820000Y-47498000D03*
%TD*%
%TO.C,H6*%
X194310000Y-166878000D03*
%TD*%
D10*
%TO.C,SW37*%
X48068000Y-152400000D03*
D11*
X53148000Y-152400000D03*
D10*
X58228000Y-152400000D03*
D12*
X49338000Y-149860000D03*
X55688000Y-147320000D03*
%TD*%
D17*
%TO.C,H8*%
X290830000Y-166878000D03*
%TD*%
D13*
%TO.C,ST2*%
X69785000Y-145415000D03*
D14*
X69785000Y-160625000D03*
D13*
X93661000Y-145415000D03*
D14*
X93661000Y-160625000D03*
%TD*%
D10*
%TO.C,SW19*%
X156845000Y-152400000D03*
D11*
X161925000Y-152400000D03*
D10*
X167005000Y-152400000D03*
D12*
X158115000Y-149860000D03*
X164465000Y-147320000D03*
%TD*%
D17*
%TO.C,H1*%
X25400000Y-47498000D03*
%TD*%
D13*
%TO.C,ST3*%
X240157000Y-144440000D03*
D14*
X240157000Y-159650000D03*
D13*
X264033000Y-144440000D03*
D14*
X264033000Y-159650000D03*
%TD*%
D19*
%TO.C,S1*%
X311785000Y-86745000D03*
D20*
X309245000Y-86745000D03*
X306705000Y-86745000D03*
X304165000Y-86745000D03*
X301625000Y-86745000D03*
X299085000Y-86745000D03*
%TD*%
D10*
%TO.C,SW7*%
X156845000Y-95250000D03*
D11*
X161925000Y-95250000D03*
D10*
X167005000Y-95250000D03*
D12*
X158115000Y-92710000D03*
X164465000Y-90170000D03*
%TD*%
D17*
%TO.C,H7*%
X226060000Y-166878000D03*
%TD*%
%TO.C,H14*%
X346710000Y-124968000D03*
%TD*%
D21*
%TO.C,ENC1*%
X348843000Y-152400000D03*
D22*
X355030000Y-141900000D03*
D21*
X367030000Y-120900000D03*
D22*
X379030000Y-141900000D03*
D21*
X385217000Y-152400000D03*
D23*
X360030000Y-162600000D03*
X362030000Y-162600000D03*
X364030000Y-162600000D03*
X368030000Y-162600000D03*
X366030000Y-162600000D03*
X372030000Y-162600000D03*
X374030000Y-162600000D03*
X370030000Y-162600000D03*
%TD*%
D10*
%TO.C,SW15*%
X156845000Y-133350000D03*
D11*
X161925000Y-133350000D03*
D10*
X167005000Y-133350000D03*
D12*
X158115000Y-130810000D03*
X164465000Y-128270000D03*
%TD*%
D10*
%TO.C,SW39*%
X342900000Y-76200000D03*
D11*
X347980000Y-76200000D03*
D10*
X353060000Y-76200000D03*
D12*
X344170000Y-73660000D03*
X350520000Y-71120000D03*
%TD*%
D24*
%TO.C,C8*%
X356095000Y-57150000D03*
X357645000Y-57150000D03*
%TD*%
D25*
%TO.C,D11*%
X164400000Y-104775000D03*
X165800000Y-104775000D03*
%TD*%
D24*
%TO.C,C4*%
X102349000Y-114300000D03*
X103899000Y-114300000D03*
%TD*%
D25*
%TO.C,D33*%
X55942000Y-123825000D03*
X57342000Y-123825000D03*
%TD*%
D26*
%TO.C,R15*%
X308419000Y-159766000D03*
X306769000Y-159766000D03*
%TD*%
D27*
%TO.C,LCD1*%
X350227000Y-57501500D03*
X350227000Y-47742500D03*
D28*
X352552000Y-55872000D03*
X352552000Y-55372000D03*
X352552000Y-54872000D03*
X352552000Y-54372000D03*
X352552000Y-53872000D03*
X352552000Y-53372000D03*
X352552000Y-52872000D03*
X352552000Y-52372000D03*
X352552000Y-51872000D03*
X352552000Y-51372000D03*
X352552000Y-50872000D03*
X352552000Y-50372000D03*
X352552000Y-49872000D03*
X352552000Y-49372000D03*
%TD*%
D26*
%TO.C,R7*%
X357949000Y-53594000D03*
X356299000Y-53594000D03*
%TD*%
D25*
%TO.C,D31*%
X93850000Y-104775000D03*
X95250000Y-104775000D03*
%TD*%
D29*
%TO.C,J2*%
X187610000Y-163068000D03*
D30*
X185610000Y-163068000D03*
X183610000Y-163068000D03*
X181610000Y-163068000D03*
%TD*%
D25*
%TO.C,D14*%
X145350000Y-123825000D03*
X146750000Y-123825000D03*
%TD*%
D31*
%TO.C,C3*%
X357907500Y-47752000D03*
X355832500Y-47752000D03*
%TD*%
D25*
%TO.C,D3*%
X164654000Y-66675000D03*
X166054000Y-66675000D03*
%TD*%
%TO.C,D4*%
X183704000Y-66675000D03*
X185104000Y-66675000D03*
%TD*%
D32*
%TO.C,R3*%
X367979000Y-151385000D03*
X367979000Y-153035000D03*
%TD*%
D33*
%TO.C,C7*%
X320294000Y-54290000D03*
X320294000Y-52390000D03*
%TD*%
D25*
%TO.C,D35*%
X93850000Y-123825000D03*
X95250000Y-123825000D03*
%TD*%
%TO.C,D49*%
X245110000Y-65786000D03*
X246510000Y-65786000D03*
%TD*%
D34*
%TO.C,C9*%
X355920000Y-55372000D03*
X357820000Y-55372000D03*
%TD*%
%TO.C,C5*%
X102174000Y-116078000D03*
X104074000Y-116078000D03*
%TD*%
D25*
%TO.C,D29*%
X55750000Y-104775000D03*
X57150000Y-104775000D03*
%TD*%
%TO.C,D47*%
X254886000Y-122936000D03*
X256286000Y-122936000D03*
%TD*%
D32*
%TO.C,R5*%
X362959000Y-151385000D03*
X362959000Y-153035000D03*
%TD*%
D25*
%TO.C,D17*%
X126554000Y-142621000D03*
X127954000Y-142621000D03*
%TD*%
%TO.C,D8*%
X183450000Y-85725000D03*
X184850000Y-85725000D03*
%TD*%
D26*
%TO.C,R10*%
X216725000Y-68834000D03*
X215075000Y-68834000D03*
%TD*%
D25*
%TO.C,D24*%
X36638000Y-85471000D03*
X38038000Y-85471000D03*
%TD*%
%TO.C,D18*%
X145604000Y-142621000D03*
X147004000Y-142621000D03*
%TD*%
%TO.C,D37*%
X55688000Y-142875000D03*
X57088000Y-142875000D03*
%TD*%
D35*
%TO.C,J3*%
X191770000Y-70866000D03*
D36*
X191770000Y-72866000D03*
X191770000Y-74866000D03*
X191770000Y-76866000D03*
X191770000Y-78866000D03*
X191770000Y-80866000D03*
X191770000Y-82866000D03*
X191770000Y-84866000D03*
%TD*%
D25*
%TO.C,D19*%
X164400000Y-142621000D03*
X165800000Y-142621000D03*
%TD*%
%TO.C,D38*%
X84390000Y-142875000D03*
X85790000Y-142875000D03*
%TD*%
D26*
%TO.C,R14*%
X310451000Y-121158000D03*
X308801000Y-121158000D03*
%TD*%
D25*
%TO.C,D21*%
X55750000Y-66675000D03*
X57150000Y-66675000D03*
%TD*%
D24*
%TO.C,C11*%
X304787000Y-84582000D03*
X306337000Y-84582000D03*
%TD*%
D37*
%TO.C,C6*%
X318262000Y-54369000D03*
X318262000Y-52819000D03*
%TD*%
D25*
%TO.C,D36*%
X36638000Y-142875000D03*
X38038000Y-142875000D03*
%TD*%
%TO.C,D43*%
X369505000Y-85344000D03*
X370905000Y-85344000D03*
%TD*%
%TO.C,D28*%
X36700000Y-104648000D03*
X38100000Y-104648000D03*
%TD*%
%TO.C,D20*%
X36700000Y-66675000D03*
X38100000Y-66675000D03*
%TD*%
%TO.C,D27*%
X93788000Y-85725000D03*
X95188000Y-85725000D03*
%TD*%
%TO.C,D41*%
X388617000Y-66675000D03*
X390017000Y-66675000D03*
%TD*%
D32*
%TO.C,R2*%
X370489000Y-151385000D03*
X370489000Y-153035000D03*
%TD*%
D25*
%TO.C,D1*%
X126554000Y-66675000D03*
X127954000Y-66675000D03*
%TD*%
D26*
%TO.C,R8*%
X216849000Y-62992000D03*
X215199000Y-62992000D03*
%TD*%
D29*
%TO.C,J1*%
X235680000Y-163158000D03*
D30*
X233680000Y-163158000D03*
X231680000Y-163158000D03*
%TD*%
D38*
%TO.C,A1*%
X207460000Y-136268000D03*
D39*
X207760000Y-133238000D03*
X212610000Y-133238000D03*
D38*
X212910000Y-136268000D03*
D40*
X200495000Y-136398000D03*
D41*
X200495000Y-133858000D03*
D42*
X200495000Y-131318000D03*
D41*
X200495000Y-128778000D03*
X200495000Y-126238000D03*
X200495000Y-123698000D03*
X200495000Y-121158000D03*
D42*
X200495000Y-118618000D03*
D41*
X200495000Y-116078000D03*
X200495000Y-113538000D03*
X200495000Y-110998000D03*
X200495000Y-108458000D03*
D42*
X200495000Y-105918000D03*
D41*
X200495000Y-103378000D03*
X200495000Y-100838000D03*
X200495000Y-98298000D03*
X200495000Y-95758000D03*
D42*
X200495000Y-93218000D03*
D41*
X200495000Y-90678000D03*
X200495000Y-88138000D03*
X219875000Y-88138000D03*
X219875000Y-90678000D03*
D40*
X219875000Y-93218000D03*
D41*
X219875000Y-95758000D03*
X219875000Y-98298000D03*
X219875000Y-100838000D03*
X219875000Y-103378000D03*
D40*
X219875000Y-105918000D03*
D41*
X219875000Y-108458000D03*
X219875000Y-110998000D03*
X219875000Y-113538000D03*
X219875000Y-116078000D03*
D40*
X219875000Y-118618000D03*
D41*
X219875000Y-121158000D03*
X219875000Y-123698000D03*
X219875000Y-126238000D03*
X219875000Y-128778000D03*
D40*
X219875000Y-131318000D03*
D41*
X219875000Y-133858000D03*
X219875000Y-136398000D03*
D43*
X207645000Y-87568000D03*
D44*
X210185000Y-88368000D03*
D43*
X212725000Y-87568000D03*
%TD*%
D45*
%TO.C,U3*%
X211706000Y-61976000D03*
X211706000Y-63246000D03*
X211706000Y-64516000D03*
X211706000Y-65786000D03*
X211706000Y-67056000D03*
X211706000Y-68326000D03*
X211706000Y-69596000D03*
X206756000Y-69596000D03*
X206756000Y-68326000D03*
X206756000Y-67056000D03*
X206756000Y-65786000D03*
X206756000Y-64516000D03*
X206756000Y-63246000D03*
X206756000Y-61976000D03*
%TD*%
D25*
%TO.C,D23*%
X93788000Y-66675000D03*
X95188000Y-66675000D03*
%TD*%
%TO.C,D30*%
X74800000Y-104775000D03*
X76200000Y-104775000D03*
%TD*%
%TO.C,D32*%
X36700000Y-123825000D03*
X38100000Y-123825000D03*
%TD*%
D32*
%TO.C,R1*%
X372999000Y-151385000D03*
X372999000Y-153035000D03*
%TD*%
D25*
%TO.C,D25*%
X55812000Y-85725000D03*
X57212000Y-85725000D03*
%TD*%
D26*
%TO.C,R9*%
X216725000Y-65278000D03*
X215075000Y-65278000D03*
%TD*%
D25*
%TO.C,D6*%
X145604000Y-85725000D03*
X147004000Y-85725000D03*
%TD*%
%TO.C,D26*%
X74800000Y-85725000D03*
X76200000Y-85725000D03*
%TD*%
%TO.C,D50*%
X264222000Y-65532000D03*
X265622000Y-65532000D03*
%TD*%
D32*
%TO.C,R6*%
X360449000Y-151385000D03*
X360449000Y-153035000D03*
%TD*%
D25*
%TO.C,D22*%
X74800000Y-66675000D03*
X76200000Y-66675000D03*
%TD*%
%TO.C,D16*%
X183704000Y-124079000D03*
X185104000Y-124079000D03*
%TD*%
%TO.C,D13*%
X126300000Y-123825000D03*
X127700000Y-123825000D03*
%TD*%
D24*
%TO.C,C13*%
X304025000Y-165354000D03*
X305575000Y-165354000D03*
%TD*%
D46*
%TO.C,R13*%
X201737000Y-64516000D03*
X203387000Y-64516000D03*
%TD*%
D25*
%TO.C,D46*%
X254824000Y-103632000D03*
X256224000Y-103632000D03*
%TD*%
D47*
%TO.C,U1*%
X106180000Y-109063000D03*
X106680000Y-109063000D03*
X107180000Y-109063000D03*
X107680000Y-109063000D03*
X108180000Y-109063000D03*
X108680000Y-109063000D03*
D48*
X109365000Y-109748000D03*
X109365000Y-110248000D03*
X109365000Y-110748000D03*
X109365000Y-111248000D03*
X109365000Y-111748000D03*
X109365000Y-112248000D03*
D47*
X108680000Y-112933000D03*
X108180000Y-112933000D03*
X107680000Y-112933000D03*
X107180000Y-112933000D03*
X106680000Y-112933000D03*
X106180000Y-112933000D03*
D48*
X105495000Y-112248000D03*
X105495000Y-111748000D03*
X105495000Y-111248000D03*
X105495000Y-110748000D03*
X105495000Y-110248000D03*
X105495000Y-109748000D03*
D49*
X107430000Y-110998000D03*
%TD*%
D25*
%TO.C,D9*%
X126300000Y-104775000D03*
X127700000Y-104775000D03*
%TD*%
%TO.C,D2*%
X145666000Y-66675000D03*
X147066000Y-66675000D03*
%TD*%
%TO.C,D5*%
X126300000Y-85725000D03*
X127700000Y-85725000D03*
%TD*%
D31*
%TO.C,C1*%
X357907500Y-51816000D03*
X355832500Y-51816000D03*
%TD*%
D25*
%TO.C,D34*%
X74800000Y-123825000D03*
X76200000Y-123825000D03*
%TD*%
%TO.C,D10*%
X145350000Y-104521000D03*
X146750000Y-104521000D03*
%TD*%
D31*
%TO.C,C2*%
X357907500Y-49784000D03*
X355832500Y-49784000D03*
%TD*%
D46*
%TO.C,R12*%
X201737000Y-66548000D03*
X203387000Y-66548000D03*
%TD*%
D25*
%TO.C,D15*%
X164654000Y-123825000D03*
X166054000Y-123825000D03*
%TD*%
%TO.C,D44*%
X388617000Y-85852000D03*
X390017000Y-85852000D03*
%TD*%
%TO.C,D39*%
X350709000Y-66929000D03*
X352109000Y-66929000D03*
%TD*%
D50*
%TO.C,U2*%
X324688000Y-56227000D03*
X324688000Y-56877000D03*
X324688000Y-57527000D03*
X324688000Y-58177000D03*
X324688000Y-58827000D03*
X324688000Y-59477000D03*
X324688000Y-60127000D03*
X324688000Y-60777000D03*
X324688000Y-61427000D03*
X324688000Y-62077000D03*
X324688000Y-62727000D03*
X324688000Y-63377000D03*
X324688000Y-64027000D03*
X324688000Y-64677000D03*
X318948000Y-64677000D03*
X318948000Y-64027000D03*
X318948000Y-63377000D03*
X318948000Y-62727000D03*
X318948000Y-62077000D03*
X318948000Y-61427000D03*
X318948000Y-60777000D03*
X318948000Y-60127000D03*
X318948000Y-59477000D03*
X318948000Y-58827000D03*
X318948000Y-58177000D03*
X318948000Y-57527000D03*
X318948000Y-56877000D03*
X318948000Y-56227000D03*
%TD*%
D25*
%TO.C,D12*%
X183450000Y-104775000D03*
X184850000Y-104775000D03*
%TD*%
%TO.C,D7*%
X164462000Y-85725000D03*
X165862000Y-85725000D03*
%TD*%
%TO.C,D42*%
X350771000Y-85598000D03*
X352171000Y-85598000D03*
%TD*%
D26*
%TO.C,R16*%
X310134000Y-82296000D03*
X308484000Y-82296000D03*
%TD*%
D24*
%TO.C,C12*%
X304025000Y-121666000D03*
X305575000Y-121666000D03*
%TD*%
D25*
%TO.C,D40*%
X369567000Y-66675000D03*
X370967000Y-66675000D03*
%TD*%
D46*
%TO.C,R11*%
X201737000Y-68326000D03*
X203387000Y-68326000D03*
%TD*%
D51*
%TO.C,J4*%
X309626000Y-59436000D03*
D36*
X309626000Y-57436000D03*
X309626000Y-55436000D03*
X309626000Y-53436000D03*
X309626000Y-51436000D03*
%TD*%
D25*
%TO.C,D48*%
X254570000Y-141986000D03*
X255970000Y-141986000D03*
%TD*%
%TO.C,D45*%
X254570000Y-84836000D03*
X255970000Y-84836000D03*
%TD*%
D52*
%TO.C,C10*%
X216675000Y-70358000D03*
X215125000Y-70358000D03*
%TD*%
D32*
%TO.C,R4*%
X365469000Y-151385000D03*
X365469000Y-153035000D03*
%TD*%
M02*
