%TF.GenerationSoftware,KiCad,Pcbnew,9.0.0*%
%TF.CreationDate,2025-03-10T19:04:22-04:00*%
%TF.ProjectId,cnc-hmi,636e632d-686d-4692-9e6b-696361645f70,rev?*%
%TF.SameCoordinates,Original*%
%TF.FileFunction,Profile,NP*%
%FSLAX46Y46*%
G04 Gerber Fmt 4.6, Leading zero omitted, Abs format (unit mm)*
G04 Created by KiCad (PCBNEW 9.0.0) date 2025-03-10 19:04:22*
%MOMM*%
%LPD*%
G01*
G04 APERTURE LIST*
%TA.AperFunction,Profile*%
%ADD10C,0.050000*%
%TD*%
G04 APERTURE END LIST*
D10*
X198882000Y-141986000D02*
X198882000Y-168148000D01*
X196342000Y-170688000D02*
X25400000Y-170688000D01*
X25400000Y-170688000D02*
G75*
G02*
X21590000Y-166878000I0J3810000D01*
G01*
X332994000Y-49276000D02*
X332994000Y-56388000D01*
X21590000Y-47498000D02*
G75*
G02*
X25400000Y-43688000I3810000J0D01*
G01*
X221234000Y-141986000D02*
X221234000Y-168148000D01*
X332994000Y-49276000D02*
G75*
G02*
X334518000Y-47752000I1524000J0D01*
G01*
X218694000Y-139446000D02*
G75*
G02*
X221234000Y-141986000I0J-2540000D01*
G01*
X25400000Y-43688000D02*
X398780000Y-43688000D01*
X345694000Y-56388000D02*
X345694000Y-49276000D01*
X402590000Y-47498000D02*
X402590000Y-166878000D01*
X398780000Y-170688000D02*
X223774000Y-170688000D01*
X398780000Y-43688000D02*
G75*
G02*
X402590000Y-47498000I0J-3810000D01*
G01*
X344170000Y-47752000D02*
X334518000Y-47752000D01*
X334518000Y-57912000D02*
X344170000Y-57912000D01*
X344170000Y-47752000D02*
G75*
G02*
X345694000Y-49276000I0J-1524000D01*
G01*
X402590000Y-166878000D02*
G75*
G02*
X398780000Y-170688000I-3810000J0D01*
G01*
X218694000Y-139446000D02*
X201422000Y-139446000D01*
X345694000Y-56388000D02*
G75*
G02*
X344170000Y-57912000I-1524000J0D01*
G01*
X198882000Y-141986000D02*
G75*
G02*
X201422000Y-139446000I2540000J0D01*
G01*
X21590000Y-166878000D02*
X21590000Y-47498000D01*
X223774000Y-170688000D02*
G75*
G02*
X221234000Y-168148000I0J2540000D01*
G01*
X334518000Y-57912000D02*
G75*
G02*
X332994000Y-56388000I0J1524000D01*
G01*
X198882000Y-168148000D02*
G75*
G02*
X196342000Y-170688000I-2540000J0D01*
G01*
M02*
