M48
; DRILL file {KiCad 9.0.0} date 2025-03-10T19:04:33-0400
; FORMAT={-:-/ absolute / inch / decimal}
; #@! TF.CreationDate,2025-03-10T19:04:33-04:00
; #@! TF.GenerationSoftware,Kicad,Pcbnew,9.0.0
; #@! TF.FileFunction,NonPlated,1,2,NPTH
FMAT,2
INCH
; #@! TA.AperFunction,NonPlated,NPTH,ComponentDrill
T1C0.0689
; #@! TA.AperFunction,NonPlated,NPTH,ComponentDrill
T2C0.0728
; #@! TA.AperFunction,NonPlated,NPTH,ComponentDrill
T3C0.0866
; #@! TA.AperFunction,NonPlated,NPTH,ComponentDrill
T4C0.0984
; #@! TA.AperFunction,NonPlated,NPTH,ComponentDrill
T5C0.1200
; #@! TA.AperFunction,NonPlated,NPTH,ComponentDrill
T6C0.1201
; #@! TA.AperFunction,NonPlated,NPTH,ComponentDrill
T7C0.1299
; #@! TA.AperFunction,NonPlated,NPTH,ComponentDrill
T8C0.1570
; #@! TA.AperFunction,NonPlated,NPTH,ComponentDrill
T9C0.1575
%
G90
G05
T1
X1.1424Y-3.0
X1.1424Y-3.75
X1.1424Y-4.5
X1.1424Y-5.25
X1.1424Y-6.0
X1.5424Y-3.0
X1.5424Y-3.75
X1.5424Y-4.5
X1.5424Y-5.25
X1.5424Y-6.0
X1.8924Y-3.0
X1.8924Y-3.75
X1.8924Y-4.5
X1.8924Y-5.25
X1.8924Y-6.0
X2.2924Y-3.0
X2.2924Y-3.75
X2.2924Y-4.5
X2.2924Y-5.25
X2.2924Y-6.0
X2.6424Y-3.0
X2.6424Y-3.75
X2.6424Y-4.5
X2.6424Y-5.25
X3.0174Y-6.0
X3.0424Y-3.0
X3.0424Y-3.75
X3.0424Y-4.5
X3.0424Y-5.25
X3.3924Y-3.0
X3.3924Y-3.75
X3.3924Y-4.5
X3.3924Y-5.25
X3.4174Y-6.0
X3.7924Y-3.0
X3.7924Y-3.75
X3.7924Y-4.5
X3.7924Y-5.25
X4.675Y-3.0
X4.675Y-3.75
X4.675Y-4.5
X4.675Y-5.25
X4.675Y-6.0
X5.075Y-3.0
X5.075Y-3.75
X5.075Y-4.5
X5.075Y-5.25
X5.075Y-6.0
X5.425Y-3.0
X5.425Y-3.75
X5.425Y-4.5
X5.425Y-5.25
X5.425Y-6.0
X5.825Y-3.0
X5.825Y-3.75
X5.825Y-4.5
X5.825Y-5.25
X5.825Y-6.0
X6.175Y-3.0
X6.175Y-3.75
X6.175Y-4.5
X6.175Y-5.25
X6.175Y-6.0
X6.575Y-3.0
X6.575Y-3.75
X6.575Y-4.5
X6.575Y-5.25
X6.575Y-6.0
X6.925Y-3.0
X6.925Y-3.75
X6.925Y-4.5
X6.925Y-5.625
X7.325Y-3.0
X7.325Y-3.75
X7.325Y-4.5
X7.325Y-5.625
X9.35Y-2.9616
X9.725Y-3.7116
X9.725Y-4.4616
X9.725Y-5.2116
X9.725Y-5.9616
X9.75Y-2.9616
X10.1Y-2.9616
X10.125Y-3.7116
X10.125Y-4.4616
X10.125Y-5.2116
X10.125Y-5.9616
X10.5Y-2.9616
X13.5Y-3.0
X13.5Y-3.75
X13.9Y-3.0
X13.9Y-3.75
X14.25Y-3.0
X14.25Y-3.75
X14.65Y-3.0
X14.65Y-3.75
X15.0Y-3.0
X15.0Y-3.75
X15.4Y-3.0
X15.4Y-3.75
T2
X8.1795Y-5.2456
X8.3705Y-5.2456
T3
X8.1677Y-5.3649
X8.3823Y-5.3649
T4
X13.0Y-2.12
X15.3Y-2.12
T5
X2.7474Y-5.725
X3.6874Y-5.725
X6.85Y-5.155
X6.85Y-6.095
X9.455Y-3.4366
X9.455Y-4.1866
X9.455Y-4.9366
X9.455Y-5.6866
X10.395Y-3.4366
X10.395Y-4.1866
X10.395Y-4.9366
X10.395Y-5.6866
T6
X13.9776Y-5.5866
X14.9224Y-5.5866
T7
X13.734Y-6.0
X14.45Y-4.7598
X15.166Y-6.0
T8
X2.7474Y-6.3238
X3.6874Y-6.3238
X7.4488Y-5.155
X7.4488Y-6.095
X9.455Y-4.0354
X9.455Y-4.7854
X9.455Y-5.5354
X9.455Y-6.2854
X10.395Y-4.0354
X10.395Y-4.7854
X10.395Y-5.5354
X10.395Y-6.2854
T9
X1.3424Y-3.0
X1.3424Y-3.75
X1.3424Y-4.5
X1.3424Y-5.25
X1.3424Y-6.0
X2.0924Y-3.0
X2.0924Y-3.75
X2.0924Y-4.5
X2.0924Y-5.25
X2.0924Y-6.0
X2.8424Y-3.0
X2.8424Y-3.75
X2.8424Y-4.5
X2.8424Y-5.25
X3.2174Y-6.0
X3.5924Y-3.0
X3.5924Y-3.75
X3.5924Y-4.5
X3.5924Y-5.25
X4.875Y-3.0
X4.875Y-3.75
X4.875Y-4.5
X4.875Y-5.25
X4.875Y-6.0
X5.625Y-3.0
X5.625Y-3.75
X5.625Y-4.5
X5.625Y-5.25
X5.625Y-6.0
X6.375Y-3.0
X6.375Y-3.75
X6.375Y-4.5
X6.375Y-5.25
X6.375Y-6.0
X7.125Y-3.0
X7.125Y-3.75
X7.125Y-4.5
X7.125Y-5.625
X9.55Y-2.9616
X9.925Y-3.7116
X9.925Y-4.4616
X9.925Y-5.2116
X9.925Y-5.9616
X10.3Y-2.9616
X13.7Y-3.0
X13.7Y-3.75
X14.45Y-3.0
X14.45Y-3.75
X15.2Y-3.0
X15.2Y-3.75
M30
