M48
; DRILL file {KiCad 9.0.0} date 2025-03-10T19:04:33-0400
; FORMAT={-:-/ absolute / inch / decimal}
; #@! TF.CreationDate,2025-03-10T19:04:33-04:00
; #@! TF.GenerationSoftware,Kicad,Pcbnew,9.0.0
; #@! TF.FileFunction,Plated,1,2,PTH
FMAT,2
INCH
; #@! TA.AperFunction,Plated,PTH,ViaDrill
T1C0.0200
; #@! TA.AperFunction,Plated,PTH,ComponentDrill
T2C0.0295
; #@! TA.AperFunction,Plated,PTH,ComponentDrill
T3C0.0354
; #@! TA.AperFunction,Plated,PTH,ComponentDrill
T4C0.0358
; #@! TA.AperFunction,Plated,PTH,ComponentDrill
T5C0.0409
; #@! TA.AperFunction,Plated,PTH,ComponentDrill
T6C0.0591
; #@! TA.AperFunction,Plated,PTH,ComponentDrill
T7C0.1378
%
G90
G05
T1
X1.03Y-5.58
X1.06Y-3.96
X1.07Y-3.31
X1.07Y-3.5
X1.1Y-3.96
X1.11Y-3.31
X1.11Y-3.5
X1.11Y-4.33
X1.14Y-3.96
X1.15Y-3.31
X1.15Y-3.5
X1.18Y-3.96
X1.19Y-3.31
X1.19Y-3.5
X1.33Y-5.12
X1.34Y-2.88
X1.34Y-3.62
X1.415Y-1.96
X1.415Y-2.04
X1.455Y-1.96
X1.455Y-2.04
X1.495Y-1.96
X1.495Y-2.04
X1.535Y-1.96
X1.535Y-2.04
X1.56Y-5.62
X1.6Y-3.37
X1.605Y-1.96
X1.605Y-2.04
X1.61Y-4.12
X1.61Y-4.88
X1.62Y-2.7
X1.62Y-2.78
X1.645Y-1.96
X1.645Y-2.04
X1.66Y-2.7
X1.66Y-2.78
X1.685Y-1.96
X1.685Y-2.04
X1.7Y-2.7
X1.7Y-2.78
X1.725Y-1.96
X1.725Y-2.04
X1.74Y-2.7
X1.74Y-2.78
X1.77Y-6.45
X1.77Y-6.53
X1.81Y-6.45
X1.81Y-6.53
X1.85Y-5.44
X1.85Y-6.45
X1.85Y-6.53
X1.89Y-5.44
X1.89Y-6.45
X1.89Y-6.53
X1.9Y-3.96
X1.93Y-5.44
X1.94Y-3.96
X1.97Y-5.44
X1.98Y-3.96
X2.02Y-3.96
X2.3Y-2.62
X2.31Y-5.63
X2.35Y-6.11
X2.365Y-1.96
X2.365Y-2.04
X2.37Y-3.37
X2.37Y-4.13
X2.37Y-4.85
X2.405Y-1.96
X2.405Y-2.04
X2.445Y-1.96
X2.445Y-2.04
X2.485Y-1.96
X2.485Y-2.04
X2.55Y-2.62
X2.55Y-2.7
X2.555Y-1.96
X2.555Y-2.04
X2.59Y-2.62
X2.59Y-2.7
X2.59Y-5.44
X2.59Y-5.95
X2.59Y-6.03
X2.595Y-1.96
X2.595Y-2.04
X2.63Y-2.62
X2.63Y-2.7
X2.63Y-5.44
X2.63Y-5.95
X2.63Y-6.03
X2.635Y-1.96
X2.635Y-2.04
X2.67Y-2.62
X2.67Y-2.7
X2.67Y-3.96
X2.67Y-5.44
X2.67Y-5.95
X2.67Y-6.03
X2.675Y-1.96
X2.675Y-2.04
X2.71Y-3.96
X2.71Y-5.44
X2.71Y-5.95
X2.71Y-6.03
X2.75Y-3.96
X2.79Y-3.96
X3.05Y-2.62
X3.1Y-3.36
X3.1Y-4.09
X3.1Y-4.84
X3.12Y-6.46
X3.12Y-6.54
X3.16Y-6.46
X3.16Y-6.54
X3.2Y-6.46
X3.2Y-6.54
X3.24Y-6.46
X3.24Y-6.54
X3.31Y-5.55
X3.385Y-1.965
X3.385Y-2.045
X3.39Y-2.545
X3.39Y-2.625
X3.4Y-3.96
X3.425Y-1.965
X3.425Y-2.045
X3.43Y-2.545
X3.43Y-2.625
X3.44Y-3.96
X3.465Y-1.965
X3.465Y-2.045
X3.47Y-2.545
X3.47Y-2.625
X3.47Y-5.44
X3.47Y-5.86
X3.47Y-5.94
X3.48Y-3.96
X3.505Y-1.965
X3.505Y-2.045
X3.51Y-2.545
X3.51Y-2.625
X3.51Y-5.44
X3.51Y-5.86
X3.51Y-5.94
X3.52Y-3.96
X3.55Y-5.44
X3.55Y-5.86
X3.55Y-5.94
X3.575Y-1.965
X3.575Y-2.045
X3.59Y-5.44
X3.59Y-5.86
X3.59Y-5.94
X3.615Y-1.965
X3.615Y-2.045
X3.655Y-1.965
X3.655Y-2.045
X3.695Y-1.965
X3.695Y-2.045
X3.72Y-5.86
X3.72Y-5.94
X3.76Y-5.86
X3.76Y-5.94
X3.8Y-5.86
X3.8Y-5.94
X3.84Y-5.86
X3.84Y-5.94
X3.87Y-2.62
X3.88Y-3.38
X3.88Y-4.13
X3.88Y-4.875
X4.0Y-6.37
X4.019Y-4.3885
X4.03Y-3.94
X4.03Y-4.69
X4.04Y-4.42
X4.0521Y-4.3581
X4.06Y-4.0
X4.0785Y-4.331
X4.08Y-4.04
X4.0915Y-3.979
X4.1Y-4.45
X4.1Y-4.95
X4.11Y-4.31
X4.13Y-6.15
X4.13Y-6.23
X4.15Y-4.48
X4.16Y-2.53
X4.17Y-4.17
X4.17Y-6.15
X4.17Y-6.23
X4.1775Y-4.5093
X4.18Y-2.39
X4.19Y-4.09
X4.19Y-4.74
X4.2Y-5.83
X4.2032Y-4.59
X4.21Y-6.15
X4.21Y-6.23
X4.22Y-2.34
X4.22Y-4.13
X4.22Y-4.88
X4.23Y-4.56
X4.25Y-6.15
X4.25Y-6.23
X4.26Y-4.53
X4.26Y-4.9
X4.26Y-5.57
X4.29Y-2.16
X4.3Y-4.53
X4.31Y-5.65
X4.32Y-2.22
X4.32Y-6.15
X4.32Y-6.23
X4.35Y-4.15
X4.35Y-4.66
X4.36Y-6.15
X4.36Y-6.23
X4.39Y-2.16
X4.39Y-4.0732
X4.39Y-5.61
X4.4Y-6.15
X4.4Y-6.23
X4.42Y-4.53
X4.43Y-2.58
X4.44Y-6.15
X4.44Y-6.23
X4.45Y-4.33
X4.6Y-4.1
X4.725Y-4.085
X4.93Y-4.13
X5.14Y-5.63
X5.15Y-4.88
X5.16Y-2.62
X5.16Y-3.38
X5.16Y-4.12
X5.27Y-1.925
X5.27Y-2.005
X5.29Y-2.43
X5.29Y-4.2168
X5.31Y-1.925
X5.31Y-2.005
X5.35Y-1.925
X5.35Y-2.005
X5.39Y-1.925
X5.39Y-2.005
X5.39Y-3.44
X5.39Y-3.52
X5.43Y-2.69
X5.43Y-2.77
X5.43Y-3.44
X5.43Y-3.52
X5.46Y-1.925
X5.46Y-2.005
X5.47Y-2.69
X5.47Y-2.77
X5.47Y-3.44
X5.47Y-3.52
X5.5Y-1.925
X5.5Y-2.005
X5.51Y-2.37
X5.51Y-2.45
X5.51Y-2.69
X5.51Y-2.77
X5.51Y-3.44
X5.51Y-3.52
X5.54Y-1.925
X5.54Y-2.005
X5.55Y-2.37
X5.55Y-2.45
X5.55Y-2.69
X5.55Y-2.77
X5.58Y-1.925
X5.58Y-2.005
X5.59Y-2.37
X5.59Y-2.45
X5.63Y-2.37
X5.63Y-2.45
X5.68Y-4.12
X5.89Y-2.62
X5.89Y-3.25
X5.89Y-3.38
X5.89Y-4.12
X5.89Y-4.87
X5.9Y-5.62
X5.9Y-6.53
X5.9Y-6.61
X5.94Y-6.53
X5.94Y-6.61
X5.98Y-6.53
X5.98Y-6.61
X6.02Y-4.26
X6.02Y-4.34
X6.02Y-6.53
X6.02Y-6.61
X6.06Y-4.26
X6.06Y-4.34
X6.09Y-2.37
X6.09Y-2.45
X6.09Y-2.71
X6.09Y-2.79
X6.09Y-6.53
X6.09Y-6.61
X6.1Y-4.26
X6.1Y-4.34
X6.13Y-2.37
X6.13Y-2.45
X6.13Y-2.71
X6.13Y-2.79
X6.13Y-6.53
X6.13Y-6.61
X6.14Y-4.26
X6.14Y-4.34
X6.17Y-2.37
X6.17Y-2.45
X6.17Y-2.71
X6.17Y-2.79
X6.17Y-6.53
X6.17Y-6.61
X6.19Y-3.4
X6.19Y-3.44
X6.19Y-3.48
X6.19Y-3.52
X6.195Y-1.92
X6.195Y-2.0
X6.21Y-2.37
X6.21Y-2.45
X6.21Y-2.71
X6.21Y-2.79
X6.21Y-6.53
X6.21Y-6.61
X6.235Y-1.92
X6.235Y-2.0
X6.27Y-3.4
X6.27Y-3.44
X6.27Y-3.48
X6.27Y-3.52
X6.275Y-1.92
X6.275Y-2.0
X6.315Y-1.92
X6.315Y-2.0
X6.385Y-1.92
X6.385Y-2.0
X6.425Y-1.92
X6.425Y-2.0
X6.44Y-4.13
X6.465Y-1.92
X6.465Y-2.0
X6.505Y-1.92
X6.505Y-2.0
X6.63Y-2.37
X6.63Y-2.45
X6.65Y-3.38
X6.65Y-4.13
X6.65Y-4.88
X6.65Y-5.62
X6.66Y-2.62
X6.67Y-2.37
X6.67Y-2.45
X6.71Y-2.37
X6.71Y-2.45
X6.75Y-2.37
X6.75Y-2.45
X6.98Y-5.01
X7.12Y-1.92
X7.12Y-2.0
X7.16Y-1.92
X7.16Y-2.0
X7.17Y-2.37
X7.17Y-2.45
X7.19Y-4.13
X7.19Y-4.89
X7.2Y-1.92
X7.2Y-2.0
X7.21Y-2.37
X7.21Y-2.45
X7.24Y-1.92
X7.24Y-2.0
X7.25Y-2.37
X7.25Y-2.45
X7.29Y-2.37
X7.29Y-2.45
X7.31Y-1.92
X7.31Y-2.0
X7.35Y-1.92
X7.35Y-2.0
X7.39Y-1.92
X7.39Y-2.0
X7.4Y-5.42
X7.41Y-2.62
X7.42Y-3.38
X7.42Y-4.12
X7.42Y-4.88
X7.43Y-1.92
X7.43Y-2.0
X7.45Y-5.32
X7.59Y-4.45
X7.59Y-4.49
X7.59Y-4.53
X7.59Y-4.57
X7.61Y-3.34
X7.61Y-3.64
X7.67Y-4.04
X7.67Y-4.45
X7.67Y-4.49
X7.67Y-4.53
X7.67Y-4.57
X7.69Y-3.19
X7.7Y-2.8
X7.7432Y-2.6163
X7.7432Y-3.77
X7.75Y-4.86
X7.75Y-5.17
X7.77Y-2.47
X7.77Y-3.89
X7.79Y-4.17
X7.91Y-2.4395
X7.91Y-2.54
X7.91Y-2.62
X7.91Y-2.78
X7.91Y-3.42
X7.98Y-3.58
X7.98Y-4.17
X7.996Y-4.856
X8.01Y-4.67
X8.04Y-4.77
X8.06Y-3.82
X8.07Y-2.75
X8.07Y-4.12
X8.1Y-3.1
X8.1Y-4.97
X8.11Y-5.07
X8.12Y-3.99
X8.12Y-4.07
X8.16Y-3.99
X8.16Y-4.07
X8.2Y-3.99
X8.2Y-4.07
X8.2Y-4.3
X8.2Y-4.38
X8.21Y-2.36
X8.21Y-2.5895
X8.24Y-4.07
X8.24Y-4.3
X8.24Y-4.38
X8.25Y-2.32
X8.25Y-2.51
X8.26Y-2.7
X8.26Y-3.67
X8.28Y-3.57
X8.28Y-4.3
X8.28Y-4.38
X8.32Y-4.3
X8.32Y-4.38
X8.37Y-3.26
X8.4Y-2.74
X8.41Y-3.93
X8.41Y-4.01
X8.42Y-4.58
X8.44Y-2.92
X8.45Y-3.93
X8.45Y-4.01
X8.49Y-3.78
X8.49Y-3.93
X8.49Y-4.01
X8.53Y-2.98
X8.53Y-3.93
X8.53Y-4.01
X8.54Y-5.17
X8.56Y-4.68
X8.57Y-4.17
X8.58Y-2.71
X8.59Y-2.96
X8.6Y-2.42
X8.6Y-2.48
X8.6Y-2.57
X8.62Y-2.63
X8.65Y-3.4
X8.75Y-4.97
X8.76Y-2.53
X8.76Y-3.55
X8.76Y-4.28
X8.76Y-4.47
X8.78Y-4.68
X8.78Y-4.86
X8.8Y-5.17
X8.84Y-4.11
X8.85Y-5.915
X8.85Y-5.955
X8.85Y-5.995
X8.85Y-6.035
X8.85Y-6.105
X8.85Y-6.145
X8.85Y-6.185
X8.85Y-6.225
X8.88Y-2.69
X8.88Y-4.82
X8.88Y-5.43
X8.91Y-5.5026
X8.92Y-3.03
X8.93Y-4.76
X8.93Y-5.915
X8.93Y-5.955
X8.93Y-5.995
X8.93Y-6.035
X8.93Y-6.105
X8.93Y-6.145
X8.93Y-6.185
X8.93Y-6.225
X8.94Y-5.4268
X8.95Y-3.26
X8.95Y-4.06
X8.96Y-5.47
X8.965Y-5.335
X9.05Y-3.16
X9.1Y-3.37
X9.11Y-5.27
X9.11Y-5.35
X9.15Y-5.27
X9.15Y-5.35
X9.15Y-5.5
X9.15Y-5.54
X9.15Y-5.58
X9.15Y-5.62
X9.19Y-5.27
X9.19Y-5.35
X9.2Y-3.37
X9.2Y-3.9
X9.2Y-4.62
X9.23Y-5.27
X9.23Y-5.35
X9.23Y-5.5
X9.23Y-5.54
X9.23Y-5.58
X9.23Y-5.62
X9.4Y-2.29
X9.41Y-4.37
X9.41Y-4.41
X9.41Y-4.45
X9.41Y-4.49
X9.46Y-5.84
X9.46Y-5.88
X9.46Y-5.92
X9.46Y-5.96
X9.49Y-4.37
X9.49Y-4.41
X9.49Y-4.45
X9.49Y-4.49
X9.54Y-5.84
X9.54Y-5.88
X9.54Y-5.92
X9.54Y-5.96
X9.87Y-2.26
X9.94Y-3.16
X9.98Y-2.59
X9.98Y-3.3144
X10.0507Y-5.4
X10.0798Y-5.3757
X10.13Y-4.84
X10.14Y-4.07
X10.14Y-5.59
X10.17Y-4.53
X10.335Y-6.5
X10.335Y-6.58
X10.375Y-6.5
X10.375Y-6.58
X10.415Y-6.5
X10.415Y-6.58
X10.455Y-6.5
X10.455Y-6.58
X10.51Y-2.59
X10.525Y-6.5
X10.525Y-6.58
X10.565Y-6.5
X10.565Y-6.58
X10.605Y-6.5
X10.605Y-6.58
X10.645Y-6.5
X10.645Y-6.58
X10.75Y-5.93
X10.75Y-6.01
X10.79Y-5.93
X10.79Y-6.01
X10.8Y-2.27
X10.83Y-5.93
X10.83Y-6.01
X10.84Y-2.27
X10.87Y-5.93
X10.87Y-6.01
X10.88Y-2.27
X10.92Y-2.27
X10.99Y-2.27
X11.025Y-5.54
X11.025Y-5.62
X11.03Y-2.27
X11.03Y-4.84
X11.03Y-4.92
X11.045Y-2.77
X11.045Y-2.85
X11.045Y-3.37
X11.045Y-3.45
X11.045Y-4.055
X11.045Y-4.135
X11.065Y-5.54
X11.065Y-5.62
X11.07Y-2.27
X11.07Y-4.84
X11.07Y-4.92
X11.085Y-2.77
X11.085Y-2.85
X11.085Y-3.37
X11.085Y-3.45
X11.085Y-4.055
X11.085Y-4.135
X11.105Y-5.54
X11.105Y-5.62
X11.11Y-2.27
X11.11Y-4.84
X11.11Y-4.92
X11.125Y-2.77
X11.125Y-2.85
X11.125Y-3.37
X11.125Y-3.45
X11.125Y-4.055
X11.125Y-4.135
X11.145Y-5.54
X11.145Y-5.62
X11.15Y-4.84
X11.15Y-4.92
X11.165Y-2.77
X11.165Y-2.85
X11.165Y-3.37
X11.165Y-3.45
X11.165Y-4.055
X11.165Y-4.135
X11.215Y-5.54
X11.215Y-5.62
X11.22Y-4.84
X11.22Y-4.92
X11.235Y-2.77
X11.235Y-2.85
X11.235Y-3.37
X11.235Y-3.45
X11.235Y-4.055
X11.235Y-4.135
X11.255Y-5.54
X11.255Y-5.62
X11.26Y-4.84
X11.26Y-4.92
X11.275Y-2.77
X11.275Y-2.85
X11.275Y-3.37
X11.275Y-3.45
X11.275Y-4.055
X11.275Y-4.135
X11.295Y-5.54
X11.295Y-5.62
X11.3Y-4.84
X11.3Y-4.92
X11.315Y-2.77
X11.315Y-2.85
X11.315Y-3.37
X11.315Y-3.45
X11.315Y-4.055
X11.315Y-4.135
X11.335Y-5.54
X11.335Y-5.62
X11.34Y-4.84
X11.34Y-4.92
X11.355Y-2.77
X11.355Y-2.85
X11.355Y-3.37
X11.355Y-3.45
X11.355Y-4.055
X11.355Y-4.135
X11.46Y-5.93
X11.46Y-6.01
X11.5Y-5.93
X11.5Y-6.01
X11.54Y-5.93
X11.54Y-6.01
X11.58Y-5.93
X11.58Y-6.01
X11.73Y-2.3626
X11.73Y-6.27
X11.82Y-2.53
X11.84Y-5.93
X11.84Y-6.01
X11.87Y-2.025
X11.87Y-2.45
X11.87Y-5.57
X11.87Y-5.61
X11.87Y-5.65
X11.87Y-5.69
X11.88Y-5.93
X11.88Y-6.01
X11.89Y-3.97
X11.89Y-4.01
X11.89Y-4.05
X11.89Y-4.09
X11.89Y-4.16
X11.89Y-4.2
X11.89Y-4.24
X11.89Y-4.28
X11.92Y-5.93
X11.92Y-6.01
X11.93Y-2.56
X11.95Y-5.57
X11.95Y-5.61
X11.95Y-5.65
X11.95Y-5.69
X11.96Y-5.93
X11.96Y-6.01
X11.97Y-3.97
X11.97Y-4.01
X11.97Y-4.05
X11.97Y-4.09
X11.97Y-4.16
X11.97Y-4.2
X11.97Y-4.24
X11.97Y-4.28
X11.98Y-2.51
X11.99Y-2.3468
X12.0331Y-2.2132
X12.0331Y-6.28
X12.07Y-2.32
X12.075Y-3.24
X12.08Y-3.97
X12.08Y-4.01
X12.08Y-4.05
X12.08Y-4.09
X12.08Y-4.16
X12.08Y-4.2
X12.08Y-4.24
X12.08Y-4.28
X12.11Y-2.19
X12.1147Y-2.27
X12.1147Y-4.76
X12.14Y-6.24
X12.16Y-2.4
X12.16Y-3.97
X12.16Y-4.01
X12.16Y-4.05
X12.16Y-4.09
X12.16Y-4.16
X12.16Y-4.2
X12.16Y-4.24
X12.16Y-4.28
X12.18Y-3.19
X12.19Y-3.13
X12.22Y-4.81
X12.25Y-3.24
X12.26Y-2.21
X12.3Y-2.32
X12.31Y-5.09
X12.31Y-5.17
X12.32Y-5.56
X12.32Y-5.64
X12.35Y-5.09
X12.35Y-5.17
X12.36Y-5.56
X12.36Y-5.64
X12.379Y-2.3915
X12.39Y-5.09
X12.39Y-5.17
X12.4Y-2.15
X12.4Y-2.36
X12.4Y-5.56
X12.4Y-5.64
X12.41Y-2.25
X12.41Y-3.74
X12.41Y-5.93
X12.41Y-6.01
X12.43Y-5.09
X12.43Y-5.17
X12.44Y-5.56
X12.44Y-5.64
X12.45Y-2.11
X12.45Y-2.15
X12.45Y-5.93
X12.45Y-6.01
X12.46Y-3.77
X12.4629Y-2.2661
X12.4868Y-2.2958
X12.4868Y-3.85
X12.49Y-5.93
X12.49Y-6.01
X12.5Y-1.97
X12.5Y-5.09
X12.5Y-5.17
X12.51Y-5.56
X12.51Y-5.64
X12.53Y-5.93
X12.53Y-6.01
X12.54Y-2.59
X12.54Y-3.91
X12.54Y-5.09
X12.54Y-5.17
X12.55Y-5.56
X12.55Y-5.64
X12.56Y-4.5
X12.56Y-6.15
X12.58Y-5.09
X12.58Y-5.17
X12.59Y-1.91
X12.59Y-5.56
X12.59Y-5.64
X12.62Y-5.09
X12.62Y-5.17
X12.63Y-1.91
X12.63Y-5.56
X12.63Y-5.64
X12.64Y-2.54
X12.66Y-2.48
X12.67Y-1.91
X12.67Y-2.25
X12.67Y-2.29
X12.67Y-2.33
X12.67Y-2.37
X12.71Y-1.91
X12.7115Y-2.479
X12.72Y-5.43
X12.78Y-5.56
X12.78Y-5.64
X12.79Y-2.72
X12.79Y-2.8
X12.79Y-3.13
X12.79Y-3.21
X12.79Y-3.84
X12.79Y-3.92
X12.8Y-4.85
X12.8Y-4.93
X12.81Y-5.92
X12.81Y-6.0
X12.82Y-5.56
X12.82Y-5.64
X12.83Y-2.72
X12.83Y-2.8
X12.83Y-3.13
X12.83Y-3.21
X12.83Y-3.84
X12.83Y-3.92
X12.84Y-4.85
X12.84Y-4.93
X12.85Y-2.02
X12.85Y-5.92
X12.85Y-6.0
X12.86Y-5.56
X12.86Y-5.64
X12.87Y-2.3148
X12.87Y-2.45
X12.87Y-2.72
X12.87Y-2.8
X12.87Y-3.13
X12.87Y-3.21
X12.87Y-3.84
X12.87Y-3.92
X12.88Y-4.85
X12.88Y-4.93
X12.89Y-2.02
X12.89Y-5.92
X12.89Y-6.0
X12.9Y-5.56
X12.9Y-5.64
X12.91Y-2.72
X12.91Y-2.8
X12.91Y-3.13
X12.91Y-3.21
X12.91Y-3.84
X12.91Y-3.92
X12.92Y-4.85
X12.92Y-4.93
X12.93Y-2.02
X12.93Y-5.92
X12.93Y-6.0
X12.97Y-2.02
X12.97Y-5.56
X12.97Y-5.64
X12.98Y-2.72
X12.98Y-2.8
X12.98Y-3.13
X12.98Y-3.21
X12.98Y-3.84
X12.98Y-3.92
X12.99Y-4.85
X12.99Y-4.93
X13.01Y-5.56
X13.01Y-5.64
X13.02Y-2.72
X13.02Y-2.8
X13.02Y-3.13
X13.02Y-3.21
X13.02Y-3.84
X13.02Y-3.92
X13.03Y-4.85
X13.03Y-4.93
X13.05Y-5.56
X13.05Y-5.64
X13.06Y-2.72
X13.06Y-2.8
X13.06Y-3.13
X13.06Y-3.21
X13.06Y-3.84
X13.06Y-3.92
X13.07Y-4.85
X13.07Y-4.93
X13.09Y-5.56
X13.09Y-5.64
X13.1Y-2.72
X13.1Y-2.8
X13.1Y-3.13
X13.1Y-3.21
X13.1Y-3.84
X13.1Y-3.92
X13.11Y-4.85
X13.11Y-4.93
X13.19Y-5.95
X13.23Y-5.91
X13.3Y-2.32
X13.31Y-6.01
X13.34Y-2.32
X13.36Y-6.07
X13.38Y-2.32
X13.42Y-2.32
X13.42Y-3.49
X13.44Y-1.8
X13.48Y-1.8
X13.52Y-1.8
X13.56Y-1.8
X13.65Y-4.29
X13.65Y-4.39
X13.65Y-4.53
X13.65Y-4.69
X13.69Y-4.29
X13.69Y-4.39
X13.69Y-4.53
X13.69Y-4.69
X13.7Y-5.3
X13.7058Y-2.39
X13.73Y-2.07
X13.73Y-2.11
X13.73Y-2.14
X13.73Y-4.29
X13.73Y-4.39
X13.73Y-4.53
X13.73Y-4.69
X13.77Y-4.29
X13.77Y-4.39
X13.77Y-4.53
X13.77Y-4.69
X13.7968Y-2.07
X13.8Y-1.97
X13.8Y-2.18
X13.82Y-2.04
X13.8325Y-2.145
X13.9Y-2.23
X13.95Y-2.23
X13.98Y-1.81
X14.02Y-1.81
X14.04Y-2.33
X14.05Y-2.4774
X14.06Y-1.81
X14.08Y-2.33
X14.1Y-1.81
X14.1Y-3.43
X14.12Y-2.33
X14.12Y-2.67
X14.13Y-2.18
X14.14Y-3.37
X14.14Y-4.69
X14.16Y-2.33
X14.19Y-4.52
X14.21Y-4.71
X14.21Y-4.75
X14.21Y-4.79
X14.21Y-4.83
X14.21Y-5.68
X14.21Y-5.72
X14.21Y-5.76
X14.21Y-5.8
X14.28Y-4.48
X14.29Y-4.71
X14.29Y-4.75
X14.29Y-4.79
X14.29Y-4.83
X14.29Y-5.68
X14.29Y-5.72
X14.29Y-5.76
X14.29Y-5.8
X14.39Y-4.4
X14.45Y-1.88
X14.45Y-1.98
X14.47Y-2.41
X14.49Y-1.88
X14.49Y-1.98
X14.51Y-5.68
X14.51Y-5.72
X14.51Y-5.76
X14.51Y-5.8
X14.53Y-1.88
X14.53Y-1.98
X14.56Y-4.24
X14.56Y-4.33
X14.57Y-1.88
X14.57Y-1.98
X14.59Y-4.71
X14.59Y-4.75
X14.59Y-4.79
X14.59Y-4.83
X14.59Y-5.68
X14.59Y-5.72
X14.59Y-5.76
X14.59Y-5.8
X14.62Y-4.56
X14.64Y-4.24
X14.64Y-4.34
X14.65Y-2.64
X14.67Y-4.71
X14.67Y-4.75
X14.67Y-4.79
X14.67Y-4.83
X14.68Y-4.24
X14.68Y-4.34
X14.72Y-3.32
X14.72Y-4.24
X14.72Y-4.34
X14.76Y-4.24
X14.76Y-4.34
X14.78Y-2.49
X14.83Y-3.32
X14.83Y-4.64
X15.235Y-6.225
X15.235Y-6.305
X15.245Y-4.455
X15.245Y-4.535
X15.275Y-6.225
X15.275Y-6.305
X15.28Y-2.4932
X15.285Y-4.455
X15.285Y-4.535
X15.315Y-6.225
X15.315Y-6.305
X15.325Y-4.455
X15.325Y-4.535
X15.325Y-5.405
X15.325Y-5.485
X15.3424Y-2.5176
X15.355Y-6.225
X15.355Y-6.305
X15.365Y-4.455
X15.365Y-4.535
X15.365Y-5.405
X15.365Y-5.485
X15.39Y-3.07
X15.39Y-3.17
X15.405Y-5.405
X15.405Y-5.485
X15.425Y-6.225
X15.425Y-6.305
X15.43Y-3.07
X15.43Y-3.17
X15.435Y-4.455
X15.435Y-4.535
X15.445Y-5.405
X15.445Y-5.485
X15.465Y-6.225
X15.465Y-6.305
X15.47Y-3.07
X15.47Y-3.17
X15.475Y-4.455
X15.475Y-4.535
X15.505Y-6.225
X15.505Y-6.305
X15.51Y-3.07
X15.51Y-3.17
X15.515Y-4.455
X15.515Y-4.535
X15.515Y-5.405
X15.515Y-5.485
X15.545Y-6.225
X15.545Y-6.305
X15.555Y-4.455
X15.555Y-4.535
X15.555Y-5.405
X15.555Y-5.485
X15.595Y-5.405
X15.595Y-5.485
X15.635Y-5.405
X15.635Y-5.485
T2
X7.15Y-6.42
X7.2287Y-6.42
X7.3075Y-6.42
X7.3862Y-6.42
X7.55Y-2.79
X7.55Y-2.8687
X7.55Y-2.9475
X7.55Y-3.0262
X7.55Y-3.105
X7.55Y-3.1837
X7.55Y-3.2624
X7.55Y-3.3412
X9.1213Y-6.4235
X9.2Y-6.4235
X9.2787Y-6.4235
X12.19Y-2.025
X12.19Y-2.1038
X12.19Y-2.1825
X12.19Y-2.2613
X12.19Y-2.34
T3
X14.1744Y-6.4016
X14.2531Y-6.4016
X14.3319Y-6.4016
X14.4106Y-6.4016
X14.4894Y-6.4016
X14.5681Y-6.4016
X14.6469Y-6.4016
X14.7256Y-6.4016
T4
X11.775Y-3.4152
X11.775Y-4.9152
X11.775Y-6.4152
X11.875Y-3.4152
X11.875Y-4.9152
X11.875Y-6.4152
X11.975Y-3.4152
X11.975Y-4.9152
X11.975Y-6.4152
X12.075Y-3.4152
X12.075Y-4.9152
X12.075Y-6.4152
X12.175Y-3.4152
X12.175Y-4.9152
X12.175Y-6.4152
X12.275Y-3.4152
X12.275Y-4.9152
X12.275Y-6.4152
T5
X9.5Y-3.1616
X9.6Y-3.1616
X9.875Y-3.9116
X9.875Y-4.6616
X9.875Y-5.4116
X9.875Y-6.1616
X9.975Y-3.9116
X9.975Y-4.6616
X9.975Y-5.4116
X9.975Y-6.1616
X10.25Y-3.1616
X10.35Y-3.1616
X13.65Y-3.2
X13.65Y-3.95
X13.75Y-3.2
X13.75Y-3.95
X14.4Y-3.2
X14.4Y-3.95
X14.5Y-3.2
X14.5Y-3.95
X15.15Y-3.2
X15.15Y-3.95
X15.25Y-3.2
X15.25Y-3.95
T6
X1.1924Y-2.9
X1.1924Y-3.65
X1.1924Y-4.4
X1.1924Y-5.15
X1.1924Y-5.9
X1.4424Y-2.8
X1.4424Y-3.55
X1.4424Y-4.3
X1.4424Y-5.05
X1.4424Y-5.8
X1.9424Y-2.9
X1.9424Y-3.65
X1.9424Y-4.4
X1.9424Y-5.15
X1.9424Y-5.9
X2.1924Y-2.8
X2.1924Y-3.55
X2.1924Y-4.3
X2.1924Y-5.05
X2.1924Y-5.8
X2.6924Y-2.9
X2.6924Y-3.65
X2.6924Y-4.4
X2.6924Y-5.15
X2.9424Y-2.8
X2.9424Y-3.55
X2.9424Y-4.3
X2.9424Y-5.05
X3.0674Y-5.9
X3.3174Y-5.8
X3.4424Y-2.9
X3.4424Y-3.65
X3.4424Y-4.4
X3.4424Y-5.15
X3.6924Y-2.8
X3.6924Y-3.55
X3.6924Y-4.3
X3.6924Y-5.05
X4.725Y-2.9
X4.725Y-3.65
X4.725Y-4.4
X4.725Y-5.15
X4.725Y-5.9
X4.975Y-2.8
X4.975Y-3.55
X4.975Y-4.3
X4.975Y-5.05
X4.975Y-5.8
X5.475Y-2.9
X5.475Y-3.65
X5.475Y-4.4
X5.475Y-5.15
X5.475Y-5.9
X5.725Y-2.8
X5.725Y-3.55
X5.725Y-4.3
X5.725Y-5.05
X5.725Y-5.8
X6.225Y-2.9
X6.225Y-3.65
X6.225Y-4.4
X6.225Y-5.15
X6.225Y-5.9
X6.475Y-2.8
X6.475Y-3.55
X6.475Y-4.3
X6.475Y-5.05
X6.475Y-5.8
X6.975Y-2.9
X6.975Y-3.65
X6.975Y-4.4
X6.975Y-5.525
X7.225Y-2.8
X7.225Y-3.55
X7.225Y-4.3
X7.225Y-5.425
X9.4Y-2.8616
X9.65Y-2.7616
X9.775Y-3.6116
X9.775Y-4.3616
X9.775Y-5.1116
X9.775Y-5.8616
X10.025Y-3.5116
X10.025Y-4.2616
X10.025Y-5.0116
X10.025Y-5.7616
X10.15Y-2.8616
X10.4Y-2.7616
X13.55Y-2.9
X13.55Y-3.65
X13.8Y-2.8
X13.8Y-3.55
X13.8772Y-5.2559
X13.9343Y-6.2677
X14.3Y-2.9
X14.3Y-3.65
X14.55Y-2.8
X14.55Y-3.55
X14.9657Y-6.2677
X15.0228Y-5.2559
X15.05Y-2.9
X15.05Y-3.65
X15.3Y-2.8
X15.3Y-3.55
T7
X1.0Y-1.87
X1.0Y-6.57
X4.25Y-1.87
X4.25Y-6.57
X7.65Y-6.57
X8.3Y-1.87
X8.9Y-6.57
X11.45Y-1.87
X11.45Y-6.57
X13.65Y-4.92
X15.2Y-4.92
X15.7Y-1.87
X15.7Y-6.57
M30
