%TF.GenerationSoftware,KiCad,Pcbnew,9.0.0*%
%TF.CreationDate,2025-03-10T19:04:21-04:00*%
%TF.ProjectId,cnc-hmi,636e632d-686d-4692-9e6b-696361645f70,rev?*%
%TF.SameCoordinates,Original*%
%TF.FileFunction,Paste,Bot*%
%TF.FilePolarity,Positive*%
%FSLAX46Y46*%
G04 Gerber Fmt 4.6, Leading zero omitted, Abs format (unit mm)*
G04 Created by KiCad (PCBNEW 9.0.0) date 2025-03-10 19:04:21*
%MOMM*%
%LPD*%
G01*
G04 APERTURE LIST*
G04 Aperture macros list*
%AMRoundRect*
0 Rectangle with rounded corners*
0 $1 Rounding radius*
0 $2 $3 $4 $5 $6 $7 $8 $9 X,Y pos of 4 corners*
0 Add a 4 corners polygon primitive as box body*
4,1,4,$2,$3,$4,$5,$6,$7,$8,$9,$2,$3,0*
0 Add four circle primitives for the rounded corners*
1,1,$1+$1,$2,$3*
1,1,$1+$1,$4,$5*
1,1,$1+$1,$6,$7*
1,1,$1+$1,$8,$9*
0 Add four rect primitives between the rounded corners*
20,1,$1+$1,$2,$3,$4,$5,0*
20,1,$1+$1,$4,$5,$6,$7,0*
20,1,$1+$1,$6,$7,$8,$9,0*
20,1,$1+$1,$8,$9,$2,$3,0*%
G04 Aperture macros list end*
%ADD10C,0.010000*%
%ADD11RoundRect,0.225000X-0.225000X-0.250000X0.225000X-0.250000X0.225000X0.250000X-0.225000X0.250000X0*%
%ADD12RoundRect,0.150000X0.150000X0.200000X-0.150000X0.200000X-0.150000X-0.200000X0.150000X-0.200000X0*%
%ADD13RoundRect,0.200000X0.200000X0.275000X-0.200000X0.275000X-0.200000X-0.275000X0.200000X-0.275000X0*%
%ADD14R,3.000000X2.179000*%
%ADD15R,1.250000X0.300000*%
%ADD16RoundRect,0.250000X0.337500X0.475000X-0.337500X0.475000X-0.337500X-0.475000X0.337500X-0.475000X0*%
%ADD17RoundRect,0.200000X-0.275000X0.200000X-0.275000X-0.200000X0.275000X-0.200000X0.275000X0.200000X0*%
%ADD18RoundRect,0.250000X0.475000X-0.250000X0.475000X0.250000X-0.475000X0.250000X-0.475000X-0.250000X0*%
%ADD19RoundRect,0.250000X-0.250000X-0.475000X0.250000X-0.475000X0.250000X0.475000X-0.250000X0.475000X0*%
%ADD20RoundRect,0.225000X0.250000X-0.225000X0.250000X0.225000X-0.250000X0.225000X-0.250000X-0.225000X0*%
%ADD21R,3.800000X2.200000*%
%ADD22R,2.200000X3.800000*%
%ADD23RoundRect,0.150000X0.825000X0.150000X-0.825000X0.150000X-0.825000X-0.150000X0.825000X-0.150000X0*%
%ADD24RoundRect,0.200000X-0.200000X-0.275000X0.200000X-0.275000X0.200000X0.275000X-0.200000X0.275000X0*%
%ADD25RoundRect,0.032500X-0.097500X0.387500X-0.097500X-0.387500X0.097500X-0.387500X0.097500X0.387500X0*%
%ADD26RoundRect,0.032500X-0.387500X0.097500X-0.387500X-0.097500X0.387500X-0.097500X0.387500X0.097500X0*%
%ADD27RoundRect,0.051250X0.733750X0.153750X-0.733750X0.153750X-0.733750X-0.153750X0.733750X-0.153750X0*%
%ADD28RoundRect,0.225000X0.225000X0.250000X-0.225000X0.250000X-0.225000X-0.250000X0.225000X-0.250000X0*%
G04 APERTURE END LIST*
D10*
%TO.C,U1*%
X108200000Y-111768000D02*
X106660000Y-111768000D01*
X106660000Y-110228000D01*
X108200000Y-110228000D01*
X108200000Y-111768000D01*
G36*
X108200000Y-111768000D02*
G01*
X106660000Y-111768000D01*
X106660000Y-110228000D01*
X108200000Y-110228000D01*
X108200000Y-111768000D01*
G37*
%TD*%
D11*
%TO.C,C8*%
X356095000Y-57150000D03*
X357645000Y-57150000D03*
%TD*%
D12*
%TO.C,D11*%
X164400000Y-104775000D03*
X165800000Y-104775000D03*
%TD*%
D11*
%TO.C,C4*%
X102349000Y-114300000D03*
X103899000Y-114300000D03*
%TD*%
D12*
%TO.C,D33*%
X55942000Y-123825000D03*
X57342000Y-123825000D03*
%TD*%
D13*
%TO.C,R15*%
X308419000Y-159766000D03*
X306769000Y-159766000D03*
%TD*%
D14*
%TO.C,LCD1*%
X350227000Y-57501500D03*
X350227000Y-47742500D03*
D15*
X352552000Y-55872000D03*
X352552000Y-55372000D03*
X352552000Y-54872000D03*
X352552000Y-54372000D03*
X352552000Y-53872000D03*
X352552000Y-53372000D03*
X352552000Y-52872000D03*
X352552000Y-52372000D03*
X352552000Y-51872000D03*
X352552000Y-51372000D03*
X352552000Y-50872000D03*
X352552000Y-50372000D03*
X352552000Y-49872000D03*
X352552000Y-49372000D03*
%TD*%
D13*
%TO.C,R7*%
X357949000Y-53594000D03*
X356299000Y-53594000D03*
%TD*%
D12*
%TO.C,D31*%
X93850000Y-104775000D03*
X95250000Y-104775000D03*
%TD*%
%TO.C,D14*%
X145350000Y-123825000D03*
X146750000Y-123825000D03*
%TD*%
D16*
%TO.C,C3*%
X357907500Y-47752000D03*
X355832500Y-47752000D03*
%TD*%
D12*
%TO.C,D3*%
X164654000Y-66675000D03*
X166054000Y-66675000D03*
%TD*%
%TO.C,D4*%
X183704000Y-66675000D03*
X185104000Y-66675000D03*
%TD*%
D17*
%TO.C,R3*%
X367979000Y-151385000D03*
X367979000Y-153035000D03*
%TD*%
D18*
%TO.C,C7*%
X320294000Y-54290000D03*
X320294000Y-52390000D03*
%TD*%
D12*
%TO.C,D35*%
X93850000Y-123825000D03*
X95250000Y-123825000D03*
%TD*%
%TO.C,D49*%
X245110000Y-65786000D03*
X246510000Y-65786000D03*
%TD*%
D19*
%TO.C,C9*%
X355920000Y-55372000D03*
X357820000Y-55372000D03*
%TD*%
%TO.C,C5*%
X102174000Y-116078000D03*
X104074000Y-116078000D03*
%TD*%
D12*
%TO.C,D29*%
X55750000Y-104775000D03*
X57150000Y-104775000D03*
%TD*%
%TO.C,D47*%
X254886000Y-122936000D03*
X256286000Y-122936000D03*
%TD*%
D17*
%TO.C,R5*%
X362959000Y-151385000D03*
X362959000Y-153035000D03*
%TD*%
D12*
%TO.C,D17*%
X126554000Y-142621000D03*
X127954000Y-142621000D03*
%TD*%
%TO.C,D8*%
X183450000Y-85725000D03*
X184850000Y-85725000D03*
%TD*%
D13*
%TO.C,R10*%
X216725000Y-68834000D03*
X215075000Y-68834000D03*
%TD*%
D12*
%TO.C,D24*%
X36638000Y-85471000D03*
X38038000Y-85471000D03*
%TD*%
%TO.C,D18*%
X145604000Y-142621000D03*
X147004000Y-142621000D03*
%TD*%
%TO.C,D37*%
X55688000Y-142875000D03*
X57088000Y-142875000D03*
%TD*%
%TO.C,D19*%
X164400000Y-142621000D03*
X165800000Y-142621000D03*
%TD*%
%TO.C,D38*%
X84390000Y-142875000D03*
X85790000Y-142875000D03*
%TD*%
D13*
%TO.C,R14*%
X310451000Y-121158000D03*
X308801000Y-121158000D03*
%TD*%
D12*
%TO.C,D21*%
X55750000Y-66675000D03*
X57150000Y-66675000D03*
%TD*%
D11*
%TO.C,C11*%
X304787000Y-84582000D03*
X306337000Y-84582000D03*
%TD*%
D20*
%TO.C,C6*%
X318262000Y-54369000D03*
X318262000Y-52819000D03*
%TD*%
D12*
%TO.C,D36*%
X36638000Y-142875000D03*
X38038000Y-142875000D03*
%TD*%
%TO.C,D43*%
X369505000Y-85344000D03*
X370905000Y-85344000D03*
%TD*%
%TO.C,D28*%
X36700000Y-104648000D03*
X38100000Y-104648000D03*
%TD*%
%TO.C,D20*%
X36700000Y-66675000D03*
X38100000Y-66675000D03*
%TD*%
%TO.C,D27*%
X93788000Y-85725000D03*
X95188000Y-85725000D03*
%TD*%
%TO.C,D41*%
X388617000Y-66675000D03*
X390017000Y-66675000D03*
%TD*%
D17*
%TO.C,R2*%
X370489000Y-151385000D03*
X370489000Y-153035000D03*
%TD*%
D12*
%TO.C,D1*%
X126554000Y-66675000D03*
X127954000Y-66675000D03*
%TD*%
D13*
%TO.C,R8*%
X216849000Y-62992000D03*
X215199000Y-62992000D03*
%TD*%
D21*
%TO.C,A1*%
X200495000Y-88138000D03*
X200495000Y-90678000D03*
X200495000Y-93218000D03*
X200495000Y-95758000D03*
X200495000Y-98298000D03*
X200495000Y-100838000D03*
X200495000Y-103378000D03*
X200495000Y-105918000D03*
X200495000Y-108458000D03*
X200495000Y-110998000D03*
X200495000Y-113538000D03*
X200495000Y-116078000D03*
X200495000Y-118618000D03*
X200495000Y-121158000D03*
X200495000Y-123698000D03*
X200495000Y-126238000D03*
X200495000Y-128778000D03*
X200495000Y-131318000D03*
X200495000Y-133858000D03*
X200495000Y-136398000D03*
D22*
X207645000Y-87568000D03*
X210185000Y-87568000D03*
X212725000Y-87568000D03*
D21*
X219875000Y-88138000D03*
X219875000Y-90678000D03*
X219875000Y-93218000D03*
X219875000Y-95758000D03*
X219875000Y-98298000D03*
X219875000Y-100838000D03*
X219875000Y-103378000D03*
X219875000Y-105918000D03*
X219875000Y-108458000D03*
X219875000Y-110998000D03*
X219875000Y-113538000D03*
X219875000Y-116078000D03*
X219875000Y-118618000D03*
X219875000Y-121158000D03*
X219875000Y-123698000D03*
X219875000Y-126238000D03*
X219875000Y-128778000D03*
X219875000Y-131318000D03*
X219875000Y-133858000D03*
X219875000Y-136398000D03*
%TD*%
D23*
%TO.C,U3*%
X211706000Y-61976000D03*
X211706000Y-63246000D03*
X211706000Y-64516000D03*
X211706000Y-65786000D03*
X211706000Y-67056000D03*
X211706000Y-68326000D03*
X211706000Y-69596000D03*
X206756000Y-69596000D03*
X206756000Y-68326000D03*
X206756000Y-67056000D03*
X206756000Y-65786000D03*
X206756000Y-64516000D03*
X206756000Y-63246000D03*
X206756000Y-61976000D03*
%TD*%
D12*
%TO.C,D23*%
X93788000Y-66675000D03*
X95188000Y-66675000D03*
%TD*%
%TO.C,D30*%
X74800000Y-104775000D03*
X76200000Y-104775000D03*
%TD*%
%TO.C,D32*%
X36700000Y-123825000D03*
X38100000Y-123825000D03*
%TD*%
D17*
%TO.C,R1*%
X372999000Y-151385000D03*
X372999000Y-153035000D03*
%TD*%
D12*
%TO.C,D25*%
X55812000Y-85725000D03*
X57212000Y-85725000D03*
%TD*%
D13*
%TO.C,R9*%
X216725000Y-65278000D03*
X215075000Y-65278000D03*
%TD*%
D12*
%TO.C,D6*%
X145604000Y-85725000D03*
X147004000Y-85725000D03*
%TD*%
%TO.C,D26*%
X74800000Y-85725000D03*
X76200000Y-85725000D03*
%TD*%
%TO.C,D50*%
X264222000Y-65532000D03*
X265622000Y-65532000D03*
%TD*%
D17*
%TO.C,R6*%
X360449000Y-151385000D03*
X360449000Y-153035000D03*
%TD*%
D12*
%TO.C,D22*%
X74800000Y-66675000D03*
X76200000Y-66675000D03*
%TD*%
%TO.C,D16*%
X183704000Y-124079000D03*
X185104000Y-124079000D03*
%TD*%
%TO.C,D13*%
X126300000Y-123825000D03*
X127700000Y-123825000D03*
%TD*%
D11*
%TO.C,C13*%
X304025000Y-165354000D03*
X305575000Y-165354000D03*
%TD*%
D24*
%TO.C,R13*%
X201737000Y-64516000D03*
X203387000Y-64516000D03*
%TD*%
D12*
%TO.C,D46*%
X254824000Y-103632000D03*
X256224000Y-103632000D03*
%TD*%
D25*
%TO.C,U1*%
X106180000Y-109063000D03*
X106680000Y-109063000D03*
X107180000Y-109063000D03*
X107680000Y-109063000D03*
X108180000Y-109063000D03*
X108680000Y-109063000D03*
D26*
X109365000Y-109748000D03*
X109365000Y-110248000D03*
X109365000Y-110748000D03*
X109365000Y-111248000D03*
X109365000Y-111748000D03*
X109365000Y-112248000D03*
D25*
X108680000Y-112933000D03*
X108180000Y-112933000D03*
X107680000Y-112933000D03*
X107180000Y-112933000D03*
X106680000Y-112933000D03*
X106180000Y-112933000D03*
D26*
X105495000Y-112248000D03*
X105495000Y-111748000D03*
X105495000Y-111248000D03*
X105495000Y-110748000D03*
X105495000Y-110248000D03*
X105495000Y-109748000D03*
%TD*%
D12*
%TO.C,D9*%
X126300000Y-104775000D03*
X127700000Y-104775000D03*
%TD*%
%TO.C,D2*%
X145666000Y-66675000D03*
X147066000Y-66675000D03*
%TD*%
%TO.C,D5*%
X126300000Y-85725000D03*
X127700000Y-85725000D03*
%TD*%
D16*
%TO.C,C1*%
X357907500Y-51816000D03*
X355832500Y-51816000D03*
%TD*%
D12*
%TO.C,D34*%
X74800000Y-123825000D03*
X76200000Y-123825000D03*
%TD*%
%TO.C,D10*%
X145350000Y-104521000D03*
X146750000Y-104521000D03*
%TD*%
D16*
%TO.C,C2*%
X357907500Y-49784000D03*
X355832500Y-49784000D03*
%TD*%
D24*
%TO.C,R12*%
X201737000Y-66548000D03*
X203387000Y-66548000D03*
%TD*%
D12*
%TO.C,D15*%
X164654000Y-123825000D03*
X166054000Y-123825000D03*
%TD*%
%TO.C,D44*%
X388617000Y-85852000D03*
X390017000Y-85852000D03*
%TD*%
%TO.C,D39*%
X350709000Y-66929000D03*
X352109000Y-66929000D03*
%TD*%
D27*
%TO.C,U2*%
X324688000Y-56227000D03*
X324688000Y-56877000D03*
X324688000Y-57527000D03*
X324688000Y-58177000D03*
X324688000Y-58827000D03*
X324688000Y-59477000D03*
X324688000Y-60127000D03*
X324688000Y-60777000D03*
X324688000Y-61427000D03*
X324688000Y-62077000D03*
X324688000Y-62727000D03*
X324688000Y-63377000D03*
X324688000Y-64027000D03*
X324688000Y-64677000D03*
X318948000Y-64677000D03*
X318948000Y-64027000D03*
X318948000Y-63377000D03*
X318948000Y-62727000D03*
X318948000Y-62077000D03*
X318948000Y-61427000D03*
X318948000Y-60777000D03*
X318948000Y-60127000D03*
X318948000Y-59477000D03*
X318948000Y-58827000D03*
X318948000Y-58177000D03*
X318948000Y-57527000D03*
X318948000Y-56877000D03*
X318948000Y-56227000D03*
%TD*%
D12*
%TO.C,D12*%
X183450000Y-104775000D03*
X184850000Y-104775000D03*
%TD*%
%TO.C,D7*%
X164462000Y-85725000D03*
X165862000Y-85725000D03*
%TD*%
%TO.C,D42*%
X350771000Y-85598000D03*
X352171000Y-85598000D03*
%TD*%
D13*
%TO.C,R16*%
X310134000Y-82296000D03*
X308484000Y-82296000D03*
%TD*%
D11*
%TO.C,C12*%
X304025000Y-121666000D03*
X305575000Y-121666000D03*
%TD*%
D12*
%TO.C,D40*%
X369567000Y-66675000D03*
X370967000Y-66675000D03*
%TD*%
D24*
%TO.C,R11*%
X201737000Y-68326000D03*
X203387000Y-68326000D03*
%TD*%
D12*
%TO.C,D48*%
X254570000Y-141986000D03*
X255970000Y-141986000D03*
%TD*%
%TO.C,D45*%
X254570000Y-84836000D03*
X255970000Y-84836000D03*
%TD*%
D28*
%TO.C,C10*%
X216675000Y-70358000D03*
X215125000Y-70358000D03*
%TD*%
D17*
%TO.C,R4*%
X365469000Y-151385000D03*
X365469000Y-153035000D03*
%TD*%
M02*
