M48
; DRILL file {KiCad 9.0.0} date 2025-03-15T09:27:45-0400
; FORMAT={-:-/ absolute / inch / decimal}
; #@! TF.CreationDate,2025-03-15T09:27:45-04:00
; #@! TF.GenerationSoftware,Kicad,Pcbnew,9.0.0
; #@! TF.FileFunction,Plated,1,2,PTH
FMAT,2
INCH
; #@! TA.AperFunction,Plated,PTH,ViaDrill
T1C0.0118
%
G90
G05
T1
X5.585Y-2.265
X5.585Y-2.42
X5.585Y-3.775
X5.585Y-5.28
X5.605Y-5.05
X5.61Y-3.55
X5.62Y-3.965
X5.64Y-2.085
X5.65Y-5.455
X5.665Y-4.085
X5.67Y-2.59
X5.71Y-3.39
X5.715Y-4.89
X5.725Y-1.9
X5.725Y-5.62
X5.81Y-4.21
X5.815Y-5.715
X5.82Y-2.71
X5.865Y-3.025
X5.865Y-3.265
X5.865Y-4.78
X5.88Y-1.78
X5.905Y-3.075
X5.985Y-4.21
X6.02Y-5.705
X6.025Y-2.67
X6.0534Y-3.0261
X6.055Y-1.71
X6.095Y-3.1
X6.1Y-4.805
X6.11Y-3.3
X6.155Y-3.095
X6.21Y-3.03
X6.25Y-3.29
X6.255Y-1.81
X6.255Y-4.775
X6.315Y-2.665
X6.315Y-5.715
X6.32Y-4.165
X6.365Y-4.255
X6.37Y-2.75
X6.405Y-3.395
X6.46Y-4.93
X6.47Y-1.93
X6.47Y-2.59
X6.505Y-5.63
X6.52Y-3.54
X6.525Y-4.13
X6.54Y-3.925
X6.55Y-2.415
X6.555Y-2.095
X6.565Y-5.085
X6.57Y-5.25
X6.585Y-3.73
X6.61Y-5.46
X6.62Y-2.27
M30
