%TF.GenerationSoftware,KiCad,Pcbnew,9.0.0*%
%TF.CreationDate,2025-03-15T09:27:42-04:00*%
%TF.ProjectId,cnc-hmi-encleds,636e632d-686d-4692-9d65-6e636c656473,rev?*%
%TF.SameCoordinates,Original*%
%TF.FileFunction,Legend,Top*%
%TF.FilePolarity,Positive*%
%FSLAX46Y46*%
G04 Gerber Fmt 4.6, Leading zero omitted, Abs format (unit mm)*
G04 Created by KiCad (PCBNEW 9.0.0) date 2025-03-15 09:27:42*
%MOMM*%
%LPD*%
G01*
G04 APERTURE LIST*
%ADD10C,0.150000*%
%ADD11C,0.100000*%
%ADD12C,0.120000*%
G04 APERTURE END LIST*
D10*
X162625255Y-75172967D02*
X162770398Y-75221348D01*
X162770398Y-75221348D02*
X162818779Y-75269729D01*
X162818779Y-75269729D02*
X162867160Y-75366491D01*
X162867160Y-75366491D02*
X162867160Y-75511634D01*
X162867160Y-75511634D02*
X162818779Y-75608396D01*
X162818779Y-75608396D02*
X162770398Y-75656777D01*
X162770398Y-75656777D02*
X162673636Y-75705157D01*
X162673636Y-75705157D02*
X162286588Y-75705157D01*
X162286588Y-75705157D02*
X162286588Y-74689157D01*
X162286588Y-74689157D02*
X162625255Y-74689157D01*
X162625255Y-74689157D02*
X162722017Y-74737538D01*
X162722017Y-74737538D02*
X162770398Y-74785919D01*
X162770398Y-74785919D02*
X162818779Y-74882681D01*
X162818779Y-74882681D02*
X162818779Y-74979443D01*
X162818779Y-74979443D02*
X162770398Y-75076205D01*
X162770398Y-75076205D02*
X162722017Y-75124586D01*
X162722017Y-75124586D02*
X162625255Y-75172967D01*
X162625255Y-75172967D02*
X162286588Y-75172967D01*
X163883160Y-75705157D02*
X163544493Y-75221348D01*
X163302588Y-75705157D02*
X163302588Y-74689157D01*
X163302588Y-74689157D02*
X163689636Y-74689157D01*
X163689636Y-74689157D02*
X163786398Y-74737538D01*
X163786398Y-74737538D02*
X163834779Y-74785919D01*
X163834779Y-74785919D02*
X163883160Y-74882681D01*
X163883160Y-74882681D02*
X163883160Y-75027824D01*
X163883160Y-75027824D02*
X163834779Y-75124586D01*
X163834779Y-75124586D02*
X163786398Y-75172967D01*
X163786398Y-75172967D02*
X163689636Y-75221348D01*
X163689636Y-75221348D02*
X163302588Y-75221348D01*
X164318588Y-75705157D02*
X164318588Y-74689157D01*
X164802398Y-75705157D02*
X164802398Y-74689157D01*
X164802398Y-74689157D02*
X165044303Y-74689157D01*
X165044303Y-74689157D02*
X165189446Y-74737538D01*
X165189446Y-74737538D02*
X165286208Y-74834300D01*
X165286208Y-74834300D02*
X165334589Y-74931062D01*
X165334589Y-74931062D02*
X165382970Y-75124586D01*
X165382970Y-75124586D02*
X165382970Y-75269729D01*
X165382970Y-75269729D02*
X165334589Y-75463253D01*
X165334589Y-75463253D02*
X165286208Y-75560015D01*
X165286208Y-75560015D02*
X165189446Y-75656777D01*
X165189446Y-75656777D02*
X165044303Y-75705157D01*
X165044303Y-75705157D02*
X164802398Y-75705157D01*
X166350589Y-74737538D02*
X166253827Y-74689157D01*
X166253827Y-74689157D02*
X166108684Y-74689157D01*
X166108684Y-74689157D02*
X165963541Y-74737538D01*
X165963541Y-74737538D02*
X165866779Y-74834300D01*
X165866779Y-74834300D02*
X165818398Y-74931062D01*
X165818398Y-74931062D02*
X165770017Y-75124586D01*
X165770017Y-75124586D02*
X165770017Y-75269729D01*
X165770017Y-75269729D02*
X165818398Y-75463253D01*
X165818398Y-75463253D02*
X165866779Y-75560015D01*
X165866779Y-75560015D02*
X165963541Y-75656777D01*
X165963541Y-75656777D02*
X166108684Y-75705157D01*
X166108684Y-75705157D02*
X166205446Y-75705157D01*
X166205446Y-75705157D02*
X166350589Y-75656777D01*
X166350589Y-75656777D02*
X166398970Y-75608396D01*
X166398970Y-75608396D02*
X166398970Y-75269729D01*
X166398970Y-75269729D02*
X166205446Y-75269729D01*
X166834398Y-75172967D02*
X167173065Y-75172967D01*
X167318208Y-75705157D02*
X166834398Y-75705157D01*
X166834398Y-75705157D02*
X166834398Y-74689157D01*
X166834398Y-74689157D02*
X167318208Y-74689157D01*
X162286588Y-77340860D02*
X162286588Y-76324860D01*
X163109065Y-76808670D02*
X162770398Y-76808670D01*
X162770398Y-77340860D02*
X162770398Y-76324860D01*
X162770398Y-76324860D02*
X163254208Y-76324860D01*
X164415350Y-77340860D02*
X164415350Y-76324860D01*
X164415350Y-76324860D02*
X164995922Y-77340860D01*
X164995922Y-77340860D02*
X164995922Y-76324860D01*
X165673255Y-76324860D02*
X165866779Y-76324860D01*
X165866779Y-76324860D02*
X165963541Y-76373241D01*
X165963541Y-76373241D02*
X166060303Y-76470003D01*
X166060303Y-76470003D02*
X166108684Y-76663527D01*
X166108684Y-76663527D02*
X166108684Y-77002194D01*
X166108684Y-77002194D02*
X166060303Y-77195718D01*
X166060303Y-77195718D02*
X165963541Y-77292480D01*
X165963541Y-77292480D02*
X165866779Y-77340860D01*
X165866779Y-77340860D02*
X165673255Y-77340860D01*
X165673255Y-77340860D02*
X165576493Y-77292480D01*
X165576493Y-77292480D02*
X165479731Y-77195718D01*
X165479731Y-77195718D02*
X165431350Y-77002194D01*
X165431350Y-77002194D02*
X165431350Y-76663527D01*
X165431350Y-76663527D02*
X165479731Y-76470003D01*
X165479731Y-76470003D02*
X165576493Y-76373241D01*
X165576493Y-76373241D02*
X165673255Y-76324860D01*
X167318207Y-76324860D02*
X167318207Y-77147337D01*
X167318207Y-77147337D02*
X167366588Y-77244099D01*
X167366588Y-77244099D02*
X167414969Y-77292480D01*
X167414969Y-77292480D02*
X167511731Y-77340860D01*
X167511731Y-77340860D02*
X167705255Y-77340860D01*
X167705255Y-77340860D02*
X167802017Y-77292480D01*
X167802017Y-77292480D02*
X167850398Y-77244099D01*
X167850398Y-77244099D02*
X167898779Y-77147337D01*
X167898779Y-77147337D02*
X167898779Y-76324860D01*
X168914779Y-77340860D02*
X168334207Y-77340860D01*
X168624493Y-77340860D02*
X168624493Y-76324860D01*
X168624493Y-76324860D02*
X168527731Y-76470003D01*
X168527731Y-76470003D02*
X168430969Y-76566765D01*
X168430969Y-76566765D02*
X168334207Y-76615146D01*
D11*
G36*
X149216772Y-111414710D02*
G01*
X149291922Y-111436031D01*
X149361638Y-111471416D01*
X149423180Y-111519413D01*
X149474159Y-111578941D01*
X149515182Y-111651480D01*
X149543598Y-111730522D01*
X149561428Y-111820490D01*
X149567681Y-111923205D01*
X149558927Y-112046664D01*
X149534504Y-112148815D01*
X149496295Y-112233389D01*
X149444924Y-112303341D01*
X149379192Y-112362041D01*
X149306270Y-112403392D01*
X149224659Y-112428565D01*
X149132176Y-112437265D01*
X149041483Y-112428709D01*
X148960813Y-112403871D01*
X148888118Y-112362931D01*
X148821988Y-112304659D01*
X148769656Y-112235142D01*
X148731239Y-112153171D01*
X148706985Y-112056329D01*
X148698378Y-111941506D01*
X148704796Y-111821172D01*
X148722459Y-111723335D01*
X148749436Y-111644294D01*
X148784495Y-111580866D01*
X148827184Y-111530507D01*
X148895343Y-111476269D01*
X148968462Y-111438227D01*
X149047717Y-111415279D01*
X149134735Y-111407439D01*
X149216772Y-111414710D01*
G37*
G36*
X150494954Y-111435968D02*
G01*
X150565051Y-111445445D01*
X150611542Y-111458543D01*
X150668897Y-111489579D01*
X150721753Y-111536864D01*
X150770669Y-111603401D01*
X150797166Y-111657566D01*
X150817731Y-111725292D01*
X150831266Y-111809311D01*
X150836196Y-111912736D01*
X150832071Y-112009450D01*
X150820561Y-112091178D01*
X150802774Y-112159956D01*
X150776427Y-112225745D01*
X150745256Y-112279286D01*
X150709562Y-112322340D01*
X150661396Y-112359476D01*
X150595490Y-112388875D01*
X150516985Y-112405731D01*
X150398133Y-112412450D01*
X150126563Y-112412450D01*
X150126563Y-111432254D01*
X150393790Y-111432254D01*
X150494954Y-111435968D01*
G37*
G36*
X153092369Y-111434929D02*
G01*
X153159165Y-111455074D01*
X153206424Y-111485064D01*
X153242894Y-111527224D01*
X153264505Y-111575667D01*
X153271951Y-111632481D01*
X153263532Y-111691303D01*
X153238140Y-111745855D01*
X153212547Y-111777080D01*
X153179967Y-111802305D01*
X153139268Y-111821774D01*
X153067678Y-111838684D01*
X152958816Y-111845425D01*
X152597059Y-111845425D01*
X152597059Y-111427291D01*
X152999606Y-111427291D01*
X153092369Y-111434929D01*
G37*
G36*
X154869129Y-111434929D02*
G01*
X154935925Y-111455074D01*
X154983183Y-111485064D01*
X155019653Y-111527224D01*
X155041265Y-111575667D01*
X155048710Y-111632481D01*
X155040292Y-111691303D01*
X155014900Y-111745855D01*
X154989306Y-111777080D01*
X154956727Y-111802305D01*
X154916027Y-111821774D01*
X154844438Y-111838684D01*
X154735575Y-111845425D01*
X154373818Y-111845425D01*
X154373818Y-111427291D01*
X154776365Y-111427291D01*
X154869129Y-111434929D01*
G37*
G36*
X157437698Y-111974523D02*
G01*
X157509512Y-111989896D01*
X157549965Y-112008076D01*
X157583356Y-112032916D01*
X157610634Y-112064806D01*
X157630629Y-112101816D01*
X157642850Y-112143309D01*
X157647081Y-112190355D01*
X157640553Y-112249411D01*
X157621878Y-112299231D01*
X157592681Y-112341406D01*
X157557669Y-112371040D01*
X157515421Y-112391612D01*
X157460580Y-112406246D01*
X157346043Y-112412450D01*
X157029418Y-112412450D01*
X157029418Y-111968260D01*
X157323477Y-111968260D01*
X157437698Y-111974523D01*
G37*
G36*
X157410566Y-111437764D02*
G01*
X157477020Y-111450245D01*
X157512025Y-111465790D01*
X157540656Y-111487825D01*
X157563795Y-111516858D01*
X157586383Y-111568562D01*
X157594194Y-111629534D01*
X157585636Y-111692731D01*
X157561624Y-111741745D01*
X157522393Y-111779278D01*
X157464923Y-111805721D01*
X157408395Y-111816102D01*
X157304400Y-111820610D01*
X157029418Y-111820610D01*
X157029418Y-111432254D01*
X157283540Y-111432254D01*
X157410566Y-111437764D01*
G37*
G36*
X161256010Y-111435968D02*
G01*
X161326107Y-111445445D01*
X161372599Y-111458543D01*
X161429953Y-111489579D01*
X161482810Y-111536864D01*
X161531726Y-111603401D01*
X161558222Y-111657566D01*
X161578787Y-111725292D01*
X161592322Y-111809311D01*
X161597253Y-111912736D01*
X161593128Y-112009450D01*
X161581618Y-112091178D01*
X161563830Y-112159956D01*
X161537484Y-112225745D01*
X161506312Y-112279286D01*
X161470619Y-112322340D01*
X161422452Y-112359476D01*
X161356547Y-112388875D01*
X161278041Y-112405731D01*
X161159189Y-112412450D01*
X160887619Y-112412450D01*
X160887619Y-111432254D01*
X161154847Y-111432254D01*
X161256010Y-111435968D01*
G37*
G36*
X163162326Y-111434929D02*
G01*
X163229122Y-111455074D01*
X163276380Y-111485064D01*
X163312851Y-111527224D01*
X163334462Y-111575667D01*
X163341908Y-111632481D01*
X163333489Y-111691303D01*
X163308097Y-111745855D01*
X163282503Y-111777080D01*
X163249924Y-111802305D01*
X163209225Y-111821774D01*
X163137635Y-111838684D01*
X163028773Y-111845425D01*
X162667015Y-111845425D01*
X162667015Y-111427291D01*
X163069562Y-111427291D01*
X163162326Y-111434929D01*
G37*
G36*
X158611138Y-109281110D02*
G01*
X158686288Y-109302431D01*
X158756005Y-109337816D01*
X158817546Y-109385813D01*
X158868525Y-109445341D01*
X158909548Y-109517880D01*
X158937964Y-109596922D01*
X158955794Y-109686890D01*
X158962047Y-109789605D01*
X158953293Y-109913064D01*
X158928870Y-110015215D01*
X158890662Y-110099789D01*
X158839290Y-110169741D01*
X158773558Y-110228441D01*
X158700636Y-110269792D01*
X158619025Y-110294965D01*
X158526543Y-110303665D01*
X158435850Y-110295109D01*
X158355179Y-110270271D01*
X158282484Y-110229331D01*
X158216354Y-110171059D01*
X158164023Y-110101542D01*
X158125605Y-110019571D01*
X158101351Y-109922729D01*
X158092744Y-109807906D01*
X158099163Y-109687572D01*
X158116825Y-109589735D01*
X158143802Y-109510694D01*
X158178861Y-109447266D01*
X158221550Y-109396907D01*
X158289710Y-109342669D01*
X158362828Y-109304627D01*
X158442083Y-109281679D01*
X158529102Y-109273839D01*
X158611138Y-109281110D01*
G37*
G36*
X146925237Y-109394612D02*
G01*
X146980709Y-109548279D01*
X147113470Y-109900420D01*
X146682308Y-109900420D01*
X146821970Y-109527496D01*
X146861371Y-109406049D01*
X146890522Y-109284618D01*
X146925237Y-109394612D01*
G37*
G36*
X154196054Y-109394612D02*
G01*
X154251526Y-109548279D01*
X154384287Y-109900420D01*
X153953125Y-109900420D01*
X154092787Y-109527496D01*
X154132187Y-109406049D01*
X154161339Y-109284618D01*
X154196054Y-109394612D01*
G37*
G36*
X156730361Y-109302368D02*
G01*
X156800458Y-109311845D01*
X156846950Y-109324943D01*
X156904304Y-109355979D01*
X156957161Y-109403264D01*
X157006077Y-109469801D01*
X157032573Y-109523966D01*
X157053138Y-109591692D01*
X157066673Y-109675711D01*
X157071604Y-109779136D01*
X157067479Y-109875850D01*
X157055969Y-109957578D01*
X157038181Y-110026356D01*
X157011835Y-110092145D01*
X156980663Y-110145686D01*
X156944969Y-110188740D01*
X156896803Y-110225876D01*
X156830898Y-110255275D01*
X156752392Y-110272131D01*
X156633540Y-110278850D01*
X156361970Y-110278850D01*
X156361970Y-109298654D01*
X156629198Y-109298654D01*
X156730361Y-109302368D01*
G37*
G36*
X168034258Y-112721063D02*
G01*
X144687589Y-112721063D01*
X144687589Y-112560100D01*
X144828700Y-112560100D01*
X145777876Y-112560100D01*
X146008424Y-112560100D01*
X146169799Y-112560100D01*
X146169799Y-111557803D01*
X146837868Y-112560100D01*
X147010488Y-112560100D01*
X147010488Y-111912814D01*
X147244525Y-111912814D01*
X147252150Y-112032857D01*
X147274629Y-112146142D01*
X147311758Y-112253788D01*
X147350342Y-112330359D01*
X147395802Y-112395526D01*
X147448156Y-112450540D01*
X147507797Y-112496278D01*
X147573296Y-112531283D01*
X147649607Y-112557434D01*
X147738551Y-112574059D01*
X147842258Y-112579952D01*
X147940592Y-112572742D01*
X148028316Y-112551937D01*
X148107141Y-112518195D01*
X148178425Y-112471386D01*
X148240118Y-112412974D01*
X148292414Y-112342151D01*
X148335494Y-112257221D01*
X148368880Y-112155924D01*
X148200603Y-112113428D01*
X148177856Y-112192705D01*
X148147860Y-112258223D01*
X148111180Y-112312024D01*
X148067842Y-112355685D01*
X148016779Y-112391004D01*
X147960542Y-112416329D01*
X147898158Y-112431885D01*
X147828377Y-112437265D01*
X147752536Y-112430565D01*
X147680900Y-112410667D01*
X147612331Y-112377243D01*
X147552487Y-112331217D01*
X147503651Y-112271518D01*
X147465301Y-112195938D01*
X147439836Y-112113715D01*
X147423741Y-112019633D01*
X147419514Y-111939257D01*
X148524905Y-111939257D01*
X148525071Y-111941506D01*
X148533035Y-112049155D01*
X148557229Y-112154539D01*
X148597722Y-112256580D01*
X148638716Y-112328012D01*
X148687808Y-112390817D01*
X148745337Y-112445750D01*
X148811984Y-112493254D01*
X148884331Y-112530856D01*
X148961389Y-112557848D01*
X149043969Y-112574321D01*
X149133029Y-112579952D01*
X149241498Y-112571149D01*
X149343976Y-112545066D01*
X149441900Y-112501474D01*
X149509180Y-112457778D01*
X149568101Y-112405176D01*
X149619304Y-112343067D01*
X149663064Y-112270461D01*
X149705828Y-112166162D01*
X149732093Y-112051502D01*
X149741154Y-111924523D01*
X149732520Y-111799093D01*
X149707529Y-111686014D01*
X149666941Y-111583394D01*
X149625274Y-111511745D01*
X149575723Y-111449269D01*
X149557567Y-111432254D01*
X149958286Y-111432254D01*
X149958286Y-112412450D01*
X149958286Y-112560100D01*
X150417209Y-112560100D01*
X151244637Y-112560100D01*
X152193814Y-112560100D01*
X152193814Y-112412450D01*
X151412992Y-112412450D01*
X151412992Y-111973223D01*
X152116577Y-111973223D01*
X152116577Y-111825573D01*
X151412992Y-111825573D01*
X151412992Y-111432254D01*
X152164268Y-111432254D01*
X152164268Y-111427291D01*
X152428704Y-111427291D01*
X152428704Y-111845425D01*
X152428704Y-112560100D01*
X152597059Y-112560100D01*
X152597059Y-111988112D01*
X152792245Y-111988112D01*
X152885922Y-111994238D01*
X152924077Y-112007413D01*
X152962693Y-112028514D01*
X152999864Y-112059278D01*
X153048150Y-112114669D01*
X153169589Y-112292097D01*
X153337944Y-112560100D01*
X153549570Y-112560100D01*
X153328405Y-112209819D01*
X153258731Y-112113510D01*
X153188665Y-112038595D01*
X153149030Y-112008748D01*
X153087234Y-111974541D01*
X153179143Y-111956099D01*
X153252958Y-111929756D01*
X153311716Y-111896620D01*
X153357873Y-111857135D01*
X153396155Y-111808363D01*
X153423279Y-111754948D01*
X153439807Y-111695930D01*
X153445501Y-111630000D01*
X153439524Y-111561864D01*
X153421906Y-111498644D01*
X153392537Y-111439234D01*
X153383464Y-111427291D01*
X154205463Y-111427291D01*
X154205463Y-111845425D01*
X154205463Y-112560100D01*
X154373818Y-112560100D01*
X154373818Y-111988112D01*
X154569004Y-111988112D01*
X154662681Y-111994238D01*
X154700836Y-112007413D01*
X154739452Y-112028514D01*
X154776623Y-112059278D01*
X154824909Y-112114669D01*
X154946348Y-112292097D01*
X155114703Y-112560100D01*
X155326329Y-112560100D01*
X155105165Y-112209819D01*
X155035491Y-112113510D01*
X154965425Y-112038595D01*
X154925789Y-112008748D01*
X154863993Y-111974541D01*
X154955902Y-111956099D01*
X155029717Y-111929756D01*
X155032120Y-111928401D01*
X155443270Y-111928401D01*
X155452250Y-112051431D01*
X155478438Y-112163935D01*
X155521360Y-112267669D01*
X155565256Y-112339308D01*
X155618014Y-112401371D01*
X155680131Y-112454693D01*
X155752528Y-112499690D01*
X155857222Y-112543883D01*
X155970170Y-112570758D01*
X156093115Y-112579952D01*
X156184761Y-112574426D01*
X156274768Y-112557870D01*
X156363754Y-112530089D01*
X156449234Y-112492221D01*
X156534441Y-112442968D01*
X156619737Y-112381431D01*
X156619737Y-111909092D01*
X156080940Y-111909945D01*
X156080940Y-112057594D01*
X156454872Y-112057594D01*
X156454872Y-112297060D01*
X156393106Y-112340601D01*
X156296908Y-112386627D01*
X156226557Y-112410038D01*
X156155628Y-112423946D01*
X156083576Y-112428580D01*
X156001023Y-112422366D01*
X155922074Y-112403891D01*
X155845817Y-112372978D01*
X155777227Y-112329411D01*
X155720774Y-112273133D01*
X155675368Y-112202685D01*
X155644043Y-112124037D01*
X155623993Y-112029994D01*
X155616820Y-111917544D01*
X155622366Y-111826454D01*
X155638638Y-111741287D01*
X155665365Y-111661173D01*
X155699603Y-111595647D01*
X155745626Y-111535237D01*
X155803985Y-111484363D01*
X155881411Y-111442646D01*
X155938558Y-111423694D01*
X156004585Y-111411683D01*
X156080940Y-111407439D01*
X156174171Y-111416017D01*
X156256196Y-111440785D01*
X156306417Y-111466425D01*
X156346414Y-111495989D01*
X156377635Y-111529421D01*
X156414980Y-111591485D01*
X156448823Y-111681646D01*
X156600660Y-111640003D01*
X156573926Y-111556836D01*
X156541608Y-111488564D01*
X156504269Y-111433030D01*
X156503521Y-111432254D01*
X156861064Y-111432254D01*
X156861064Y-111820610D01*
X156861064Y-111968260D01*
X156861064Y-112412450D01*
X156861064Y-112560100D01*
X157346043Y-112560100D01*
X158539803Y-112560100D01*
X159334506Y-112560100D01*
X159537835Y-112560100D01*
X160487011Y-112560100D01*
X160487011Y-112412450D01*
X159706189Y-112412450D01*
X159706189Y-111973223D01*
X160409774Y-111973223D01*
X160409774Y-111825573D01*
X159706189Y-111825573D01*
X159706189Y-111432254D01*
X160457466Y-111432254D01*
X160719342Y-111432254D01*
X160719342Y-112412450D01*
X160719342Y-112560100D01*
X161178266Y-112560100D01*
X161290123Y-112554336D01*
X161382525Y-112538386D01*
X161466777Y-112510726D01*
X161534362Y-112474410D01*
X161593448Y-112425690D01*
X161650140Y-112358710D01*
X161696866Y-112278604D01*
X161736915Y-112172984D01*
X161755197Y-112097398D01*
X161766750Y-112011946D01*
X161770803Y-111915373D01*
X161764891Y-111802502D01*
X161747942Y-111701946D01*
X161720863Y-111612164D01*
X161681351Y-111527872D01*
X161631305Y-111455702D01*
X161603154Y-111427291D01*
X162498661Y-111427291D01*
X162498661Y-111845425D01*
X162498661Y-112560100D01*
X162667015Y-112560100D01*
X162667015Y-111988112D01*
X162862201Y-111988112D01*
X162955878Y-111994238D01*
X162994034Y-112007413D01*
X163032650Y-112028514D01*
X163069820Y-112059278D01*
X163118107Y-112114669D01*
X163239546Y-112292097D01*
X163407900Y-112560100D01*
X163619526Y-112560100D01*
X163807656Y-112560100D01*
X163975933Y-112560100D01*
X164271077Y-112560100D01*
X164432453Y-112560100D01*
X164432453Y-111557803D01*
X165100521Y-112560100D01*
X165273141Y-112560100D01*
X165273141Y-111928401D01*
X165513227Y-111928401D01*
X165522207Y-112051431D01*
X165548395Y-112163935D01*
X165591317Y-112267669D01*
X165635213Y-112339308D01*
X165687971Y-112401371D01*
X165750088Y-112454693D01*
X165822484Y-112499690D01*
X165927179Y-112543883D01*
X166040127Y-112570758D01*
X166163071Y-112579952D01*
X166254718Y-112574426D01*
X166344725Y-112557870D01*
X166433711Y-112530089D01*
X166519190Y-112492221D01*
X166604398Y-112442968D01*
X166689694Y-112381431D01*
X166689694Y-112147239D01*
X166880692Y-112147239D01*
X166890201Y-112230736D01*
X166913489Y-112306902D01*
X166950562Y-112377166D01*
X167000142Y-112438967D01*
X167060684Y-112489483D01*
X167133573Y-112529391D01*
X167212993Y-112556316D01*
X167308457Y-112573705D01*
X167422902Y-112579952D01*
X167512639Y-112574154D01*
X167593941Y-112557354D01*
X167668028Y-112530089D01*
X167736301Y-112491446D01*
X167791415Y-112444975D01*
X167834987Y-112390349D01*
X167867599Y-112328400D01*
X167886758Y-112264939D01*
X167893147Y-112198885D01*
X167887070Y-112132226D01*
X167869377Y-112072351D01*
X167840183Y-112017890D01*
X167800412Y-111970442D01*
X167746640Y-111927156D01*
X167676248Y-111888076D01*
X167583180Y-111855001D01*
X167394752Y-111806962D01*
X167255606Y-111770130D01*
X167178261Y-111740108D01*
X167141018Y-111716232D01*
X167113508Y-111683977D01*
X167097175Y-111646896D01*
X167091543Y-111603401D01*
X167099078Y-111553958D01*
X167121653Y-111509531D01*
X167161335Y-111468391D01*
X167211318Y-111439587D01*
X167283098Y-111419923D01*
X167383895Y-111412402D01*
X167479950Y-111420368D01*
X167551994Y-111441761D01*
X167605525Y-111474207D01*
X167647467Y-111520141D01*
X167677025Y-111579815D01*
X167693619Y-111656831D01*
X167854994Y-111644656D01*
X167845940Y-111571834D01*
X167825106Y-111505472D01*
X167792491Y-111444352D01*
X167748907Y-111390821D01*
X167694081Y-111346279D01*
X167626385Y-111310350D01*
X167553029Y-111285627D01*
X167470384Y-111270158D01*
X167376994Y-111264753D01*
X167292256Y-111269797D01*
X167214777Y-111284450D01*
X167143577Y-111308257D01*
X167077739Y-111342686D01*
X167025105Y-111385087D01*
X166983907Y-111435744D01*
X166953363Y-111493616D01*
X166935346Y-111553445D01*
X166929314Y-111616274D01*
X166934384Y-111673548D01*
X166949265Y-111726128D01*
X166973981Y-111775013D01*
X167007642Y-111818354D01*
X167052312Y-111857898D01*
X167109766Y-111893737D01*
X167193957Y-111928303D01*
X167355281Y-111973378D01*
X167514931Y-112014312D01*
X167581718Y-112035571D01*
X167653288Y-112071676D01*
X167696178Y-112110869D01*
X167722106Y-112159051D01*
X167730919Y-112215635D01*
X167721999Y-112272246D01*
X167694859Y-112324899D01*
X167667945Y-112354744D01*
X167631956Y-112381014D01*
X167585130Y-112403609D01*
X167507917Y-112424766D01*
X167415147Y-112432302D01*
X167343638Y-112427824D01*
X167278867Y-112414856D01*
X167219883Y-112393839D01*
X167165067Y-112364145D01*
X167123085Y-112330510D01*
X167091931Y-112292950D01*
X167068729Y-112249668D01*
X167051024Y-112197033D01*
X167039509Y-112133280D01*
X166880692Y-112147239D01*
X166689694Y-112147239D01*
X166689694Y-111909092D01*
X166150896Y-111909945D01*
X166150896Y-112057594D01*
X166524829Y-112057594D01*
X166524829Y-112297060D01*
X166463062Y-112340601D01*
X166366865Y-112386627D01*
X166296514Y-112410038D01*
X166225585Y-112423946D01*
X166153533Y-112428580D01*
X166070979Y-112422366D01*
X165992031Y-112403891D01*
X165915774Y-112372978D01*
X165847184Y-112329411D01*
X165790730Y-112273133D01*
X165745325Y-112202685D01*
X165714000Y-112124037D01*
X165693949Y-112029994D01*
X165686777Y-111917544D01*
X165692322Y-111826454D01*
X165708595Y-111741287D01*
X165735322Y-111661173D01*
X165769560Y-111595647D01*
X165815583Y-111535237D01*
X165873942Y-111484363D01*
X165951368Y-111442646D01*
X166008514Y-111423694D01*
X166074542Y-111411683D01*
X166150896Y-111407439D01*
X166244128Y-111416017D01*
X166326153Y-111440785D01*
X166376374Y-111466425D01*
X166416371Y-111495989D01*
X166447592Y-111529421D01*
X166484936Y-111591485D01*
X166518780Y-111681646D01*
X166670617Y-111640003D01*
X166643883Y-111556836D01*
X166611565Y-111488564D01*
X166574226Y-111433030D01*
X166528023Y-111385128D01*
X166470350Y-111343839D01*
X166399435Y-111309187D01*
X166323940Y-111284933D01*
X166241169Y-111269934D01*
X166150043Y-111264753D01*
X166025351Y-111273872D01*
X165914150Y-111300183D01*
X165814264Y-111342843D01*
X165746205Y-111386646D01*
X165686648Y-111440473D01*
X165634935Y-111505116D01*
X165590851Y-111581843D01*
X165547879Y-111691365D01*
X165521991Y-111806432D01*
X165513227Y-111928401D01*
X165273141Y-111928401D01*
X165273141Y-111284605D01*
X165111765Y-111284605D01*
X165111765Y-112286048D01*
X164443775Y-111284605D01*
X164271077Y-111284605D01*
X164271077Y-112560100D01*
X163975933Y-112560100D01*
X163975933Y-111284605D01*
X163807656Y-111284605D01*
X163807656Y-112560100D01*
X163619526Y-112560100D01*
X163398362Y-112209819D01*
X163328688Y-112113510D01*
X163258622Y-112038595D01*
X163218987Y-112008748D01*
X163157191Y-111974541D01*
X163249100Y-111956099D01*
X163322914Y-111929756D01*
X163381673Y-111896620D01*
X163427830Y-111857135D01*
X163466111Y-111808363D01*
X163493235Y-111754948D01*
X163509763Y-111695930D01*
X163515458Y-111630000D01*
X163509480Y-111561864D01*
X163491863Y-111498644D01*
X163462493Y-111439234D01*
X163422634Y-111386763D01*
X163375794Y-111347036D01*
X163321125Y-111318725D01*
X163260816Y-111301350D01*
X163176725Y-111289228D01*
X163062583Y-111284605D01*
X162498661Y-111284605D01*
X162498661Y-111427291D01*
X161603154Y-111427291D01*
X161570422Y-111394256D01*
X161516187Y-111355200D01*
X161454372Y-111324732D01*
X161383843Y-111302906D01*
X161296985Y-111289928D01*
X161157406Y-111284605D01*
X160719342Y-111284605D01*
X160719342Y-111432254D01*
X160457466Y-111432254D01*
X160457466Y-111284605D01*
X159537835Y-111284605D01*
X159537835Y-112560100D01*
X159334506Y-112560100D01*
X159334506Y-112412450D01*
X158708158Y-112412450D01*
X158708158Y-111284605D01*
X158539803Y-111284605D01*
X158539803Y-112560100D01*
X157346043Y-112560100D01*
X157462655Y-112554275D01*
X157551155Y-112538774D01*
X157629773Y-112511393D01*
X157690430Y-112475573D01*
X157740270Y-112426472D01*
X157783719Y-112356616D01*
X157811943Y-112276759D01*
X157821484Y-112189735D01*
X157814345Y-112117441D01*
X157793636Y-112053536D01*
X157759447Y-111996255D01*
X157713366Y-111947945D01*
X157654982Y-111909312D01*
X157582019Y-111880322D01*
X157638071Y-111846623D01*
X157682047Y-111807906D01*
X157715555Y-111764001D01*
X157740324Y-111714429D01*
X157754945Y-111663439D01*
X157759835Y-111610225D01*
X157754399Y-111553121D01*
X157738007Y-111497427D01*
X157709972Y-111442258D01*
X157672463Y-111393314D01*
X157626805Y-111353897D01*
X157572015Y-111323301D01*
X157512002Y-111303055D01*
X157435279Y-111289574D01*
X157338211Y-111284605D01*
X156861064Y-111284605D01*
X156861064Y-111432254D01*
X156503521Y-111432254D01*
X156458067Y-111385128D01*
X156400394Y-111343839D01*
X156329478Y-111309187D01*
X156253983Y-111284933D01*
X156171212Y-111269934D01*
X156080087Y-111264753D01*
X155955395Y-111273872D01*
X155844193Y-111300183D01*
X155744308Y-111342843D01*
X155676248Y-111386646D01*
X155616691Y-111440473D01*
X155564978Y-111505116D01*
X155520895Y-111581843D01*
X155477923Y-111691365D01*
X155452034Y-111806432D01*
X155443270Y-111928401D01*
X155032120Y-111928401D01*
X155088475Y-111896620D01*
X155134632Y-111857135D01*
X155172914Y-111808363D01*
X155200038Y-111754948D01*
X155216566Y-111695930D01*
X155222261Y-111630000D01*
X155216283Y-111561864D01*
X155198665Y-111498644D01*
X155169296Y-111439234D01*
X155129436Y-111386763D01*
X155082596Y-111347036D01*
X155027928Y-111318725D01*
X154967618Y-111301350D01*
X154883527Y-111289228D01*
X154769386Y-111284605D01*
X154205463Y-111284605D01*
X154205463Y-111427291D01*
X153383464Y-111427291D01*
X153352677Y-111386763D01*
X153305837Y-111347036D01*
X153251168Y-111318725D01*
X153190859Y-111301350D01*
X153106768Y-111289228D01*
X152992626Y-111284605D01*
X152428704Y-111284605D01*
X152428704Y-111427291D01*
X152164268Y-111427291D01*
X152164268Y-111284605D01*
X151244637Y-111284605D01*
X151244637Y-112560100D01*
X150417209Y-112560100D01*
X150529066Y-112554336D01*
X150621469Y-112538386D01*
X150705720Y-112510726D01*
X150773306Y-112474410D01*
X150832392Y-112425690D01*
X150889084Y-112358710D01*
X150935809Y-112278604D01*
X150975859Y-112172984D01*
X150994140Y-112097398D01*
X151005693Y-112011946D01*
X151009747Y-111915373D01*
X151003834Y-111802502D01*
X150986886Y-111701946D01*
X150959807Y-111612164D01*
X150920294Y-111527872D01*
X150870248Y-111455702D01*
X150809365Y-111394256D01*
X150755130Y-111355200D01*
X150693316Y-111324732D01*
X150622787Y-111302906D01*
X150535929Y-111289928D01*
X150396349Y-111284605D01*
X149958286Y-111284605D01*
X149958286Y-111432254D01*
X149557567Y-111432254D01*
X149517972Y-111395148D01*
X149451360Y-111348891D01*
X149379119Y-111312339D01*
X149302644Y-111286143D01*
X149221190Y-111270192D01*
X149133882Y-111264753D01*
X149027197Y-111272363D01*
X148931510Y-111294362D01*
X148845090Y-111330071D01*
X148766543Y-111379594D01*
X148694888Y-111443809D01*
X148635855Y-111517644D01*
X148589062Y-111602302D01*
X148554426Y-111699368D01*
X148532591Y-111810883D01*
X148524905Y-111939257D01*
X147419514Y-111939257D01*
X147418075Y-111911883D01*
X147422522Y-111828474D01*
X147435793Y-111747022D01*
X147457934Y-111667067D01*
X147491426Y-111592648D01*
X147537286Y-111530113D01*
X147596278Y-111477930D01*
X147665097Y-111439675D01*
X147745870Y-111415845D01*
X147841405Y-111407439D01*
X147924381Y-111414968D01*
X147994087Y-111436276D01*
X148053108Y-111470485D01*
X148102305Y-111517835D01*
X148145283Y-111583493D01*
X148181526Y-111671720D01*
X148347167Y-111632636D01*
X148315620Y-111547875D01*
X148274898Y-111475355D01*
X148225125Y-111413526D01*
X148165862Y-111361299D01*
X148098790Y-111319954D01*
X148023884Y-111289902D01*
X147939801Y-111271247D01*
X147844894Y-111264753D01*
X147734699Y-111273467D01*
X147632416Y-111299086D01*
X147536490Y-111341524D01*
X147470564Y-111384264D01*
X147412953Y-111435534D01*
X147363009Y-111495888D01*
X147320443Y-111566256D01*
X147279206Y-111667453D01*
X147253507Y-111782149D01*
X147244525Y-111912814D01*
X147010488Y-111912814D01*
X147010488Y-111284605D01*
X146849112Y-111284605D01*
X146849112Y-112286048D01*
X146181121Y-111284605D01*
X146008424Y-111284605D01*
X146008424Y-112560100D01*
X145777876Y-112560100D01*
X145777876Y-112412450D01*
X144997055Y-112412450D01*
X144997055Y-111973223D01*
X145700639Y-111973223D01*
X145700639Y-111825573D01*
X144997055Y-111825573D01*
X144997055Y-111432254D01*
X145748331Y-111432254D01*
X145748331Y-111284605D01*
X144828700Y-111284605D01*
X144828700Y-112560100D01*
X144687589Y-112560100D01*
X144687589Y-109298654D01*
X145406658Y-109298654D01*
X145825723Y-109298654D01*
X145825723Y-110426500D01*
X145994000Y-110426500D01*
X146315278Y-110426500D01*
X146494024Y-110426500D01*
X146633686Y-110039384D01*
X147165504Y-110039384D01*
X147313852Y-110426500D01*
X147505626Y-110426500D01*
X147638154Y-110426500D01*
X147799529Y-110426500D01*
X147799529Y-109424203D01*
X148467598Y-110426500D01*
X148640217Y-110426500D01*
X148640217Y-109794801D01*
X148880303Y-109794801D01*
X148889284Y-109917831D01*
X148915471Y-110030335D01*
X148958393Y-110134069D01*
X149002290Y-110205708D01*
X149055048Y-110267771D01*
X149117164Y-110321093D01*
X149189561Y-110366090D01*
X149294255Y-110410283D01*
X149407204Y-110437158D01*
X149530148Y-110446352D01*
X149621794Y-110440826D01*
X149699678Y-110426500D01*
X150308488Y-110426500D01*
X151257665Y-110426500D01*
X151488212Y-110426500D01*
X151649588Y-110426500D01*
X151649588Y-109424203D01*
X152317656Y-110426500D01*
X152490276Y-110426500D01*
X152490276Y-109298654D01*
X152677475Y-109298654D01*
X153096539Y-109298654D01*
X153096539Y-110426500D01*
X153264817Y-110426500D01*
X153586094Y-110426500D01*
X153764840Y-110426500D01*
X153904503Y-110039384D01*
X154436321Y-110039384D01*
X154584668Y-110426500D01*
X154776442Y-110426500D01*
X154556192Y-109886849D01*
X154913313Y-109886849D01*
X154919658Y-110022022D01*
X154936682Y-110126531D01*
X154961857Y-110206111D01*
X155001523Y-110277937D01*
X155055091Y-110337007D01*
X155124086Y-110384702D01*
X155202303Y-110417468D01*
X155298498Y-110438679D01*
X155416516Y-110446352D01*
X155537491Y-110437541D01*
X155635075Y-110413222D01*
X155713677Y-110375551D01*
X155782615Y-110322514D01*
X155834148Y-110261593D01*
X155870244Y-110191842D01*
X155892749Y-110115137D01*
X155907944Y-110015181D01*
X155913593Y-109886849D01*
X155913593Y-109298654D01*
X156193693Y-109298654D01*
X156193693Y-110278850D01*
X156193693Y-110426500D01*
X156652617Y-110426500D01*
X157505247Y-110426500D01*
X157673524Y-110426500D01*
X157673524Y-109805657D01*
X157919271Y-109805657D01*
X157919437Y-109807906D01*
X157927402Y-109915555D01*
X157951595Y-110020939D01*
X157992088Y-110122980D01*
X158033083Y-110194412D01*
X158082174Y-110257217D01*
X158139703Y-110312150D01*
X158206351Y-110359654D01*
X158278698Y-110397256D01*
X158355756Y-110424248D01*
X158438335Y-110440721D01*
X158527396Y-110446352D01*
X158635864Y-110437549D01*
X158738343Y-110411466D01*
X158836266Y-110367874D01*
X158903546Y-110324178D01*
X158962467Y-110271576D01*
X159013670Y-110209467D01*
X159057430Y-110136861D01*
X159100194Y-110032562D01*
X159126460Y-109917902D01*
X159135520Y-109790923D01*
X159134714Y-109779214D01*
X159797850Y-109779214D01*
X159805475Y-109899257D01*
X159827954Y-110012542D01*
X159865083Y-110120188D01*
X159903668Y-110196759D01*
X159949127Y-110261926D01*
X160001482Y-110316940D01*
X160061122Y-110362678D01*
X160126621Y-110397683D01*
X160202932Y-110423834D01*
X160291876Y-110440459D01*
X160395583Y-110446352D01*
X160493917Y-110439142D01*
X160547222Y-110426500D01*
X161127628Y-110426500D01*
X161289003Y-110426500D01*
X161289003Y-109424203D01*
X161957071Y-110426500D01*
X162129691Y-110426500D01*
X162129691Y-109779214D01*
X162363728Y-109779214D01*
X162371354Y-109899257D01*
X162393832Y-110012542D01*
X162430962Y-110120188D01*
X162469546Y-110196759D01*
X162515006Y-110261926D01*
X162567360Y-110316940D01*
X162627001Y-110362678D01*
X162692500Y-110397683D01*
X162768810Y-110423834D01*
X162857755Y-110440459D01*
X162961462Y-110446352D01*
X163059796Y-110439142D01*
X163113101Y-110426500D01*
X164194305Y-110426500D01*
X164362583Y-110426500D01*
X164362583Y-109824734D01*
X165023672Y-109824734D01*
X165023672Y-110426500D01*
X165191949Y-110426500D01*
X165466853Y-110426500D01*
X165629082Y-110426500D01*
X165629082Y-109340142D01*
X165996888Y-110426500D01*
X166148725Y-110426500D01*
X166518315Y-109358366D01*
X166518315Y-110426500D01*
X166680543Y-110426500D01*
X166980883Y-110426500D01*
X167149160Y-110426500D01*
X167149160Y-109151005D01*
X166980883Y-109151005D01*
X166980883Y-110426500D01*
X166680543Y-110426500D01*
X166680543Y-109151005D01*
X166454106Y-109151005D01*
X166149578Y-110038842D01*
X166081879Y-110243411D01*
X166021160Y-110054506D01*
X165720122Y-109151005D01*
X165466853Y-109151005D01*
X165466853Y-110426500D01*
X165191949Y-110426500D01*
X165191949Y-109151005D01*
X165023672Y-109151005D01*
X165023672Y-109677084D01*
X164362583Y-109677084D01*
X164362583Y-109151005D01*
X164194305Y-109151005D01*
X164194305Y-110426500D01*
X163113101Y-110426500D01*
X163147520Y-110418337D01*
X163226345Y-110384595D01*
X163297628Y-110337786D01*
X163359321Y-110279374D01*
X163411618Y-110208551D01*
X163454697Y-110123621D01*
X163488084Y-110022324D01*
X163319807Y-109979828D01*
X163297060Y-110059105D01*
X163267064Y-110124623D01*
X163230384Y-110178424D01*
X163187046Y-110222085D01*
X163135983Y-110257404D01*
X163079745Y-110282729D01*
X163017361Y-110298285D01*
X162947581Y-110303665D01*
X162871739Y-110296965D01*
X162800104Y-110277067D01*
X162731534Y-110243643D01*
X162671691Y-110197617D01*
X162622854Y-110137918D01*
X162584505Y-110062338D01*
X162559040Y-109980115D01*
X162542945Y-109886033D01*
X162537279Y-109778283D01*
X162541726Y-109694874D01*
X162554997Y-109613422D01*
X162577138Y-109533467D01*
X162610629Y-109459048D01*
X162656489Y-109396513D01*
X162715482Y-109344330D01*
X162784300Y-109306075D01*
X162865074Y-109282245D01*
X162960608Y-109273839D01*
X163043585Y-109281368D01*
X163113291Y-109302676D01*
X163172312Y-109336885D01*
X163221509Y-109384235D01*
X163264487Y-109449893D01*
X163300730Y-109538120D01*
X163466371Y-109499036D01*
X163434823Y-109414275D01*
X163394102Y-109341755D01*
X163344328Y-109279926D01*
X163285066Y-109227699D01*
X163217994Y-109186354D01*
X163143087Y-109156302D01*
X163059005Y-109137647D01*
X162964098Y-109131153D01*
X162853902Y-109139867D01*
X162751620Y-109165486D01*
X162655693Y-109207924D01*
X162589767Y-109250664D01*
X162532157Y-109301934D01*
X162482212Y-109362288D01*
X162439647Y-109432656D01*
X162398410Y-109533853D01*
X162372710Y-109648549D01*
X162363728Y-109779214D01*
X162129691Y-109779214D01*
X162129691Y-109151005D01*
X161968316Y-109151005D01*
X161968316Y-110152448D01*
X161300325Y-109151005D01*
X161127628Y-109151005D01*
X161127628Y-110426500D01*
X160547222Y-110426500D01*
X160581641Y-110418337D01*
X160660466Y-110384595D01*
X160731750Y-110337786D01*
X160793443Y-110279374D01*
X160845739Y-110208551D01*
X160888819Y-110123621D01*
X160922205Y-110022324D01*
X160753928Y-109979828D01*
X160731181Y-110059105D01*
X160701185Y-110124623D01*
X160664505Y-110178424D01*
X160621167Y-110222085D01*
X160570104Y-110257404D01*
X160513867Y-110282729D01*
X160451483Y-110298285D01*
X160381702Y-110303665D01*
X160305861Y-110296965D01*
X160234225Y-110277067D01*
X160165656Y-110243643D01*
X160105812Y-110197617D01*
X160056976Y-110137918D01*
X160018626Y-110062338D01*
X159993162Y-109980115D01*
X159977067Y-109886033D01*
X159971400Y-109778283D01*
X159975847Y-109694874D01*
X159989118Y-109613422D01*
X160011259Y-109533467D01*
X160044751Y-109459048D01*
X160090611Y-109396513D01*
X160149604Y-109344330D01*
X160218422Y-109306075D01*
X160299195Y-109282245D01*
X160394730Y-109273839D01*
X160477706Y-109281368D01*
X160547412Y-109302676D01*
X160606434Y-109336885D01*
X160655631Y-109384235D01*
X160698608Y-109449893D01*
X160734852Y-109538120D01*
X160900492Y-109499036D01*
X160868945Y-109414275D01*
X160828223Y-109341755D01*
X160778450Y-109279926D01*
X160719187Y-109227699D01*
X160652115Y-109186354D01*
X160577209Y-109156302D01*
X160493126Y-109137647D01*
X160398220Y-109131153D01*
X160288024Y-109139867D01*
X160185741Y-109165486D01*
X160089815Y-109207924D01*
X160023889Y-109250664D01*
X159966278Y-109301934D01*
X159916334Y-109362288D01*
X159873768Y-109432656D01*
X159832531Y-109533853D01*
X159806832Y-109648549D01*
X159797850Y-109779214D01*
X159134714Y-109779214D01*
X159126887Y-109665493D01*
X159101895Y-109552414D01*
X159061307Y-109449794D01*
X159019640Y-109378145D01*
X158970089Y-109315669D01*
X158912338Y-109261548D01*
X158845727Y-109215291D01*
X158773486Y-109178739D01*
X158697010Y-109152543D01*
X158615556Y-109136592D01*
X158528249Y-109131153D01*
X158421563Y-109138763D01*
X158325876Y-109160762D01*
X158239456Y-109196471D01*
X158160909Y-109245994D01*
X158089255Y-109310209D01*
X158030221Y-109384044D01*
X157983428Y-109468702D01*
X157948792Y-109565768D01*
X157926958Y-109677283D01*
X157919271Y-109805657D01*
X157673524Y-109805657D01*
X157673524Y-109151005D01*
X157505247Y-109151005D01*
X157505247Y-110426500D01*
X156652617Y-110426500D01*
X156764474Y-110420736D01*
X156856876Y-110404786D01*
X156941127Y-110377126D01*
X157008713Y-110340810D01*
X157067799Y-110292090D01*
X157124491Y-110225110D01*
X157171216Y-110145004D01*
X157211266Y-110039384D01*
X157229548Y-109963798D01*
X157241100Y-109878346D01*
X157245154Y-109781773D01*
X157239242Y-109668902D01*
X157222293Y-109568346D01*
X157195214Y-109478564D01*
X157155701Y-109394272D01*
X157105656Y-109322102D01*
X157044773Y-109260656D01*
X156990538Y-109221600D01*
X156928723Y-109191132D01*
X156858194Y-109169306D01*
X156771336Y-109156328D01*
X156631757Y-109151005D01*
X156193693Y-109151005D01*
X156193693Y-109298654D01*
X155913593Y-109298654D01*
X155913593Y-109151005D01*
X155745316Y-109151005D01*
X155745316Y-109888788D01*
X155738709Y-110014997D01*
X155721466Y-110106237D01*
X155696715Y-110170415D01*
X155666373Y-110214098D01*
X155624600Y-110248423D01*
X155569073Y-110274770D01*
X155496282Y-110292234D01*
X155401782Y-110298702D01*
X155330509Y-110293556D01*
X155269922Y-110279022D01*
X155218228Y-110255973D01*
X155172852Y-110223195D01*
X155137925Y-110182959D01*
X155112454Y-110134302D01*
X155096998Y-110080239D01*
X155085955Y-110000910D01*
X155081668Y-109888788D01*
X155081668Y-109151005D01*
X154913313Y-109151005D01*
X154913313Y-109886849D01*
X154556192Y-109886849D01*
X154255869Y-109151005D01*
X154074563Y-109151005D01*
X153787564Y-109900420D01*
X153586094Y-110426500D01*
X153264817Y-110426500D01*
X153264817Y-109298654D01*
X153685587Y-109298654D01*
X153685587Y-109151005D01*
X152677475Y-109151005D01*
X152677475Y-109298654D01*
X152490276Y-109298654D01*
X152490276Y-109151005D01*
X152328901Y-109151005D01*
X152328901Y-110152448D01*
X151660910Y-109151005D01*
X151488212Y-109151005D01*
X151488212Y-110426500D01*
X151257665Y-110426500D01*
X151257665Y-110278850D01*
X150476843Y-110278850D01*
X150476843Y-109839623D01*
X151180428Y-109839623D01*
X151180428Y-109691973D01*
X150476843Y-109691973D01*
X150476843Y-109298654D01*
X151228119Y-109298654D01*
X151228119Y-109151005D01*
X150308488Y-109151005D01*
X150308488Y-110426500D01*
X149699678Y-110426500D01*
X149711801Y-110424270D01*
X149800787Y-110396489D01*
X149886267Y-110358621D01*
X149971474Y-110309368D01*
X150056770Y-110247831D01*
X150056770Y-109775492D01*
X149517973Y-109776345D01*
X149517973Y-109923994D01*
X149891905Y-109923994D01*
X149891905Y-110163460D01*
X149830139Y-110207001D01*
X149733942Y-110253027D01*
X149663591Y-110276438D01*
X149592662Y-110290346D01*
X149520610Y-110294980D01*
X149438056Y-110288766D01*
X149359107Y-110270291D01*
X149282850Y-110239378D01*
X149214260Y-110195811D01*
X149157807Y-110139533D01*
X149112402Y-110069085D01*
X149081076Y-109990437D01*
X149061026Y-109896394D01*
X149053854Y-109783944D01*
X149059399Y-109692854D01*
X149075671Y-109607687D01*
X149102398Y-109527573D01*
X149136637Y-109462047D01*
X149182659Y-109401637D01*
X149241018Y-109350763D01*
X149318444Y-109309046D01*
X149375591Y-109290094D01*
X149441619Y-109278083D01*
X149517973Y-109273839D01*
X149611204Y-109282417D01*
X149693230Y-109307185D01*
X149743451Y-109332825D01*
X149783447Y-109362389D01*
X149814668Y-109395821D01*
X149852013Y-109457885D01*
X149885857Y-109548046D01*
X150037694Y-109506403D01*
X150010959Y-109423236D01*
X149978641Y-109354964D01*
X149941303Y-109299430D01*
X149895100Y-109251528D01*
X149837427Y-109210239D01*
X149766512Y-109175587D01*
X149691016Y-109151333D01*
X149608245Y-109136334D01*
X149517120Y-109131153D01*
X149392428Y-109140272D01*
X149281227Y-109166583D01*
X149181341Y-109209243D01*
X149113282Y-109253046D01*
X149053725Y-109306873D01*
X149002011Y-109371516D01*
X148957928Y-109448243D01*
X148914956Y-109557765D01*
X148889068Y-109672832D01*
X148880303Y-109794801D01*
X148640217Y-109794801D01*
X148640217Y-109151005D01*
X148478842Y-109151005D01*
X148478842Y-110152448D01*
X147810851Y-109151005D01*
X147638154Y-109151005D01*
X147638154Y-110426500D01*
X147505626Y-110426500D01*
X146985052Y-109151005D01*
X146803747Y-109151005D01*
X146516748Y-109900420D01*
X146315278Y-110426500D01*
X145994000Y-110426500D01*
X145994000Y-109298654D01*
X146414771Y-109298654D01*
X146414771Y-109151005D01*
X145406658Y-109151005D01*
X145406658Y-109298654D01*
X144687589Y-109298654D01*
X144687589Y-108990042D01*
X168034258Y-108990042D01*
X168034258Y-112721063D01*
G37*
G36*
X149312809Y-113473628D02*
G01*
X149396900Y-113485750D01*
X149457209Y-113503125D01*
X149511878Y-113531436D01*
X149558718Y-113571163D01*
X149598578Y-113623634D01*
X149627947Y-113683044D01*
X149645565Y-113746264D01*
X149651542Y-113814400D01*
X149645848Y-113880330D01*
X149629320Y-113939348D01*
X149602196Y-113992763D01*
X149563914Y-114041535D01*
X149517757Y-114081020D01*
X149458999Y-114114156D01*
X149385184Y-114140499D01*
X149293275Y-114158941D01*
X149355071Y-114193148D01*
X149394706Y-114222995D01*
X149464772Y-114297910D01*
X149534446Y-114394219D01*
X149755611Y-114744500D01*
X149543985Y-114744500D01*
X149375630Y-114476497D01*
X149254191Y-114299069D01*
X149205905Y-114243678D01*
X149168734Y-114212914D01*
X149130118Y-114191813D01*
X149091963Y-114178638D01*
X148998286Y-114172512D01*
X148803100Y-114172512D01*
X148803100Y-114744500D01*
X148634745Y-114744500D01*
X148634745Y-114029825D01*
X148803100Y-114029825D01*
X149164857Y-114029825D01*
X149273719Y-114023084D01*
X149345309Y-114006174D01*
X149386009Y-113986705D01*
X149418588Y-113961480D01*
X149444182Y-113930255D01*
X149469573Y-113875703D01*
X149477992Y-113816881D01*
X149470546Y-113760067D01*
X149448935Y-113711624D01*
X149412465Y-113669464D01*
X149365206Y-113639474D01*
X149298410Y-113619329D01*
X149205647Y-113611691D01*
X148803100Y-113611691D01*
X148803100Y-114029825D01*
X148634745Y-114029825D01*
X148634745Y-113469005D01*
X149198667Y-113469005D01*
X149312809Y-113473628D01*
G37*
G36*
X149918537Y-114744500D02*
G01*
X149918537Y-113469005D01*
X150838168Y-113469005D01*
X150838168Y-113616654D01*
X150086892Y-113616654D01*
X150086892Y-114009973D01*
X150790477Y-114009973D01*
X150790477Y-114157623D01*
X150086892Y-114157623D01*
X150086892Y-114596850D01*
X150867714Y-114596850D01*
X150867714Y-114744500D01*
X149918537Y-114744500D01*
G37*
G36*
X151463508Y-114744500D02*
G01*
X150970774Y-113469005D01*
X151152932Y-113469005D01*
X151483515Y-114395925D01*
X151550283Y-114604837D01*
X151618835Y-114395925D01*
X151962369Y-113469005D01*
X152134135Y-113469005D01*
X151636205Y-114744500D01*
X151463508Y-114744500D01*
G37*
G36*
X152703545Y-113468889D02*
G01*
X152762971Y-113482817D01*
X152815852Y-113505297D01*
X152864038Y-113536612D01*
X152906418Y-113576032D01*
X152943417Y-113624332D01*
X152987204Y-113707872D01*
X153022360Y-113813702D01*
X153042860Y-113935029D01*
X153050975Y-114114662D01*
X153045040Y-114264487D01*
X153028963Y-114383349D01*
X153004989Y-114476419D01*
X152967748Y-114564131D01*
X152921845Y-114634167D01*
X152867498Y-114689208D01*
X152802836Y-114730160D01*
X152726759Y-114755451D01*
X152636330Y-114764352D01*
X152546840Y-114755596D01*
X152470473Y-114730575D01*
X152404568Y-114689863D01*
X152347390Y-114632289D01*
X152306671Y-114569530D01*
X152272447Y-114490022D01*
X152245704Y-114390403D01*
X152228046Y-114266750D01*
X152221609Y-114114662D01*
X152221627Y-114114197D01*
X152382131Y-114114197D01*
X152388566Y-114281216D01*
X152405119Y-114398957D01*
X152428255Y-114478822D01*
X152455413Y-114530547D01*
X152496155Y-114577673D01*
X152539289Y-114609324D01*
X152585555Y-114627834D01*
X152636330Y-114634072D01*
X152687038Y-114627814D01*
X152733268Y-114609239D01*
X152776399Y-114577452D01*
X152817170Y-114530082D01*
X152844392Y-114478136D01*
X152867551Y-114398193D01*
X152884102Y-114280633D01*
X152890530Y-114114197D01*
X152884076Y-113946651D01*
X152867488Y-113828756D01*
X152844328Y-113748974D01*
X152817170Y-113697459D01*
X152776467Y-113650652D01*
X152733077Y-113619102D01*
X152686238Y-113600582D01*
X152634547Y-113594321D01*
X152583098Y-113600095D01*
X152538225Y-113616851D01*
X152498406Y-113644753D01*
X152462780Y-113685284D01*
X152432229Y-113743298D01*
X152406806Y-113828321D01*
X152388968Y-113948713D01*
X152382131Y-114114197D01*
X152221627Y-114114197D01*
X152227609Y-113963566D01*
X152243836Y-113844175D01*
X152267982Y-113751121D01*
X152305515Y-113663417D01*
X152351575Y-113593548D01*
X152405938Y-113538797D01*
X152470606Y-113498031D01*
X152546448Y-113472882D01*
X152636330Y-113464042D01*
X152703545Y-113468889D01*
G37*
G36*
X154523749Y-114596850D02*
G01*
X154523749Y-114744500D01*
X153683139Y-114744500D01*
X153686816Y-114689210D01*
X153701362Y-114636244D01*
X153741971Y-114553061D01*
X153804112Y-114467424D01*
X153884592Y-114383440D01*
X154008449Y-114275184D01*
X154145678Y-114156469D01*
X154235081Y-114068401D01*
X154288627Y-114004545D01*
X154331067Y-113935270D01*
X154354260Y-113872952D01*
X154361521Y-113815718D01*
X154354030Y-113756382D01*
X154332143Y-113704603D01*
X154295141Y-113658452D01*
X154247484Y-113623382D01*
X154190677Y-113601889D01*
X154122133Y-113594321D01*
X154049739Y-113602413D01*
X153990544Y-113625284D01*
X153941603Y-113662485D01*
X153904975Y-113711781D01*
X153881830Y-113773496D01*
X153873129Y-113851157D01*
X153712607Y-113834562D01*
X153727656Y-113745107D01*
X153753820Y-113670950D01*
X153790160Y-113609516D01*
X153836682Y-113558882D01*
X153892750Y-113518711D01*
X153958306Y-113489214D01*
X154035146Y-113470622D01*
X154125545Y-113464042D01*
X154216484Y-113471087D01*
X154293576Y-113491002D01*
X154359244Y-113522692D01*
X154415339Y-113566094D01*
X154462265Y-113620482D01*
X154495217Y-113679927D01*
X154515180Y-113745535D01*
X154522043Y-113818897D01*
X154514321Y-113894513D01*
X154490792Y-113969726D01*
X154451318Y-114042678D01*
X154387111Y-114125829D01*
X154300919Y-114213414D01*
X154146405Y-114350715D01*
X154019053Y-114461045D01*
X153965876Y-114511781D01*
X153928863Y-114554987D01*
X153900038Y-114596850D01*
X154523749Y-114596850D01*
G37*
G36*
X155172645Y-113468889D02*
G01*
X155232071Y-113482817D01*
X155284952Y-113505297D01*
X155333138Y-113536612D01*
X155375518Y-113576032D01*
X155412517Y-113624332D01*
X155456303Y-113707872D01*
X155491460Y-113813702D01*
X155511960Y-113935029D01*
X155520075Y-114114662D01*
X155514140Y-114264487D01*
X155498062Y-114383349D01*
X155474089Y-114476419D01*
X155436848Y-114564131D01*
X155390944Y-114634167D01*
X155336598Y-114689208D01*
X155271936Y-114730160D01*
X155195859Y-114755451D01*
X155105430Y-114764352D01*
X155015939Y-114755596D01*
X154939573Y-114730575D01*
X154873668Y-114689863D01*
X154816490Y-114632289D01*
X154775771Y-114569530D01*
X154741547Y-114490022D01*
X154714804Y-114390403D01*
X154697146Y-114266750D01*
X154690708Y-114114662D01*
X154690726Y-114114197D01*
X154851231Y-114114197D01*
X154857666Y-114281216D01*
X154874219Y-114398957D01*
X154897355Y-114478822D01*
X154924513Y-114530547D01*
X154965255Y-114577673D01*
X155008389Y-114609324D01*
X155054655Y-114627834D01*
X155105430Y-114634072D01*
X155156138Y-114627814D01*
X155202368Y-114609239D01*
X155245499Y-114577452D01*
X155286270Y-114530082D01*
X155313492Y-114478136D01*
X155336651Y-114398193D01*
X155353201Y-114280633D01*
X155359630Y-114114197D01*
X155353176Y-113946651D01*
X155336588Y-113828756D01*
X155313428Y-113748974D01*
X155286270Y-113697459D01*
X155245567Y-113650652D01*
X155202176Y-113619102D01*
X155155338Y-113600582D01*
X155103647Y-113594321D01*
X155052198Y-113600095D01*
X155007325Y-113616851D01*
X154967506Y-113644753D01*
X154931880Y-113685284D01*
X154901329Y-113743298D01*
X154875906Y-113828321D01*
X154858068Y-113948713D01*
X154851231Y-114114197D01*
X154690726Y-114114197D01*
X154696709Y-113963566D01*
X154712936Y-113844175D01*
X154737082Y-113751121D01*
X154774615Y-113663417D01*
X154820674Y-113593548D01*
X154875038Y-113538797D01*
X154939706Y-113498031D01*
X155015547Y-113472882D01*
X155105430Y-113464042D01*
X155172645Y-113468889D01*
G37*
G36*
X156499029Y-114596850D02*
G01*
X156499029Y-114744500D01*
X155658419Y-114744500D01*
X155662096Y-114689210D01*
X155676642Y-114636244D01*
X155717251Y-114553061D01*
X155779392Y-114467424D01*
X155859872Y-114383440D01*
X155983729Y-114275184D01*
X156120958Y-114156469D01*
X156210361Y-114068401D01*
X156263906Y-114004545D01*
X156306346Y-113935270D01*
X156329540Y-113872952D01*
X156336801Y-113815718D01*
X156329309Y-113756382D01*
X156307423Y-113704603D01*
X156270420Y-113658452D01*
X156222764Y-113623382D01*
X156165957Y-113601889D01*
X156097413Y-113594321D01*
X156025019Y-113602413D01*
X155965824Y-113625284D01*
X155916883Y-113662485D01*
X155880255Y-113711781D01*
X155857110Y-113773496D01*
X155848409Y-113851157D01*
X155687887Y-113834562D01*
X155702936Y-113745107D01*
X155729100Y-113670950D01*
X155765440Y-113609516D01*
X155811962Y-113558882D01*
X155868029Y-113518711D01*
X155933586Y-113489214D01*
X156010426Y-113470622D01*
X156100825Y-113464042D01*
X156191763Y-113471087D01*
X156268856Y-113491002D01*
X156334524Y-113522692D01*
X156390618Y-113566094D01*
X156437545Y-113620482D01*
X156470497Y-113679927D01*
X156490460Y-113745535D01*
X156497323Y-113818897D01*
X156489601Y-113894513D01*
X156466072Y-113969726D01*
X156426598Y-114042678D01*
X156362391Y-114125829D01*
X156276199Y-114213414D01*
X156121685Y-114350715D01*
X155994333Y-114461045D01*
X155941155Y-114511781D01*
X155904143Y-114554987D01*
X155875318Y-114596850D01*
X156499029Y-114596850D01*
G37*
G36*
X156665988Y-114407015D02*
G01*
X156829923Y-114393134D01*
X156848734Y-114470308D01*
X156877237Y-114529261D01*
X156914527Y-114573663D01*
X156961701Y-114607164D01*
X157014472Y-114627194D01*
X157074584Y-114634072D01*
X157129145Y-114628675D01*
X157178409Y-114612881D01*
X157223570Y-114586587D01*
X157265427Y-114548771D01*
X157298725Y-114504098D01*
X157322982Y-114452438D01*
X157338168Y-114392472D01*
X157343517Y-114322488D01*
X157338330Y-114255941D01*
X157323676Y-114199645D01*
X157300370Y-114151795D01*
X157268452Y-114111017D01*
X157214172Y-114068480D01*
X157149696Y-114042619D01*
X157072025Y-114033548D01*
X156999561Y-114042435D01*
X156935775Y-114068444D01*
X156881182Y-114108826D01*
X156840392Y-114158864D01*
X156693750Y-114139787D01*
X156816972Y-113483894D01*
X157449369Y-113483894D01*
X157449369Y-113631543D01*
X156941901Y-113631543D01*
X156873349Y-113977559D01*
X156952716Y-113931345D01*
X157032302Y-113904631D01*
X157113668Y-113895824D01*
X157194783Y-113903272D01*
X157267620Y-113924957D01*
X157333861Y-113960754D01*
X157394698Y-114011679D01*
X157444299Y-114072963D01*
X157479772Y-114141953D01*
X157501626Y-114220153D01*
X157509235Y-114309615D01*
X157502684Y-114395020D01*
X157483616Y-114472573D01*
X157452373Y-114543631D01*
X157408579Y-114609257D01*
X157355967Y-114665196D01*
X157297304Y-114708008D01*
X157231780Y-114738775D01*
X157158103Y-114757755D01*
X157074584Y-114764352D01*
X156988681Y-114757736D01*
X156914029Y-114738836D01*
X156848726Y-114708446D01*
X156791304Y-114666487D01*
X156742766Y-114614153D01*
X156705912Y-114554335D01*
X156680212Y-114485849D01*
X156665988Y-114407015D01*
G37*
G36*
X157636258Y-114362347D02*
G01*
X157636258Y-114203531D01*
X158116042Y-114203531D01*
X158116042Y-114362347D01*
X157636258Y-114362347D01*
G37*
G36*
X158303628Y-114744500D02*
G01*
X158303628Y-113469005D01*
X158556897Y-113469005D01*
X158857935Y-114372506D01*
X158918654Y-114561411D01*
X158986353Y-114356842D01*
X159290880Y-113469005D01*
X159517318Y-113469005D01*
X159517318Y-114744500D01*
X159355089Y-114744500D01*
X159355089Y-113676366D01*
X158985500Y-114744500D01*
X158833662Y-114744500D01*
X158465856Y-113658142D01*
X158465856Y-114744500D01*
X158303628Y-114744500D01*
G37*
G36*
X160839651Y-114744500D02*
G01*
X160647877Y-114744500D01*
X160499529Y-114357384D01*
X159967711Y-114357384D01*
X159828049Y-114744500D01*
X159649303Y-114744500D01*
X159850773Y-114218420D01*
X160016333Y-114218420D01*
X160447495Y-114218420D01*
X160314735Y-113866279D01*
X160259262Y-113712612D01*
X160224547Y-113602618D01*
X160195396Y-113724049D01*
X160155996Y-113845496D01*
X160016333Y-114218420D01*
X159850773Y-114218420D01*
X160137772Y-113469005D01*
X160319077Y-113469005D01*
X160839651Y-114744500D01*
G37*
G36*
X161654586Y-113473628D02*
G01*
X161738677Y-113485750D01*
X161798986Y-113503125D01*
X161853655Y-113531436D01*
X161900495Y-113571163D01*
X161940354Y-113623634D01*
X161969724Y-113683044D01*
X161987341Y-113746264D01*
X161993319Y-113814400D01*
X161987624Y-113880330D01*
X161971096Y-113939348D01*
X161943972Y-113992763D01*
X161905691Y-114041535D01*
X161859534Y-114081020D01*
X161800775Y-114114156D01*
X161726961Y-114140499D01*
X161635052Y-114158941D01*
X161696848Y-114193148D01*
X161736483Y-114222995D01*
X161806549Y-114297910D01*
X161876223Y-114394219D01*
X162097387Y-114744500D01*
X161885761Y-114744500D01*
X161717407Y-114476497D01*
X161595968Y-114299069D01*
X161547681Y-114243678D01*
X161510511Y-114212914D01*
X161471895Y-114191813D01*
X161433739Y-114178638D01*
X161340062Y-114172512D01*
X161144876Y-114172512D01*
X161144876Y-114744500D01*
X160976522Y-114744500D01*
X160976522Y-114029825D01*
X161144876Y-114029825D01*
X161506634Y-114029825D01*
X161615496Y-114023084D01*
X161687086Y-114006174D01*
X161727785Y-113986705D01*
X161760364Y-113961480D01*
X161785958Y-113930255D01*
X161811350Y-113875703D01*
X161819769Y-113816881D01*
X161812323Y-113760067D01*
X161790712Y-113711624D01*
X161754241Y-113669464D01*
X161706983Y-113639474D01*
X161640187Y-113619329D01*
X161547423Y-113611691D01*
X161144876Y-113611691D01*
X161144876Y-114029825D01*
X160976522Y-114029825D01*
X160976522Y-113469005D01*
X161540444Y-113469005D01*
X161654586Y-113473628D01*
G37*
G36*
X162176175Y-114362347D02*
G01*
X162176175Y-114203531D01*
X162655959Y-114203531D01*
X162655959Y-114362347D01*
X162176175Y-114362347D01*
G37*
G36*
X163373580Y-114744500D02*
G01*
X163217400Y-114744500D01*
X163217400Y-113746778D01*
X163155253Y-113798486D01*
X163069518Y-113854646D01*
X162979291Y-113903467D01*
X162905118Y-113935528D01*
X162905118Y-113786638D01*
X162990059Y-113741450D01*
X163066161Y-113691189D01*
X163134115Y-113635886D01*
X163196458Y-113573756D01*
X163241800Y-113516719D01*
X163272924Y-113464042D01*
X163373580Y-113464042D01*
X163373580Y-114744500D01*
G37*
G36*
X164429772Y-114297828D02*
G01*
X164601538Y-114297828D01*
X164601538Y-114440515D01*
X164429772Y-114440515D01*
X164429772Y-114744500D01*
X164273592Y-114744500D01*
X164273592Y-114440515D01*
X163721844Y-114440515D01*
X163721844Y-114297828D01*
X163875387Y-114297828D01*
X164273592Y-114297828D01*
X164273592Y-113724600D01*
X163875387Y-114297828D01*
X163721844Y-114297828D01*
X164302207Y-113473968D01*
X164429772Y-113473968D01*
X164429772Y-114297828D01*
G37*
G36*
X147539469Y-116465239D02*
G01*
X147698286Y-116451280D01*
X147709801Y-116515033D01*
X147727507Y-116567668D01*
X147750708Y-116610950D01*
X147781862Y-116648510D01*
X147823844Y-116682145D01*
X147878661Y-116711839D01*
X147937644Y-116732856D01*
X148002416Y-116745824D01*
X148073924Y-116750302D01*
X148166694Y-116742766D01*
X148243907Y-116721609D01*
X148290734Y-116699014D01*
X148326722Y-116672744D01*
X148353637Y-116642899D01*
X148380776Y-116590246D01*
X148389696Y-116533635D01*
X148380884Y-116477051D01*
X148354955Y-116428869D01*
X148312065Y-116389676D01*
X148240495Y-116353571D01*
X148173708Y-116332312D01*
X148014058Y-116291378D01*
X147852734Y-116246303D01*
X147768544Y-116211737D01*
X147711089Y-116175898D01*
X147666419Y-116136354D01*
X147632759Y-116093013D01*
X147608043Y-116044128D01*
X147593162Y-115991548D01*
X147588092Y-115934274D01*
X147594123Y-115871445D01*
X147612140Y-115811616D01*
X147642685Y-115753744D01*
X147683882Y-115703087D01*
X147736516Y-115660686D01*
X147802354Y-115626257D01*
X147873554Y-115602450D01*
X147951034Y-115587797D01*
X148035771Y-115582753D01*
X148129161Y-115588158D01*
X148211806Y-115603627D01*
X148285162Y-115628350D01*
X148352858Y-115664279D01*
X148407684Y-115708821D01*
X148451268Y-115762352D01*
X148483883Y-115823472D01*
X148504717Y-115889834D01*
X148513771Y-115962656D01*
X148352396Y-115974831D01*
X148335802Y-115897815D01*
X148306244Y-115838141D01*
X148264302Y-115792207D01*
X148210771Y-115759761D01*
X148138727Y-115738368D01*
X148042673Y-115730402D01*
X147941875Y-115737923D01*
X147870095Y-115757587D01*
X147820112Y-115786391D01*
X147780431Y-115827531D01*
X147757855Y-115871958D01*
X147750320Y-115921401D01*
X147755952Y-115964896D01*
X147772285Y-116001977D01*
X147799795Y-116034232D01*
X147837038Y-116058108D01*
X147914383Y-116088130D01*
X148053529Y-116124962D01*
X148241957Y-116173001D01*
X148335025Y-116206076D01*
X148405417Y-116245156D01*
X148459189Y-116288442D01*
X148498960Y-116335890D01*
X148528154Y-116390351D01*
X148545847Y-116450226D01*
X148551924Y-116516885D01*
X148545535Y-116582939D01*
X148526376Y-116646400D01*
X148493764Y-116708349D01*
X148450192Y-116762975D01*
X148395078Y-116809446D01*
X148326805Y-116848089D01*
X148252718Y-116875354D01*
X148171417Y-116892154D01*
X148081679Y-116897952D01*
X147967234Y-116891705D01*
X147871771Y-116874316D01*
X147792351Y-116847391D01*
X147719461Y-116807483D01*
X147658919Y-116756967D01*
X147609339Y-116695166D01*
X147572266Y-116624902D01*
X147548978Y-116548736D01*
X147539469Y-116465239D01*
G37*
G36*
X149105301Y-116878100D02*
G01*
X149105301Y-115750254D01*
X148686236Y-115750254D01*
X148686236Y-115602605D01*
X149694348Y-115602605D01*
X149694348Y-115750254D01*
X149273578Y-115750254D01*
X149273578Y-116878100D01*
X149105301Y-116878100D01*
G37*
G36*
X149870768Y-116878100D02*
G01*
X149870768Y-115602605D01*
X150790399Y-115602605D01*
X150790399Y-115750254D01*
X150039123Y-115750254D01*
X150039123Y-116143573D01*
X150742708Y-116143573D01*
X150742708Y-116291223D01*
X150039123Y-116291223D01*
X150039123Y-116730450D01*
X150819945Y-116730450D01*
X150819945Y-116878100D01*
X149870768Y-116878100D01*
G37*
G36*
X151415739Y-116878100D02*
G01*
X150923005Y-115602605D01*
X151105163Y-115602605D01*
X151435746Y-116529525D01*
X151502514Y-116738437D01*
X151571066Y-116529525D01*
X151914600Y-115602605D01*
X152086366Y-115602605D01*
X151588436Y-116878100D01*
X151415739Y-116878100D01*
G37*
G36*
X152240608Y-116878100D02*
G01*
X152240608Y-115602605D01*
X153160239Y-115602605D01*
X153160239Y-115750254D01*
X152408962Y-115750254D01*
X152408962Y-116143573D01*
X153112547Y-116143573D01*
X153112547Y-116291223D01*
X152408962Y-116291223D01*
X152408962Y-116730450D01*
X153189784Y-116730450D01*
X153189784Y-116878100D01*
X152240608Y-116878100D01*
G37*
G36*
X154596558Y-115607228D02*
G01*
X154680649Y-115619350D01*
X154740959Y-115636725D01*
X154795627Y-115665036D01*
X154842468Y-115704763D01*
X154882327Y-115757234D01*
X154911696Y-115816644D01*
X154929314Y-115879864D01*
X154935292Y-115948000D01*
X154929597Y-116013930D01*
X154913069Y-116072948D01*
X154885945Y-116126363D01*
X154847664Y-116175135D01*
X154801507Y-116214620D01*
X154742748Y-116247756D01*
X154668933Y-116274099D01*
X154577024Y-116292541D01*
X154638820Y-116326748D01*
X154678456Y-116356595D01*
X154748522Y-116431510D01*
X154818196Y-116527819D01*
X155039360Y-116878100D01*
X154827734Y-116878100D01*
X154659379Y-116610097D01*
X154537941Y-116432669D01*
X154489654Y-116377278D01*
X154452484Y-116346514D01*
X154413868Y-116325413D01*
X154375712Y-116312238D01*
X154282035Y-116306112D01*
X154086849Y-116306112D01*
X154086849Y-116878100D01*
X153918494Y-116878100D01*
X153918494Y-116163425D01*
X154086849Y-116163425D01*
X154448606Y-116163425D01*
X154557469Y-116156684D01*
X154629058Y-116139774D01*
X154669758Y-116120305D01*
X154702337Y-116095080D01*
X154727931Y-116063855D01*
X154753323Y-116009303D01*
X154761741Y-115950481D01*
X154754296Y-115893667D01*
X154732684Y-115845224D01*
X154696214Y-115803064D01*
X154648956Y-115773074D01*
X154582160Y-115752929D01*
X154489396Y-115745291D01*
X154086849Y-115745291D01*
X154086849Y-116163425D01*
X153918494Y-116163425D01*
X153918494Y-115602605D01*
X154482417Y-115602605D01*
X154596558Y-115607228D01*
G37*
G36*
X155227489Y-116878100D02*
G01*
X155227489Y-115602605D01*
X155395767Y-115602605D01*
X155395767Y-116878100D01*
X155227489Y-116878100D01*
G37*
G36*
X156600151Y-116431428D02*
G01*
X156768428Y-116473924D01*
X156735041Y-116575221D01*
X156691962Y-116660151D01*
X156639665Y-116730974D01*
X156577972Y-116789386D01*
X156506689Y-116836195D01*
X156427864Y-116869937D01*
X156340140Y-116890742D01*
X156241805Y-116897952D01*
X156138098Y-116892059D01*
X156049154Y-116875434D01*
X155972844Y-116849283D01*
X155907345Y-116814278D01*
X155847704Y-116768540D01*
X155795350Y-116713526D01*
X155749890Y-116648359D01*
X155711306Y-116571788D01*
X155674176Y-116464142D01*
X155651698Y-116350857D01*
X155644072Y-116230814D01*
X155653054Y-116100149D01*
X155678754Y-115985453D01*
X155719991Y-115884256D01*
X155762556Y-115813888D01*
X155812501Y-115753534D01*
X155870111Y-115702264D01*
X155936037Y-115659524D01*
X156031964Y-115617086D01*
X156134246Y-115591467D01*
X156244442Y-115582753D01*
X156339349Y-115589247D01*
X156423431Y-115607902D01*
X156498338Y-115637954D01*
X156565410Y-115679299D01*
X156624672Y-115731526D01*
X156674446Y-115793355D01*
X156715167Y-115865875D01*
X156746715Y-115950636D01*
X156581074Y-115989720D01*
X156544831Y-115901493D01*
X156501853Y-115835835D01*
X156452656Y-115788485D01*
X156393635Y-115754276D01*
X156323929Y-115732968D01*
X156240952Y-115725439D01*
X156145417Y-115733845D01*
X156064644Y-115757675D01*
X155995826Y-115795930D01*
X155936833Y-115848113D01*
X155890973Y-115910648D01*
X155857482Y-115985067D01*
X155835341Y-116065022D01*
X155822070Y-116146474D01*
X155817623Y-116229883D01*
X155823289Y-116337633D01*
X155839384Y-116431715D01*
X155864849Y-116513938D01*
X155903198Y-116589518D01*
X155952035Y-116649217D01*
X156011878Y-116695243D01*
X156080448Y-116728667D01*
X156152083Y-116748565D01*
X156227925Y-116755265D01*
X156297705Y-116749885D01*
X156360089Y-116734329D01*
X156416327Y-116709004D01*
X156467390Y-116673685D01*
X156510728Y-116630024D01*
X156547408Y-116576223D01*
X156577404Y-116510705D01*
X156600151Y-116431428D01*
G37*
G36*
X156980829Y-116878100D02*
G01*
X156980829Y-115602605D01*
X157149107Y-115602605D01*
X157149107Y-116128684D01*
X157810196Y-116128684D01*
X157810196Y-115602605D01*
X157978473Y-115602605D01*
X157978473Y-116878100D01*
X157810196Y-116878100D01*
X157810196Y-116276334D01*
X157149107Y-116276334D01*
X157149107Y-116878100D01*
X156980829Y-116878100D01*
G37*
G36*
X159309181Y-116878100D02*
G01*
X159117407Y-116878100D01*
X158969060Y-116490984D01*
X158437242Y-116490984D01*
X158297579Y-116878100D01*
X158118833Y-116878100D01*
X158320303Y-116352020D01*
X158485864Y-116352020D01*
X158917025Y-116352020D01*
X158784265Y-115999879D01*
X158728793Y-115846212D01*
X158694078Y-115736218D01*
X158664926Y-115857649D01*
X158625526Y-115979096D01*
X158485864Y-116352020D01*
X158320303Y-116352020D01*
X158607302Y-115602605D01*
X158788607Y-115602605D01*
X159309181Y-116878100D01*
G37*
G36*
X160124116Y-115607228D02*
G01*
X160208207Y-115619350D01*
X160268516Y-115636725D01*
X160323185Y-115665036D01*
X160370025Y-115704763D01*
X160409885Y-115757234D01*
X160439254Y-115816644D01*
X160456872Y-115879864D01*
X160462849Y-115948000D01*
X160457155Y-116013930D01*
X160440627Y-116072948D01*
X160413503Y-116126363D01*
X160375221Y-116175135D01*
X160329064Y-116214620D01*
X160270306Y-116247756D01*
X160196491Y-116274099D01*
X160104582Y-116292541D01*
X160166378Y-116326748D01*
X160206013Y-116356595D01*
X160276079Y-116431510D01*
X160345753Y-116527819D01*
X160566918Y-116878100D01*
X160355292Y-116878100D01*
X160186937Y-116610097D01*
X160065498Y-116432669D01*
X160017212Y-116377278D01*
X159980041Y-116346514D01*
X159941425Y-116325413D01*
X159903270Y-116312238D01*
X159809593Y-116306112D01*
X159614407Y-116306112D01*
X159614407Y-116878100D01*
X159446052Y-116878100D01*
X159446052Y-116163425D01*
X159614407Y-116163425D01*
X159976164Y-116163425D01*
X160085026Y-116156684D01*
X160156616Y-116139774D01*
X160197316Y-116120305D01*
X160229895Y-116095080D01*
X160255488Y-116063855D01*
X160280880Y-116009303D01*
X160289299Y-115950481D01*
X160281853Y-115893667D01*
X160260242Y-115845224D01*
X160223772Y-115803064D01*
X160176513Y-115773074D01*
X160109717Y-115752929D01*
X160016954Y-115745291D01*
X159614407Y-115745291D01*
X159614407Y-116163425D01*
X159446052Y-116163425D01*
X159446052Y-115602605D01*
X160009974Y-115602605D01*
X160124116Y-115607228D01*
G37*
G36*
X161304075Y-115607928D02*
G01*
X161390933Y-115620906D01*
X161461462Y-115642732D01*
X161523277Y-115673200D01*
X161577512Y-115712256D01*
X161638395Y-115773702D01*
X161688440Y-115845872D01*
X161727953Y-115930164D01*
X161755032Y-116019946D01*
X161771981Y-116120502D01*
X161777893Y-116233373D01*
X161773839Y-116329946D01*
X161762287Y-116415398D01*
X161744005Y-116490984D01*
X161703955Y-116596604D01*
X161657230Y-116676710D01*
X161600538Y-116743690D01*
X161541452Y-116792410D01*
X161473866Y-116828726D01*
X161389615Y-116856386D01*
X161297213Y-116872336D01*
X161185356Y-116878100D01*
X160726432Y-116878100D01*
X160726432Y-116730450D01*
X160894709Y-116730450D01*
X161166279Y-116730450D01*
X161285131Y-116723731D01*
X161363637Y-116706875D01*
X161429542Y-116677476D01*
X161477708Y-116640340D01*
X161513402Y-116597286D01*
X161544574Y-116543745D01*
X161570920Y-116477956D01*
X161588708Y-116409178D01*
X161600218Y-116327450D01*
X161604343Y-116230736D01*
X161599412Y-116127311D01*
X161585877Y-116043292D01*
X161565312Y-115975566D01*
X161538816Y-115921401D01*
X161489899Y-115854864D01*
X161437043Y-115807579D01*
X161379689Y-115776543D01*
X161333197Y-115763445D01*
X161263100Y-115753968D01*
X161161937Y-115750254D01*
X160894709Y-115750254D01*
X160894709Y-116730450D01*
X160726432Y-116730450D01*
X160726432Y-115602605D01*
X161164496Y-115602605D01*
X161304075Y-115607928D01*
G37*
G36*
X161952064Y-116465239D02*
G01*
X162110880Y-116451280D01*
X162122396Y-116515033D01*
X162140101Y-116567668D01*
X162163302Y-116610950D01*
X162194456Y-116648510D01*
X162236439Y-116682145D01*
X162291255Y-116711839D01*
X162350238Y-116732856D01*
X162415010Y-116745824D01*
X162486519Y-116750302D01*
X162579288Y-116742766D01*
X162656502Y-116721609D01*
X162703328Y-116699014D01*
X162739317Y-116672744D01*
X162766231Y-116642899D01*
X162793371Y-116590246D01*
X162802290Y-116533635D01*
X162793478Y-116477051D01*
X162767549Y-116428869D01*
X162724659Y-116389676D01*
X162653090Y-116353571D01*
X162586303Y-116332312D01*
X162426652Y-116291378D01*
X162265329Y-116246303D01*
X162181138Y-116211737D01*
X162123684Y-116175898D01*
X162079014Y-116136354D01*
X162045353Y-116093013D01*
X162020637Y-116044128D01*
X162005756Y-115991548D01*
X162000686Y-115934274D01*
X162006718Y-115871445D01*
X162024735Y-115811616D01*
X162055279Y-115753744D01*
X162096476Y-115703087D01*
X162149111Y-115660686D01*
X162214949Y-115626257D01*
X162286148Y-115602450D01*
X162363628Y-115587797D01*
X162448365Y-115582753D01*
X162541756Y-115588158D01*
X162624401Y-115603627D01*
X162697757Y-115628350D01*
X162765452Y-115664279D01*
X162820279Y-115708821D01*
X162863863Y-115762352D01*
X162896478Y-115823472D01*
X162917312Y-115889834D01*
X162926366Y-115962656D01*
X162764990Y-115974831D01*
X162748397Y-115897815D01*
X162718838Y-115838141D01*
X162676897Y-115792207D01*
X162623366Y-115759761D01*
X162551322Y-115738368D01*
X162455267Y-115730402D01*
X162354470Y-115737923D01*
X162282690Y-115757587D01*
X162232707Y-115786391D01*
X162193025Y-115827531D01*
X162170450Y-115871958D01*
X162162915Y-115921401D01*
X162168547Y-115964896D01*
X162184879Y-116001977D01*
X162212390Y-116034232D01*
X162249632Y-116058108D01*
X162326977Y-116088130D01*
X162466124Y-116124962D01*
X162654552Y-116173001D01*
X162747620Y-116206076D01*
X162818011Y-116245156D01*
X162871784Y-116288442D01*
X162911554Y-116335890D01*
X162940749Y-116390351D01*
X162958442Y-116450226D01*
X162964519Y-116516885D01*
X162958130Y-116582939D01*
X162938971Y-116646400D01*
X162906359Y-116708349D01*
X162862786Y-116762975D01*
X162807673Y-116809446D01*
X162739400Y-116848089D01*
X162665313Y-116875354D01*
X162584011Y-116892154D01*
X162494273Y-116897952D01*
X162379829Y-116891705D01*
X162284365Y-116874316D01*
X162204945Y-116847391D01*
X162132056Y-116807483D01*
X162071514Y-116756967D01*
X162021934Y-116695166D01*
X161984861Y-116624902D01*
X161961573Y-116548736D01*
X161952064Y-116465239D01*
G37*
G36*
X163839395Y-115588192D02*
G01*
X163920849Y-115604143D01*
X163997324Y-115630339D01*
X164069565Y-115666891D01*
X164136177Y-115713148D01*
X164193928Y-115767269D01*
X164243479Y-115829745D01*
X164285146Y-115901394D01*
X164325734Y-116004014D01*
X164350725Y-116117093D01*
X164359359Y-116242523D01*
X164350298Y-116369502D01*
X164324033Y-116484162D01*
X164281269Y-116588461D01*
X164237509Y-116661067D01*
X164186306Y-116723176D01*
X164127385Y-116775778D01*
X164060105Y-116819474D01*
X163962181Y-116863066D01*
X163859703Y-116889149D01*
X163751234Y-116897952D01*
X163662174Y-116892321D01*
X163579594Y-116875848D01*
X163502536Y-116848856D01*
X163430189Y-116811254D01*
X163363542Y-116763750D01*
X163306013Y-116708817D01*
X163256921Y-116646012D01*
X163215927Y-116574580D01*
X163175434Y-116472539D01*
X163151240Y-116367155D01*
X163143276Y-116259506D01*
X163316583Y-116259506D01*
X163325190Y-116374329D01*
X163349444Y-116471171D01*
X163387861Y-116553142D01*
X163440193Y-116622659D01*
X163506323Y-116680931D01*
X163579018Y-116721871D01*
X163659688Y-116746709D01*
X163750381Y-116755265D01*
X163842864Y-116746565D01*
X163924475Y-116721392D01*
X163997397Y-116680041D01*
X164063129Y-116621341D01*
X164114500Y-116551389D01*
X164152709Y-116466815D01*
X164177132Y-116364664D01*
X164185886Y-116241205D01*
X164179633Y-116138490D01*
X164161803Y-116048522D01*
X164133387Y-115969480D01*
X164092364Y-115896941D01*
X164041385Y-115837413D01*
X163979843Y-115789416D01*
X163910127Y-115754031D01*
X163834976Y-115732710D01*
X163752940Y-115725439D01*
X163665922Y-115733279D01*
X163586667Y-115756227D01*
X163513548Y-115794269D01*
X163445389Y-115848507D01*
X163402700Y-115898866D01*
X163367641Y-115962294D01*
X163340664Y-116041335D01*
X163323001Y-116139172D01*
X163316583Y-116259506D01*
X163143276Y-116259506D01*
X163143110Y-116257257D01*
X163150796Y-116128883D01*
X163172631Y-116017368D01*
X163207267Y-115920302D01*
X163254060Y-115835644D01*
X163313093Y-115761809D01*
X163384748Y-115697594D01*
X163463295Y-115648071D01*
X163549715Y-115612362D01*
X163645402Y-115590363D01*
X163752087Y-115582753D01*
X163839395Y-115588192D01*
G37*
G36*
X164574707Y-116878100D02*
G01*
X164574707Y-115602605D01*
X164747404Y-115602605D01*
X165415395Y-116604048D01*
X165415395Y-115602605D01*
X165576771Y-115602605D01*
X165576771Y-116878100D01*
X165404151Y-116878100D01*
X164736083Y-115875803D01*
X164736083Y-116878100D01*
X164574707Y-116878100D01*
G37*
D10*
X152233333Y-73511580D02*
X152185714Y-73559200D01*
X152185714Y-73559200D02*
X152042857Y-73606819D01*
X152042857Y-73606819D02*
X151947619Y-73606819D01*
X151947619Y-73606819D02*
X151804762Y-73559200D01*
X151804762Y-73559200D02*
X151709524Y-73463961D01*
X151709524Y-73463961D02*
X151661905Y-73368723D01*
X151661905Y-73368723D02*
X151614286Y-73178247D01*
X151614286Y-73178247D02*
X151614286Y-73035390D01*
X151614286Y-73035390D02*
X151661905Y-72844914D01*
X151661905Y-72844914D02*
X151709524Y-72749676D01*
X151709524Y-72749676D02*
X151804762Y-72654438D01*
X151804762Y-72654438D02*
X151947619Y-72606819D01*
X151947619Y-72606819D02*
X152042857Y-72606819D01*
X152042857Y-72606819D02*
X152185714Y-72654438D01*
X152185714Y-72654438D02*
X152233333Y-72702057D01*
X152566667Y-72606819D02*
X153185714Y-72606819D01*
X153185714Y-72606819D02*
X152852381Y-72987771D01*
X152852381Y-72987771D02*
X152995238Y-72987771D01*
X152995238Y-72987771D02*
X153090476Y-73035390D01*
X153090476Y-73035390D02*
X153138095Y-73083009D01*
X153138095Y-73083009D02*
X153185714Y-73178247D01*
X153185714Y-73178247D02*
X153185714Y-73416342D01*
X153185714Y-73416342D02*
X153138095Y-73511580D01*
X153138095Y-73511580D02*
X153090476Y-73559200D01*
X153090476Y-73559200D02*
X152995238Y-73606819D01*
X152995238Y-73606819D02*
X152709524Y-73606819D01*
X152709524Y-73606819D02*
X152614286Y-73559200D01*
X152614286Y-73559200D02*
X152566667Y-73511580D01*
X149843133Y-73892580D02*
X149795514Y-73940200D01*
X149795514Y-73940200D02*
X149652657Y-73987819D01*
X149652657Y-73987819D02*
X149557419Y-73987819D01*
X149557419Y-73987819D02*
X149414562Y-73940200D01*
X149414562Y-73940200D02*
X149319324Y-73844961D01*
X149319324Y-73844961D02*
X149271705Y-73749723D01*
X149271705Y-73749723D02*
X149224086Y-73559247D01*
X149224086Y-73559247D02*
X149224086Y-73416390D01*
X149224086Y-73416390D02*
X149271705Y-73225914D01*
X149271705Y-73225914D02*
X149319324Y-73130676D01*
X149319324Y-73130676D02*
X149414562Y-73035438D01*
X149414562Y-73035438D02*
X149557419Y-72987819D01*
X149557419Y-72987819D02*
X149652657Y-72987819D01*
X149652657Y-72987819D02*
X149795514Y-73035438D01*
X149795514Y-73035438D02*
X149843133Y-73083057D01*
X150224086Y-73083057D02*
X150271705Y-73035438D01*
X150271705Y-73035438D02*
X150366943Y-72987819D01*
X150366943Y-72987819D02*
X150605038Y-72987819D01*
X150605038Y-72987819D02*
X150700276Y-73035438D01*
X150700276Y-73035438D02*
X150747895Y-73083057D01*
X150747895Y-73083057D02*
X150795514Y-73178295D01*
X150795514Y-73178295D02*
X150795514Y-73273533D01*
X150795514Y-73273533D02*
X150747895Y-73416390D01*
X150747895Y-73416390D02*
X150176467Y-73987819D01*
X150176467Y-73987819D02*
X150795514Y-73987819D01*
X149843133Y-79430380D02*
X149795514Y-79478000D01*
X149795514Y-79478000D02*
X149652657Y-79525619D01*
X149652657Y-79525619D02*
X149557419Y-79525619D01*
X149557419Y-79525619D02*
X149414562Y-79478000D01*
X149414562Y-79478000D02*
X149319324Y-79382761D01*
X149319324Y-79382761D02*
X149271705Y-79287523D01*
X149271705Y-79287523D02*
X149224086Y-79097047D01*
X149224086Y-79097047D02*
X149224086Y-78954190D01*
X149224086Y-78954190D02*
X149271705Y-78763714D01*
X149271705Y-78763714D02*
X149319324Y-78668476D01*
X149319324Y-78668476D02*
X149414562Y-78573238D01*
X149414562Y-78573238D02*
X149557419Y-78525619D01*
X149557419Y-78525619D02*
X149652657Y-78525619D01*
X149652657Y-78525619D02*
X149795514Y-78573238D01*
X149795514Y-78573238D02*
X149843133Y-78620857D01*
X150795514Y-79525619D02*
X150224086Y-79525619D01*
X150509800Y-79525619D02*
X150509800Y-78525619D01*
X150509800Y-78525619D02*
X150414562Y-78668476D01*
X150414562Y-78668476D02*
X150319324Y-78763714D01*
X150319324Y-78763714D02*
X150224086Y-78811333D01*
X161295514Y-142933949D02*
X161295514Y-141933949D01*
X161295514Y-141933949D02*
X161533609Y-141933949D01*
X161533609Y-141933949D02*
X161676466Y-141981568D01*
X161676466Y-141981568D02*
X161771704Y-142076806D01*
X161771704Y-142076806D02*
X161819323Y-142172044D01*
X161819323Y-142172044D02*
X161866942Y-142362520D01*
X161866942Y-142362520D02*
X161866942Y-142505377D01*
X161866942Y-142505377D02*
X161819323Y-142695853D01*
X161819323Y-142695853D02*
X161771704Y-142791091D01*
X161771704Y-142791091D02*
X161676466Y-142886330D01*
X161676466Y-142886330D02*
X161533609Y-142933949D01*
X161533609Y-142933949D02*
X161295514Y-142933949D01*
X162724085Y-142267282D02*
X162724085Y-142933949D01*
X162485990Y-141886330D02*
X162247895Y-142600615D01*
X162247895Y-142600615D02*
X162866942Y-142600615D01*
X163724085Y-141933949D02*
X163247895Y-141933949D01*
X163247895Y-141933949D02*
X163200276Y-142410139D01*
X163200276Y-142410139D02*
X163247895Y-142362520D01*
X163247895Y-142362520D02*
X163343133Y-142314901D01*
X163343133Y-142314901D02*
X163581228Y-142314901D01*
X163581228Y-142314901D02*
X163676466Y-142362520D01*
X163676466Y-142362520D02*
X163724085Y-142410139D01*
X163724085Y-142410139D02*
X163771704Y-142505377D01*
X163771704Y-142505377D02*
X163771704Y-142743472D01*
X163771704Y-142743472D02*
X163724085Y-142838710D01*
X163724085Y-142838710D02*
X163676466Y-142886330D01*
X163676466Y-142886330D02*
X163581228Y-142933949D01*
X163581228Y-142933949D02*
X163343133Y-142933949D01*
X163343133Y-142933949D02*
X163247895Y-142886330D01*
X163247895Y-142886330D02*
X163200276Y-142838710D01*
X148771705Y-66733949D02*
X148771705Y-65733949D01*
X148771705Y-65733949D02*
X149009800Y-65733949D01*
X149009800Y-65733949D02*
X149152657Y-65781568D01*
X149152657Y-65781568D02*
X149247895Y-65876806D01*
X149247895Y-65876806D02*
X149295514Y-65972044D01*
X149295514Y-65972044D02*
X149343133Y-66162520D01*
X149343133Y-66162520D02*
X149343133Y-66305377D01*
X149343133Y-66305377D02*
X149295514Y-66495853D01*
X149295514Y-66495853D02*
X149247895Y-66591091D01*
X149247895Y-66591091D02*
X149152657Y-66686330D01*
X149152657Y-66686330D02*
X149009800Y-66733949D01*
X149009800Y-66733949D02*
X148771705Y-66733949D01*
X150295514Y-66733949D02*
X149724086Y-66733949D01*
X150009800Y-66733949D02*
X150009800Y-65733949D01*
X150009800Y-65733949D02*
X149914562Y-65876806D01*
X149914562Y-65876806D02*
X149819324Y-65972044D01*
X149819324Y-65972044D02*
X149724086Y-66019663D01*
X142308056Y-54504128D02*
X142308056Y-53504128D01*
X142308056Y-53504128D02*
X142546151Y-53504128D01*
X142546151Y-53504128D02*
X142689008Y-53551747D01*
X142689008Y-53551747D02*
X142784246Y-53646985D01*
X142784246Y-53646985D02*
X142831865Y-53742223D01*
X142831865Y-53742223D02*
X142879484Y-53932699D01*
X142879484Y-53932699D02*
X142879484Y-54075556D01*
X142879484Y-54075556D02*
X142831865Y-54266032D01*
X142831865Y-54266032D02*
X142784246Y-54361270D01*
X142784246Y-54361270D02*
X142689008Y-54456509D01*
X142689008Y-54456509D02*
X142546151Y-54504128D01*
X142546151Y-54504128D02*
X142308056Y-54504128D01*
X143736627Y-53837461D02*
X143736627Y-54504128D01*
X143498532Y-53456509D02*
X143260437Y-54170794D01*
X143260437Y-54170794D02*
X143879484Y-54170794D01*
X154795514Y-80575619D02*
X154795514Y-79575619D01*
X154795514Y-79575619D02*
X155033609Y-79575619D01*
X155033609Y-79575619D02*
X155176466Y-79623238D01*
X155176466Y-79623238D02*
X155271704Y-79718476D01*
X155271704Y-79718476D02*
X155319323Y-79813714D01*
X155319323Y-79813714D02*
X155366942Y-80004190D01*
X155366942Y-80004190D02*
X155366942Y-80147047D01*
X155366942Y-80147047D02*
X155319323Y-80337523D01*
X155319323Y-80337523D02*
X155271704Y-80432761D01*
X155271704Y-80432761D02*
X155176466Y-80528000D01*
X155176466Y-80528000D02*
X155033609Y-80575619D01*
X155033609Y-80575619D02*
X154795514Y-80575619D01*
X155747895Y-79670857D02*
X155795514Y-79623238D01*
X155795514Y-79623238D02*
X155890752Y-79575619D01*
X155890752Y-79575619D02*
X156128847Y-79575619D01*
X156128847Y-79575619D02*
X156224085Y-79623238D01*
X156224085Y-79623238D02*
X156271704Y-79670857D01*
X156271704Y-79670857D02*
X156319323Y-79766095D01*
X156319323Y-79766095D02*
X156319323Y-79861333D01*
X156319323Y-79861333D02*
X156271704Y-80004190D01*
X156271704Y-80004190D02*
X155700276Y-80575619D01*
X155700276Y-80575619D02*
X156319323Y-80575619D01*
X156652657Y-79575619D02*
X157271704Y-79575619D01*
X157271704Y-79575619D02*
X156938371Y-79956571D01*
X156938371Y-79956571D02*
X157081228Y-79956571D01*
X157081228Y-79956571D02*
X157176466Y-80004190D01*
X157176466Y-80004190D02*
X157224085Y-80051809D01*
X157224085Y-80051809D02*
X157271704Y-80147047D01*
X157271704Y-80147047D02*
X157271704Y-80385142D01*
X157271704Y-80385142D02*
X157224085Y-80480380D01*
X157224085Y-80480380D02*
X157176466Y-80528000D01*
X157176466Y-80528000D02*
X157081228Y-80575619D01*
X157081228Y-80575619D02*
X156795514Y-80575619D01*
X156795514Y-80575619D02*
X156700276Y-80528000D01*
X156700276Y-80528000D02*
X156652657Y-80480380D01*
X163637760Y-122145945D02*
X163637760Y-121145945D01*
X163637760Y-121145945D02*
X163875855Y-121145945D01*
X163875855Y-121145945D02*
X164018712Y-121193564D01*
X164018712Y-121193564D02*
X164113950Y-121288802D01*
X164113950Y-121288802D02*
X164161569Y-121384040D01*
X164161569Y-121384040D02*
X164209188Y-121574516D01*
X164209188Y-121574516D02*
X164209188Y-121717373D01*
X164209188Y-121717373D02*
X164161569Y-121907849D01*
X164161569Y-121907849D02*
X164113950Y-122003087D01*
X164113950Y-122003087D02*
X164018712Y-122098326D01*
X164018712Y-122098326D02*
X163875855Y-122145945D01*
X163875855Y-122145945D02*
X163637760Y-122145945D01*
X165066331Y-121479278D02*
X165066331Y-122145945D01*
X164828236Y-121098326D02*
X164590141Y-121812611D01*
X164590141Y-121812611D02*
X165209188Y-121812611D01*
X165780617Y-121145945D02*
X165875855Y-121145945D01*
X165875855Y-121145945D02*
X165971093Y-121193564D01*
X165971093Y-121193564D02*
X166018712Y-121241183D01*
X166018712Y-121241183D02*
X166066331Y-121336421D01*
X166066331Y-121336421D02*
X166113950Y-121526897D01*
X166113950Y-121526897D02*
X166113950Y-121764992D01*
X166113950Y-121764992D02*
X166066331Y-121955468D01*
X166066331Y-121955468D02*
X166018712Y-122050706D01*
X166018712Y-122050706D02*
X165971093Y-122098326D01*
X165971093Y-122098326D02*
X165875855Y-122145945D01*
X165875855Y-122145945D02*
X165780617Y-122145945D01*
X165780617Y-122145945D02*
X165685379Y-122098326D01*
X165685379Y-122098326D02*
X165637760Y-122050706D01*
X165637760Y-122050706D02*
X165590141Y-121955468D01*
X165590141Y-121955468D02*
X165542522Y-121764992D01*
X165542522Y-121764992D02*
X165542522Y-121526897D01*
X165542522Y-121526897D02*
X165590141Y-121336421D01*
X165590141Y-121336421D02*
X165637760Y-121241183D01*
X165637760Y-121241183D02*
X165685379Y-121193564D01*
X165685379Y-121193564D02*
X165780617Y-121145945D01*
X145953268Y-84045945D02*
X145953268Y-83045945D01*
X145953268Y-83045945D02*
X146191363Y-83045945D01*
X146191363Y-83045945D02*
X146334220Y-83093564D01*
X146334220Y-83093564D02*
X146429458Y-83188802D01*
X146429458Y-83188802D02*
X146477077Y-83284040D01*
X146477077Y-83284040D02*
X146524696Y-83474516D01*
X146524696Y-83474516D02*
X146524696Y-83617373D01*
X146524696Y-83617373D02*
X146477077Y-83807849D01*
X146477077Y-83807849D02*
X146429458Y-83903087D01*
X146429458Y-83903087D02*
X146334220Y-83998326D01*
X146334220Y-83998326D02*
X146191363Y-84045945D01*
X146191363Y-84045945D02*
X145953268Y-84045945D01*
X146905649Y-83141183D02*
X146953268Y-83093564D01*
X146953268Y-83093564D02*
X147048506Y-83045945D01*
X147048506Y-83045945D02*
X147286601Y-83045945D01*
X147286601Y-83045945D02*
X147381839Y-83093564D01*
X147381839Y-83093564D02*
X147429458Y-83141183D01*
X147429458Y-83141183D02*
X147477077Y-83236421D01*
X147477077Y-83236421D02*
X147477077Y-83331659D01*
X147477077Y-83331659D02*
X147429458Y-83474516D01*
X147429458Y-83474516D02*
X146858030Y-84045945D01*
X146858030Y-84045945D02*
X147477077Y-84045945D01*
X148429458Y-84045945D02*
X147858030Y-84045945D01*
X148143744Y-84045945D02*
X148143744Y-83045945D01*
X148143744Y-83045945D02*
X148048506Y-83188802D01*
X148048506Y-83188802D02*
X147953268Y-83284040D01*
X147953268Y-83284040D02*
X147858030Y-83331659D01*
X145107896Y-63580986D02*
X145107896Y-62580986D01*
X145107896Y-62580986D02*
X145345991Y-62580986D01*
X145345991Y-62580986D02*
X145488848Y-62628605D01*
X145488848Y-62628605D02*
X145584086Y-62723843D01*
X145584086Y-62723843D02*
X145631705Y-62819081D01*
X145631705Y-62819081D02*
X145679324Y-63009557D01*
X145679324Y-63009557D02*
X145679324Y-63152414D01*
X145679324Y-63152414D02*
X145631705Y-63342890D01*
X145631705Y-63342890D02*
X145584086Y-63438128D01*
X145584086Y-63438128D02*
X145488848Y-63533367D01*
X145488848Y-63533367D02*
X145345991Y-63580986D01*
X145345991Y-63580986D02*
X145107896Y-63580986D01*
X146060277Y-62676224D02*
X146107896Y-62628605D01*
X146107896Y-62628605D02*
X146203134Y-62580986D01*
X146203134Y-62580986D02*
X146441229Y-62580986D01*
X146441229Y-62580986D02*
X146536467Y-62628605D01*
X146536467Y-62628605D02*
X146584086Y-62676224D01*
X146584086Y-62676224D02*
X146631705Y-62771462D01*
X146631705Y-62771462D02*
X146631705Y-62866700D01*
X146631705Y-62866700D02*
X146584086Y-63009557D01*
X146584086Y-63009557D02*
X146012658Y-63580986D01*
X146012658Y-63580986D02*
X146631705Y-63580986D01*
X143082919Y-126035130D02*
X143082919Y-125035130D01*
X143082919Y-125035130D02*
X143321014Y-125035130D01*
X143321014Y-125035130D02*
X143463871Y-125082749D01*
X143463871Y-125082749D02*
X143559109Y-125177987D01*
X143559109Y-125177987D02*
X143606728Y-125273225D01*
X143606728Y-125273225D02*
X143654347Y-125463701D01*
X143654347Y-125463701D02*
X143654347Y-125606558D01*
X143654347Y-125606558D02*
X143606728Y-125797034D01*
X143606728Y-125797034D02*
X143559109Y-125892272D01*
X143559109Y-125892272D02*
X143463871Y-125987511D01*
X143463871Y-125987511D02*
X143321014Y-126035130D01*
X143321014Y-126035130D02*
X143082919Y-126035130D01*
X143987681Y-125035130D02*
X144606728Y-125035130D01*
X144606728Y-125035130D02*
X144273395Y-125416082D01*
X144273395Y-125416082D02*
X144416252Y-125416082D01*
X144416252Y-125416082D02*
X144511490Y-125463701D01*
X144511490Y-125463701D02*
X144559109Y-125511320D01*
X144559109Y-125511320D02*
X144606728Y-125606558D01*
X144606728Y-125606558D02*
X144606728Y-125844653D01*
X144606728Y-125844653D02*
X144559109Y-125939891D01*
X144559109Y-125939891D02*
X144511490Y-125987511D01*
X144511490Y-125987511D02*
X144416252Y-126035130D01*
X144416252Y-126035130D02*
X144130538Y-126035130D01*
X144130538Y-126035130D02*
X144035300Y-125987511D01*
X144035300Y-125987511D02*
X143987681Y-125939891D01*
X145511490Y-125035130D02*
X145035300Y-125035130D01*
X145035300Y-125035130D02*
X144987681Y-125511320D01*
X144987681Y-125511320D02*
X145035300Y-125463701D01*
X145035300Y-125463701D02*
X145130538Y-125416082D01*
X145130538Y-125416082D02*
X145368633Y-125416082D01*
X145368633Y-125416082D02*
X145463871Y-125463701D01*
X145463871Y-125463701D02*
X145511490Y-125511320D01*
X145511490Y-125511320D02*
X145559109Y-125606558D01*
X145559109Y-125606558D02*
X145559109Y-125844653D01*
X145559109Y-125844653D02*
X145511490Y-125939891D01*
X145511490Y-125939891D02*
X145463871Y-125987511D01*
X145463871Y-125987511D02*
X145368633Y-126035130D01*
X145368633Y-126035130D02*
X145130538Y-126035130D01*
X145130538Y-126035130D02*
X145035300Y-125987511D01*
X145035300Y-125987511D02*
X144987681Y-125939891D01*
X164959323Y-139780986D02*
X164959323Y-138780986D01*
X164959323Y-138780986D02*
X165197418Y-138780986D01*
X165197418Y-138780986D02*
X165340275Y-138828605D01*
X165340275Y-138828605D02*
X165435513Y-138923843D01*
X165435513Y-138923843D02*
X165483132Y-139019081D01*
X165483132Y-139019081D02*
X165530751Y-139209557D01*
X165530751Y-139209557D02*
X165530751Y-139352414D01*
X165530751Y-139352414D02*
X165483132Y-139542890D01*
X165483132Y-139542890D02*
X165435513Y-139638128D01*
X165435513Y-139638128D02*
X165340275Y-139733367D01*
X165340275Y-139733367D02*
X165197418Y-139780986D01*
X165197418Y-139780986D02*
X164959323Y-139780986D01*
X166387894Y-139114319D02*
X166387894Y-139780986D01*
X166149799Y-138733367D02*
X165911704Y-139447652D01*
X165911704Y-139447652D02*
X166530751Y-139447652D01*
X167340275Y-139114319D02*
X167340275Y-139780986D01*
X167102180Y-138733367D02*
X166864085Y-139447652D01*
X166864085Y-139447652D02*
X167483132Y-139447652D01*
X167217960Y-135507436D02*
X167217960Y-134507436D01*
X167217960Y-134507436D02*
X167456055Y-134507436D01*
X167456055Y-134507436D02*
X167598912Y-134555055D01*
X167598912Y-134555055D02*
X167694150Y-134650293D01*
X167694150Y-134650293D02*
X167741769Y-134745531D01*
X167741769Y-134745531D02*
X167789388Y-134936007D01*
X167789388Y-134936007D02*
X167789388Y-135078864D01*
X167789388Y-135078864D02*
X167741769Y-135269340D01*
X167741769Y-135269340D02*
X167694150Y-135364578D01*
X167694150Y-135364578D02*
X167598912Y-135459817D01*
X167598912Y-135459817D02*
X167456055Y-135507436D01*
X167456055Y-135507436D02*
X167217960Y-135507436D01*
X168646531Y-134840769D02*
X168646531Y-135507436D01*
X168408436Y-134459817D02*
X168170341Y-135174102D01*
X168170341Y-135174102D02*
X168789388Y-135174102D01*
X169075103Y-134507436D02*
X169694150Y-134507436D01*
X169694150Y-134507436D02*
X169360817Y-134888388D01*
X169360817Y-134888388D02*
X169503674Y-134888388D01*
X169503674Y-134888388D02*
X169598912Y-134936007D01*
X169598912Y-134936007D02*
X169646531Y-134983626D01*
X169646531Y-134983626D02*
X169694150Y-135078864D01*
X169694150Y-135078864D02*
X169694150Y-135316959D01*
X169694150Y-135316959D02*
X169646531Y-135412197D01*
X169646531Y-135412197D02*
X169598912Y-135459817D01*
X169598912Y-135459817D02*
X169503674Y-135507436D01*
X169503674Y-135507436D02*
X169217960Y-135507436D01*
X169217960Y-135507436D02*
X169122722Y-135459817D01*
X169122722Y-135459817D02*
X169075103Y-135412197D01*
X161295514Y-66733949D02*
X161295514Y-65733949D01*
X161295514Y-65733949D02*
X161533609Y-65733949D01*
X161533609Y-65733949D02*
X161676466Y-65781568D01*
X161676466Y-65781568D02*
X161771704Y-65876806D01*
X161771704Y-65876806D02*
X161819323Y-65972044D01*
X161819323Y-65972044D02*
X161866942Y-66162520D01*
X161866942Y-66162520D02*
X161866942Y-66305377D01*
X161866942Y-66305377D02*
X161819323Y-66495853D01*
X161819323Y-66495853D02*
X161771704Y-66591091D01*
X161771704Y-66591091D02*
X161676466Y-66686330D01*
X161676466Y-66686330D02*
X161533609Y-66733949D01*
X161533609Y-66733949D02*
X161295514Y-66733949D01*
X162819323Y-66733949D02*
X162247895Y-66733949D01*
X162533609Y-66733949D02*
X162533609Y-65733949D01*
X162533609Y-65733949D02*
X162438371Y-65876806D01*
X162438371Y-65876806D02*
X162343133Y-65972044D01*
X162343133Y-65972044D02*
X162247895Y-66019663D01*
X163724085Y-65733949D02*
X163247895Y-65733949D01*
X163247895Y-65733949D02*
X163200276Y-66210139D01*
X163200276Y-66210139D02*
X163247895Y-66162520D01*
X163247895Y-66162520D02*
X163343133Y-66114901D01*
X163343133Y-66114901D02*
X163581228Y-66114901D01*
X163581228Y-66114901D02*
X163676466Y-66162520D01*
X163676466Y-66162520D02*
X163724085Y-66210139D01*
X163724085Y-66210139D02*
X163771704Y-66305377D01*
X163771704Y-66305377D02*
X163771704Y-66543472D01*
X163771704Y-66543472D02*
X163724085Y-66638710D01*
X163724085Y-66638710D02*
X163676466Y-66686330D01*
X163676466Y-66686330D02*
X163581228Y-66733949D01*
X163581228Y-66733949D02*
X163343133Y-66733949D01*
X163343133Y-66733949D02*
X163247895Y-66686330D01*
X163247895Y-66686330D02*
X163200276Y-66638710D01*
X142849259Y-59307436D02*
X142849259Y-58307436D01*
X142849259Y-58307436D02*
X143087354Y-58307436D01*
X143087354Y-58307436D02*
X143230211Y-58355055D01*
X143230211Y-58355055D02*
X143325449Y-58450293D01*
X143325449Y-58450293D02*
X143373068Y-58545531D01*
X143373068Y-58545531D02*
X143420687Y-58736007D01*
X143420687Y-58736007D02*
X143420687Y-58878864D01*
X143420687Y-58878864D02*
X143373068Y-59069340D01*
X143373068Y-59069340D02*
X143325449Y-59164578D01*
X143325449Y-59164578D02*
X143230211Y-59259817D01*
X143230211Y-59259817D02*
X143087354Y-59307436D01*
X143087354Y-59307436D02*
X142849259Y-59307436D01*
X143754021Y-58307436D02*
X144373068Y-58307436D01*
X144373068Y-58307436D02*
X144039735Y-58688388D01*
X144039735Y-58688388D02*
X144182592Y-58688388D01*
X144182592Y-58688388D02*
X144277830Y-58736007D01*
X144277830Y-58736007D02*
X144325449Y-58783626D01*
X144325449Y-58783626D02*
X144373068Y-58878864D01*
X144373068Y-58878864D02*
X144373068Y-59116959D01*
X144373068Y-59116959D02*
X144325449Y-59212197D01*
X144325449Y-59212197D02*
X144277830Y-59259817D01*
X144277830Y-59259817D02*
X144182592Y-59307436D01*
X144182592Y-59307436D02*
X143896878Y-59307436D01*
X143896878Y-59307436D02*
X143801640Y-59259817D01*
X143801640Y-59259817D02*
X143754021Y-59212197D01*
X145953268Y-122145945D02*
X145953268Y-121145945D01*
X145953268Y-121145945D02*
X146191363Y-121145945D01*
X146191363Y-121145945D02*
X146334220Y-121193564D01*
X146334220Y-121193564D02*
X146429458Y-121288802D01*
X146429458Y-121288802D02*
X146477077Y-121384040D01*
X146477077Y-121384040D02*
X146524696Y-121574516D01*
X146524696Y-121574516D02*
X146524696Y-121717373D01*
X146524696Y-121717373D02*
X146477077Y-121907849D01*
X146477077Y-121907849D02*
X146429458Y-122003087D01*
X146429458Y-122003087D02*
X146334220Y-122098326D01*
X146334220Y-122098326D02*
X146191363Y-122145945D01*
X146191363Y-122145945D02*
X145953268Y-122145945D01*
X146858030Y-121145945D02*
X147477077Y-121145945D01*
X147477077Y-121145945D02*
X147143744Y-121526897D01*
X147143744Y-121526897D02*
X147286601Y-121526897D01*
X147286601Y-121526897D02*
X147381839Y-121574516D01*
X147381839Y-121574516D02*
X147429458Y-121622135D01*
X147429458Y-121622135D02*
X147477077Y-121717373D01*
X147477077Y-121717373D02*
X147477077Y-121955468D01*
X147477077Y-121955468D02*
X147429458Y-122050706D01*
X147429458Y-122050706D02*
X147381839Y-122098326D01*
X147381839Y-122098326D02*
X147286601Y-122145945D01*
X147286601Y-122145945D02*
X147000887Y-122145945D01*
X147000887Y-122145945D02*
X146905649Y-122098326D01*
X146905649Y-122098326D02*
X146858030Y-122050706D01*
X148334220Y-121145945D02*
X148143744Y-121145945D01*
X148143744Y-121145945D02*
X148048506Y-121193564D01*
X148048506Y-121193564D02*
X148000887Y-121241183D01*
X148000887Y-121241183D02*
X147905649Y-121384040D01*
X147905649Y-121384040D02*
X147858030Y-121574516D01*
X147858030Y-121574516D02*
X147858030Y-121955468D01*
X147858030Y-121955468D02*
X147905649Y-122050706D01*
X147905649Y-122050706D02*
X147953268Y-122098326D01*
X147953268Y-122098326D02*
X148048506Y-122145945D01*
X148048506Y-122145945D02*
X148238982Y-122145945D01*
X148238982Y-122145945D02*
X148334220Y-122098326D01*
X148334220Y-122098326D02*
X148381839Y-122050706D01*
X148381839Y-122050706D02*
X148429458Y-121955468D01*
X148429458Y-121955468D02*
X148429458Y-121717373D01*
X148429458Y-121717373D02*
X148381839Y-121622135D01*
X148381839Y-121622135D02*
X148334220Y-121574516D01*
X148334220Y-121574516D02*
X148238982Y-121526897D01*
X148238982Y-121526897D02*
X148048506Y-121526897D01*
X148048506Y-121526897D02*
X147953268Y-121574516D01*
X147953268Y-121574516D02*
X147905649Y-121622135D01*
X147905649Y-121622135D02*
X147858030Y-121717373D01*
X155271705Y-42475619D02*
X155271705Y-41475619D01*
X155271705Y-41475619D02*
X155509800Y-41475619D01*
X155509800Y-41475619D02*
X155652657Y-41523238D01*
X155652657Y-41523238D02*
X155747895Y-41618476D01*
X155747895Y-41618476D02*
X155795514Y-41713714D01*
X155795514Y-41713714D02*
X155843133Y-41904190D01*
X155843133Y-41904190D02*
X155843133Y-42047047D01*
X155843133Y-42047047D02*
X155795514Y-42237523D01*
X155795514Y-42237523D02*
X155747895Y-42332761D01*
X155747895Y-42332761D02*
X155652657Y-42428000D01*
X155652657Y-42428000D02*
X155509800Y-42475619D01*
X155509800Y-42475619D02*
X155271705Y-42475619D01*
X156414562Y-41904190D02*
X156319324Y-41856571D01*
X156319324Y-41856571D02*
X156271705Y-41808952D01*
X156271705Y-41808952D02*
X156224086Y-41713714D01*
X156224086Y-41713714D02*
X156224086Y-41666095D01*
X156224086Y-41666095D02*
X156271705Y-41570857D01*
X156271705Y-41570857D02*
X156319324Y-41523238D01*
X156319324Y-41523238D02*
X156414562Y-41475619D01*
X156414562Y-41475619D02*
X156605038Y-41475619D01*
X156605038Y-41475619D02*
X156700276Y-41523238D01*
X156700276Y-41523238D02*
X156747895Y-41570857D01*
X156747895Y-41570857D02*
X156795514Y-41666095D01*
X156795514Y-41666095D02*
X156795514Y-41713714D01*
X156795514Y-41713714D02*
X156747895Y-41808952D01*
X156747895Y-41808952D02*
X156700276Y-41856571D01*
X156700276Y-41856571D02*
X156605038Y-41904190D01*
X156605038Y-41904190D02*
X156414562Y-41904190D01*
X156414562Y-41904190D02*
X156319324Y-41951809D01*
X156319324Y-41951809D02*
X156271705Y-41999428D01*
X156271705Y-41999428D02*
X156224086Y-42094666D01*
X156224086Y-42094666D02*
X156224086Y-42285142D01*
X156224086Y-42285142D02*
X156271705Y-42380380D01*
X156271705Y-42380380D02*
X156319324Y-42428000D01*
X156319324Y-42428000D02*
X156414562Y-42475619D01*
X156414562Y-42475619D02*
X156605038Y-42475619D01*
X156605038Y-42475619D02*
X156700276Y-42428000D01*
X156700276Y-42428000D02*
X156747895Y-42380380D01*
X156747895Y-42380380D02*
X156795514Y-42285142D01*
X156795514Y-42285142D02*
X156795514Y-42094666D01*
X156795514Y-42094666D02*
X156747895Y-41999428D01*
X156747895Y-41999428D02*
X156700276Y-41951809D01*
X156700276Y-41951809D02*
X156605038Y-41904190D01*
X166508109Y-126035130D02*
X166508109Y-125035130D01*
X166508109Y-125035130D02*
X166746204Y-125035130D01*
X166746204Y-125035130D02*
X166889061Y-125082749D01*
X166889061Y-125082749D02*
X166984299Y-125177987D01*
X166984299Y-125177987D02*
X167031918Y-125273225D01*
X167031918Y-125273225D02*
X167079537Y-125463701D01*
X167079537Y-125463701D02*
X167079537Y-125606558D01*
X167079537Y-125606558D02*
X167031918Y-125797034D01*
X167031918Y-125797034D02*
X166984299Y-125892272D01*
X166984299Y-125892272D02*
X166889061Y-125987511D01*
X166889061Y-125987511D02*
X166746204Y-126035130D01*
X166746204Y-126035130D02*
X166508109Y-126035130D01*
X167936680Y-125368463D02*
X167936680Y-126035130D01*
X167698585Y-124987511D02*
X167460490Y-125701796D01*
X167460490Y-125701796D02*
X168079537Y-125701796D01*
X168984299Y-126035130D02*
X168412871Y-126035130D01*
X168698585Y-126035130D02*
X168698585Y-125035130D01*
X168698585Y-125035130D02*
X168603347Y-125177987D01*
X168603347Y-125177987D02*
X168508109Y-125273225D01*
X168508109Y-125273225D02*
X168412871Y-125320844D01*
X167217960Y-97407436D02*
X167217960Y-96407436D01*
X167217960Y-96407436D02*
X167456055Y-96407436D01*
X167456055Y-96407436D02*
X167598912Y-96455055D01*
X167598912Y-96455055D02*
X167694150Y-96550293D01*
X167694150Y-96550293D02*
X167741769Y-96645531D01*
X167741769Y-96645531D02*
X167789388Y-96836007D01*
X167789388Y-96836007D02*
X167789388Y-96978864D01*
X167789388Y-96978864D02*
X167741769Y-97169340D01*
X167741769Y-97169340D02*
X167694150Y-97264578D01*
X167694150Y-97264578D02*
X167598912Y-97359817D01*
X167598912Y-97359817D02*
X167456055Y-97407436D01*
X167456055Y-97407436D02*
X167217960Y-97407436D01*
X168170341Y-96502674D02*
X168217960Y-96455055D01*
X168217960Y-96455055D02*
X168313198Y-96407436D01*
X168313198Y-96407436D02*
X168551293Y-96407436D01*
X168551293Y-96407436D02*
X168646531Y-96455055D01*
X168646531Y-96455055D02*
X168694150Y-96502674D01*
X168694150Y-96502674D02*
X168741769Y-96597912D01*
X168741769Y-96597912D02*
X168741769Y-96693150D01*
X168741769Y-96693150D02*
X168694150Y-96836007D01*
X168694150Y-96836007D02*
X168122722Y-97407436D01*
X168122722Y-97407436D02*
X168741769Y-97407436D01*
X169313198Y-96836007D02*
X169217960Y-96788388D01*
X169217960Y-96788388D02*
X169170341Y-96740769D01*
X169170341Y-96740769D02*
X169122722Y-96645531D01*
X169122722Y-96645531D02*
X169122722Y-96597912D01*
X169122722Y-96597912D02*
X169170341Y-96502674D01*
X169170341Y-96502674D02*
X169217960Y-96455055D01*
X169217960Y-96455055D02*
X169313198Y-96407436D01*
X169313198Y-96407436D02*
X169503674Y-96407436D01*
X169503674Y-96407436D02*
X169598912Y-96455055D01*
X169598912Y-96455055D02*
X169646531Y-96502674D01*
X169646531Y-96502674D02*
X169694150Y-96597912D01*
X169694150Y-96597912D02*
X169694150Y-96645531D01*
X169694150Y-96645531D02*
X169646531Y-96740769D01*
X169646531Y-96740769D02*
X169598912Y-96788388D01*
X169598912Y-96788388D02*
X169503674Y-96836007D01*
X169503674Y-96836007D02*
X169313198Y-96836007D01*
X169313198Y-96836007D02*
X169217960Y-96883626D01*
X169217960Y-96883626D02*
X169170341Y-96931245D01*
X169170341Y-96931245D02*
X169122722Y-97026483D01*
X169122722Y-97026483D02*
X169122722Y-97216959D01*
X169122722Y-97216959D02*
X169170341Y-97312197D01*
X169170341Y-97312197D02*
X169217960Y-97359817D01*
X169217960Y-97359817D02*
X169313198Y-97407436D01*
X169313198Y-97407436D02*
X169503674Y-97407436D01*
X169503674Y-97407436D02*
X169598912Y-97359817D01*
X169598912Y-97359817D02*
X169646531Y-97312197D01*
X169646531Y-97312197D02*
X169694150Y-97216959D01*
X169694150Y-97216959D02*
X169694150Y-97026483D01*
X169694150Y-97026483D02*
X169646531Y-96931245D01*
X169646531Y-96931245D02*
X169598912Y-96883626D01*
X169598912Y-96883626D02*
X169503674Y-96836007D01*
X164959323Y-63580986D02*
X164959323Y-62580986D01*
X164959323Y-62580986D02*
X165197418Y-62580986D01*
X165197418Y-62580986D02*
X165340275Y-62628605D01*
X165340275Y-62628605D02*
X165435513Y-62723843D01*
X165435513Y-62723843D02*
X165483132Y-62819081D01*
X165483132Y-62819081D02*
X165530751Y-63009557D01*
X165530751Y-63009557D02*
X165530751Y-63152414D01*
X165530751Y-63152414D02*
X165483132Y-63342890D01*
X165483132Y-63342890D02*
X165435513Y-63438128D01*
X165435513Y-63438128D02*
X165340275Y-63533367D01*
X165340275Y-63533367D02*
X165197418Y-63580986D01*
X165197418Y-63580986D02*
X164959323Y-63580986D01*
X166483132Y-63580986D02*
X165911704Y-63580986D01*
X166197418Y-63580986D02*
X166197418Y-62580986D01*
X166197418Y-62580986D02*
X166102180Y-62723843D01*
X166102180Y-62723843D02*
X166006942Y-62819081D01*
X166006942Y-62819081D02*
X165911704Y-62866700D01*
X167340275Y-62914319D02*
X167340275Y-63580986D01*
X167102180Y-62533367D02*
X166864085Y-63247652D01*
X166864085Y-63247652D02*
X167483132Y-63247652D01*
X141831865Y-130704128D02*
X141831865Y-129704128D01*
X141831865Y-129704128D02*
X142069960Y-129704128D01*
X142069960Y-129704128D02*
X142212817Y-129751747D01*
X142212817Y-129751747D02*
X142308055Y-129846985D01*
X142308055Y-129846985D02*
X142355674Y-129942223D01*
X142355674Y-129942223D02*
X142403293Y-130132699D01*
X142403293Y-130132699D02*
X142403293Y-130275556D01*
X142403293Y-130275556D02*
X142355674Y-130466032D01*
X142355674Y-130466032D02*
X142308055Y-130561270D01*
X142308055Y-130561270D02*
X142212817Y-130656509D01*
X142212817Y-130656509D02*
X142069960Y-130704128D01*
X142069960Y-130704128D02*
X141831865Y-130704128D01*
X142736627Y-129704128D02*
X143355674Y-129704128D01*
X143355674Y-129704128D02*
X143022341Y-130085080D01*
X143022341Y-130085080D02*
X143165198Y-130085080D01*
X143165198Y-130085080D02*
X143260436Y-130132699D01*
X143260436Y-130132699D02*
X143308055Y-130180318D01*
X143308055Y-130180318D02*
X143355674Y-130275556D01*
X143355674Y-130275556D02*
X143355674Y-130513651D01*
X143355674Y-130513651D02*
X143308055Y-130608889D01*
X143308055Y-130608889D02*
X143260436Y-130656509D01*
X143260436Y-130656509D02*
X143165198Y-130704128D01*
X143165198Y-130704128D02*
X142879484Y-130704128D01*
X142879484Y-130704128D02*
X142784246Y-130656509D01*
X142784246Y-130656509D02*
X142736627Y-130608889D01*
X144212817Y-130037461D02*
X144212817Y-130704128D01*
X143974722Y-129656509D02*
X143736627Y-130370794D01*
X143736627Y-130370794D02*
X144355674Y-130370794D01*
X142373068Y-97407436D02*
X142373068Y-96407436D01*
X142373068Y-96407436D02*
X142611163Y-96407436D01*
X142611163Y-96407436D02*
X142754020Y-96455055D01*
X142754020Y-96455055D02*
X142849258Y-96550293D01*
X142849258Y-96550293D02*
X142896877Y-96645531D01*
X142896877Y-96645531D02*
X142944496Y-96836007D01*
X142944496Y-96836007D02*
X142944496Y-96978864D01*
X142944496Y-96978864D02*
X142896877Y-97169340D01*
X142896877Y-97169340D02*
X142849258Y-97264578D01*
X142849258Y-97264578D02*
X142754020Y-97359817D01*
X142754020Y-97359817D02*
X142611163Y-97407436D01*
X142611163Y-97407436D02*
X142373068Y-97407436D01*
X143896877Y-97407436D02*
X143325449Y-97407436D01*
X143611163Y-97407436D02*
X143611163Y-96407436D01*
X143611163Y-96407436D02*
X143515925Y-96550293D01*
X143515925Y-96550293D02*
X143420687Y-96645531D01*
X143420687Y-96645531D02*
X143325449Y-96693150D01*
X144468306Y-96836007D02*
X144373068Y-96788388D01*
X144373068Y-96788388D02*
X144325449Y-96740769D01*
X144325449Y-96740769D02*
X144277830Y-96645531D01*
X144277830Y-96645531D02*
X144277830Y-96597912D01*
X144277830Y-96597912D02*
X144325449Y-96502674D01*
X144325449Y-96502674D02*
X144373068Y-96455055D01*
X144373068Y-96455055D02*
X144468306Y-96407436D01*
X144468306Y-96407436D02*
X144658782Y-96407436D01*
X144658782Y-96407436D02*
X144754020Y-96455055D01*
X144754020Y-96455055D02*
X144801639Y-96502674D01*
X144801639Y-96502674D02*
X144849258Y-96597912D01*
X144849258Y-96597912D02*
X144849258Y-96645531D01*
X144849258Y-96645531D02*
X144801639Y-96740769D01*
X144801639Y-96740769D02*
X144754020Y-96788388D01*
X144754020Y-96788388D02*
X144658782Y-96836007D01*
X144658782Y-96836007D02*
X144468306Y-96836007D01*
X144468306Y-96836007D02*
X144373068Y-96883626D01*
X144373068Y-96883626D02*
X144325449Y-96931245D01*
X144325449Y-96931245D02*
X144277830Y-97026483D01*
X144277830Y-97026483D02*
X144277830Y-97216959D01*
X144277830Y-97216959D02*
X144325449Y-97312197D01*
X144325449Y-97312197D02*
X144373068Y-97359817D01*
X144373068Y-97359817D02*
X144468306Y-97407436D01*
X144468306Y-97407436D02*
X144658782Y-97407436D01*
X144658782Y-97407436D02*
X144754020Y-97359817D01*
X144754020Y-97359817D02*
X144801639Y-97312197D01*
X144801639Y-97312197D02*
X144849258Y-97216959D01*
X144849258Y-97216959D02*
X144849258Y-97026483D01*
X144849258Y-97026483D02*
X144801639Y-96931245D01*
X144801639Y-96931245D02*
X144754020Y-96883626D01*
X144754020Y-96883626D02*
X144658782Y-96836007D01*
X148295514Y-142933949D02*
X148295514Y-141933949D01*
X148295514Y-141933949D02*
X148533609Y-141933949D01*
X148533609Y-141933949D02*
X148676466Y-141981568D01*
X148676466Y-141981568D02*
X148771704Y-142076806D01*
X148771704Y-142076806D02*
X148819323Y-142172044D01*
X148819323Y-142172044D02*
X148866942Y-142362520D01*
X148866942Y-142362520D02*
X148866942Y-142505377D01*
X148866942Y-142505377D02*
X148819323Y-142695853D01*
X148819323Y-142695853D02*
X148771704Y-142791091D01*
X148771704Y-142791091D02*
X148676466Y-142886330D01*
X148676466Y-142886330D02*
X148533609Y-142933949D01*
X148533609Y-142933949D02*
X148295514Y-142933949D01*
X149200276Y-141933949D02*
X149819323Y-141933949D01*
X149819323Y-141933949D02*
X149485990Y-142314901D01*
X149485990Y-142314901D02*
X149628847Y-142314901D01*
X149628847Y-142314901D02*
X149724085Y-142362520D01*
X149724085Y-142362520D02*
X149771704Y-142410139D01*
X149771704Y-142410139D02*
X149819323Y-142505377D01*
X149819323Y-142505377D02*
X149819323Y-142743472D01*
X149819323Y-142743472D02*
X149771704Y-142838710D01*
X149771704Y-142838710D02*
X149724085Y-142886330D01*
X149724085Y-142886330D02*
X149628847Y-142933949D01*
X149628847Y-142933949D02*
X149343133Y-142933949D01*
X149343133Y-142933949D02*
X149247895Y-142886330D01*
X149247895Y-142886330D02*
X149200276Y-142838710D01*
X150771704Y-142933949D02*
X150200276Y-142933949D01*
X150485990Y-142933949D02*
X150485990Y-141933949D01*
X150485990Y-141933949D02*
X150390752Y-142076806D01*
X150390752Y-142076806D02*
X150295514Y-142172044D01*
X150295514Y-142172044D02*
X150200276Y-142219663D01*
X148295514Y-104833949D02*
X148295514Y-103833949D01*
X148295514Y-103833949D02*
X148533609Y-103833949D01*
X148533609Y-103833949D02*
X148676466Y-103881568D01*
X148676466Y-103881568D02*
X148771704Y-103976806D01*
X148771704Y-103976806D02*
X148819323Y-104072044D01*
X148819323Y-104072044D02*
X148866942Y-104262520D01*
X148866942Y-104262520D02*
X148866942Y-104405377D01*
X148866942Y-104405377D02*
X148819323Y-104595853D01*
X148819323Y-104595853D02*
X148771704Y-104691091D01*
X148771704Y-104691091D02*
X148676466Y-104786330D01*
X148676466Y-104786330D02*
X148533609Y-104833949D01*
X148533609Y-104833949D02*
X148295514Y-104833949D01*
X149819323Y-104833949D02*
X149247895Y-104833949D01*
X149533609Y-104833949D02*
X149533609Y-103833949D01*
X149533609Y-103833949D02*
X149438371Y-103976806D01*
X149438371Y-103976806D02*
X149343133Y-104072044D01*
X149343133Y-104072044D02*
X149247895Y-104119663D01*
X150676466Y-103833949D02*
X150485990Y-103833949D01*
X150485990Y-103833949D02*
X150390752Y-103881568D01*
X150390752Y-103881568D02*
X150343133Y-103929187D01*
X150343133Y-103929187D02*
X150247895Y-104072044D01*
X150247895Y-104072044D02*
X150200276Y-104262520D01*
X150200276Y-104262520D02*
X150200276Y-104643472D01*
X150200276Y-104643472D02*
X150247895Y-104738710D01*
X150247895Y-104738710D02*
X150295514Y-104786330D01*
X150295514Y-104786330D02*
X150390752Y-104833949D01*
X150390752Y-104833949D02*
X150581228Y-104833949D01*
X150581228Y-104833949D02*
X150676466Y-104786330D01*
X150676466Y-104786330D02*
X150724085Y-104738710D01*
X150724085Y-104738710D02*
X150771704Y-104643472D01*
X150771704Y-104643472D02*
X150771704Y-104405377D01*
X150771704Y-104405377D02*
X150724085Y-104310139D01*
X150724085Y-104310139D02*
X150676466Y-104262520D01*
X150676466Y-104262520D02*
X150581228Y-104214901D01*
X150581228Y-104214901D02*
X150390752Y-104214901D01*
X150390752Y-104214901D02*
X150295514Y-104262520D01*
X150295514Y-104262520D02*
X150247895Y-104310139D01*
X150247895Y-104310139D02*
X150200276Y-104405377D01*
X150046081Y-119574260D02*
X150046081Y-118574260D01*
X150046081Y-118574260D02*
X150284176Y-118574260D01*
X150284176Y-118574260D02*
X150427033Y-118621879D01*
X150427033Y-118621879D02*
X150522271Y-118717117D01*
X150522271Y-118717117D02*
X150569890Y-118812355D01*
X150569890Y-118812355D02*
X150617509Y-119002831D01*
X150617509Y-119002831D02*
X150617509Y-119145688D01*
X150617509Y-119145688D02*
X150569890Y-119336164D01*
X150569890Y-119336164D02*
X150522271Y-119431402D01*
X150522271Y-119431402D02*
X150427033Y-119526641D01*
X150427033Y-119526641D02*
X150284176Y-119574260D01*
X150284176Y-119574260D02*
X150046081Y-119574260D01*
X150950843Y-118574260D02*
X151569890Y-118574260D01*
X151569890Y-118574260D02*
X151236557Y-118955212D01*
X151236557Y-118955212D02*
X151379414Y-118955212D01*
X151379414Y-118955212D02*
X151474652Y-119002831D01*
X151474652Y-119002831D02*
X151522271Y-119050450D01*
X151522271Y-119050450D02*
X151569890Y-119145688D01*
X151569890Y-119145688D02*
X151569890Y-119383783D01*
X151569890Y-119383783D02*
X151522271Y-119479021D01*
X151522271Y-119479021D02*
X151474652Y-119526641D01*
X151474652Y-119526641D02*
X151379414Y-119574260D01*
X151379414Y-119574260D02*
X151093700Y-119574260D01*
X151093700Y-119574260D02*
X150998462Y-119526641D01*
X150998462Y-119526641D02*
X150950843Y-119479021D01*
X151903224Y-118574260D02*
X152569890Y-118574260D01*
X152569890Y-118574260D02*
X152141319Y-119574260D01*
X146429459Y-45945945D02*
X146429459Y-44945945D01*
X146429459Y-44945945D02*
X146667554Y-44945945D01*
X146667554Y-44945945D02*
X146810411Y-44993564D01*
X146810411Y-44993564D02*
X146905649Y-45088802D01*
X146905649Y-45088802D02*
X146953268Y-45184040D01*
X146953268Y-45184040D02*
X147000887Y-45374516D01*
X147000887Y-45374516D02*
X147000887Y-45517373D01*
X147000887Y-45517373D02*
X146953268Y-45707849D01*
X146953268Y-45707849D02*
X146905649Y-45803087D01*
X146905649Y-45803087D02*
X146810411Y-45898326D01*
X146810411Y-45898326D02*
X146667554Y-45945945D01*
X146667554Y-45945945D02*
X146429459Y-45945945D01*
X147858030Y-44945945D02*
X147667554Y-44945945D01*
X147667554Y-44945945D02*
X147572316Y-44993564D01*
X147572316Y-44993564D02*
X147524697Y-45041183D01*
X147524697Y-45041183D02*
X147429459Y-45184040D01*
X147429459Y-45184040D02*
X147381840Y-45374516D01*
X147381840Y-45374516D02*
X147381840Y-45755468D01*
X147381840Y-45755468D02*
X147429459Y-45850706D01*
X147429459Y-45850706D02*
X147477078Y-45898326D01*
X147477078Y-45898326D02*
X147572316Y-45945945D01*
X147572316Y-45945945D02*
X147762792Y-45945945D01*
X147762792Y-45945945D02*
X147858030Y-45898326D01*
X147858030Y-45898326D02*
X147905649Y-45850706D01*
X147905649Y-45850706D02*
X147953268Y-45755468D01*
X147953268Y-45755468D02*
X147953268Y-45517373D01*
X147953268Y-45517373D02*
X147905649Y-45422135D01*
X147905649Y-45422135D02*
X147858030Y-45374516D01*
X147858030Y-45374516D02*
X147762792Y-45326897D01*
X147762792Y-45326897D02*
X147572316Y-45326897D01*
X147572316Y-45326897D02*
X147477078Y-45374516D01*
X147477078Y-45374516D02*
X147429459Y-45422135D01*
X147429459Y-45422135D02*
X147381840Y-45517373D01*
X159544947Y-81474260D02*
X159544947Y-80474260D01*
X159544947Y-80474260D02*
X159783042Y-80474260D01*
X159783042Y-80474260D02*
X159925899Y-80521879D01*
X159925899Y-80521879D02*
X160021137Y-80617117D01*
X160021137Y-80617117D02*
X160068756Y-80712355D01*
X160068756Y-80712355D02*
X160116375Y-80902831D01*
X160116375Y-80902831D02*
X160116375Y-81045688D01*
X160116375Y-81045688D02*
X160068756Y-81236164D01*
X160068756Y-81236164D02*
X160021137Y-81331402D01*
X160021137Y-81331402D02*
X159925899Y-81426641D01*
X159925899Y-81426641D02*
X159783042Y-81474260D01*
X159783042Y-81474260D02*
X159544947Y-81474260D01*
X160497328Y-80569498D02*
X160544947Y-80521879D01*
X160544947Y-80521879D02*
X160640185Y-80474260D01*
X160640185Y-80474260D02*
X160878280Y-80474260D01*
X160878280Y-80474260D02*
X160973518Y-80521879D01*
X160973518Y-80521879D02*
X161021137Y-80569498D01*
X161021137Y-80569498D02*
X161068756Y-80664736D01*
X161068756Y-80664736D02*
X161068756Y-80759974D01*
X161068756Y-80759974D02*
X161021137Y-80902831D01*
X161021137Y-80902831D02*
X160449709Y-81474260D01*
X160449709Y-81474260D02*
X161068756Y-81474260D01*
X161925899Y-80807593D02*
X161925899Y-81474260D01*
X161687804Y-80426641D02*
X161449709Y-81140926D01*
X161449709Y-81140926D02*
X162068756Y-81140926D01*
X160112666Y-72987819D02*
X160112666Y-73702104D01*
X160112666Y-73702104D02*
X160065047Y-73844961D01*
X160065047Y-73844961D02*
X159969809Y-73940200D01*
X159969809Y-73940200D02*
X159826952Y-73987819D01*
X159826952Y-73987819D02*
X159731714Y-73987819D01*
X160588857Y-73987819D02*
X160588857Y-72987819D01*
X160588857Y-72987819D02*
X160969809Y-72987819D01*
X160969809Y-72987819D02*
X161065047Y-73035438D01*
X161065047Y-73035438D02*
X161112666Y-73083057D01*
X161112666Y-73083057D02*
X161160285Y-73178295D01*
X161160285Y-73178295D02*
X161160285Y-73321152D01*
X161160285Y-73321152D02*
X161112666Y-73416390D01*
X161112666Y-73416390D02*
X161065047Y-73464009D01*
X161065047Y-73464009D02*
X160969809Y-73511628D01*
X160969809Y-73511628D02*
X160588857Y-73511628D01*
X162112666Y-73987819D02*
X161541238Y-73987819D01*
X161826952Y-73987819D02*
X161826952Y-72987819D01*
X161826952Y-72987819D02*
X161731714Y-73130676D01*
X161731714Y-73130676D02*
X161636476Y-73225914D01*
X161636476Y-73225914D02*
X161541238Y-73273533D01*
X159544947Y-119574260D02*
X159544947Y-118574260D01*
X159544947Y-118574260D02*
X159783042Y-118574260D01*
X159783042Y-118574260D02*
X159925899Y-118621879D01*
X159925899Y-118621879D02*
X160021137Y-118717117D01*
X160021137Y-118717117D02*
X160068756Y-118812355D01*
X160068756Y-118812355D02*
X160116375Y-119002831D01*
X160116375Y-119002831D02*
X160116375Y-119145688D01*
X160116375Y-119145688D02*
X160068756Y-119336164D01*
X160068756Y-119336164D02*
X160021137Y-119431402D01*
X160021137Y-119431402D02*
X159925899Y-119526641D01*
X159925899Y-119526641D02*
X159783042Y-119574260D01*
X159783042Y-119574260D02*
X159544947Y-119574260D01*
X160449709Y-118574260D02*
X161068756Y-118574260D01*
X161068756Y-118574260D02*
X160735423Y-118955212D01*
X160735423Y-118955212D02*
X160878280Y-118955212D01*
X160878280Y-118955212D02*
X160973518Y-119002831D01*
X160973518Y-119002831D02*
X161021137Y-119050450D01*
X161021137Y-119050450D02*
X161068756Y-119145688D01*
X161068756Y-119145688D02*
X161068756Y-119383783D01*
X161068756Y-119383783D02*
X161021137Y-119479021D01*
X161021137Y-119479021D02*
X160973518Y-119526641D01*
X160973518Y-119526641D02*
X160878280Y-119574260D01*
X160878280Y-119574260D02*
X160592566Y-119574260D01*
X160592566Y-119574260D02*
X160497328Y-119526641D01*
X160497328Y-119526641D02*
X160449709Y-119479021D01*
X161544947Y-119574260D02*
X161735423Y-119574260D01*
X161735423Y-119574260D02*
X161830661Y-119526641D01*
X161830661Y-119526641D02*
X161878280Y-119479021D01*
X161878280Y-119479021D02*
X161973518Y-119336164D01*
X161973518Y-119336164D02*
X162021137Y-119145688D01*
X162021137Y-119145688D02*
X162021137Y-118764736D01*
X162021137Y-118764736D02*
X161973518Y-118669498D01*
X161973518Y-118669498D02*
X161925899Y-118621879D01*
X161925899Y-118621879D02*
X161830661Y-118574260D01*
X161830661Y-118574260D02*
X161640185Y-118574260D01*
X161640185Y-118574260D02*
X161544947Y-118621879D01*
X161544947Y-118621879D02*
X161497328Y-118669498D01*
X161497328Y-118669498D02*
X161449709Y-118764736D01*
X161449709Y-118764736D02*
X161449709Y-119002831D01*
X161449709Y-119002831D02*
X161497328Y-119098069D01*
X161497328Y-119098069D02*
X161544947Y-119145688D01*
X161544947Y-119145688D02*
X161640185Y-119193307D01*
X161640185Y-119193307D02*
X161830661Y-119193307D01*
X161830661Y-119193307D02*
X161925899Y-119145688D01*
X161925899Y-119145688D02*
X161973518Y-119098069D01*
X161973518Y-119098069D02*
X162021137Y-119002831D01*
X167759163Y-54504128D02*
X167759163Y-53504128D01*
X167759163Y-53504128D02*
X167997258Y-53504128D01*
X167997258Y-53504128D02*
X168140115Y-53551747D01*
X168140115Y-53551747D02*
X168235353Y-53646985D01*
X168235353Y-53646985D02*
X168282972Y-53742223D01*
X168282972Y-53742223D02*
X168330591Y-53932699D01*
X168330591Y-53932699D02*
X168330591Y-54075556D01*
X168330591Y-54075556D02*
X168282972Y-54266032D01*
X168282972Y-54266032D02*
X168235353Y-54361270D01*
X168235353Y-54361270D02*
X168140115Y-54456509D01*
X168140115Y-54456509D02*
X167997258Y-54504128D01*
X167997258Y-54504128D02*
X167759163Y-54504128D01*
X169282972Y-54504128D02*
X168711544Y-54504128D01*
X168997258Y-54504128D02*
X168997258Y-53504128D01*
X168997258Y-53504128D02*
X168902020Y-53646985D01*
X168902020Y-53646985D02*
X168806782Y-53742223D01*
X168806782Y-53742223D02*
X168711544Y-53789842D01*
X169663925Y-53599366D02*
X169711544Y-53551747D01*
X169711544Y-53551747D02*
X169806782Y-53504128D01*
X169806782Y-53504128D02*
X170044877Y-53504128D01*
X170044877Y-53504128D02*
X170140115Y-53551747D01*
X170140115Y-53551747D02*
X170187734Y-53599366D01*
X170187734Y-53599366D02*
X170235353Y-53694604D01*
X170235353Y-53694604D02*
X170235353Y-53789842D01*
X170235353Y-53789842D02*
X170187734Y-53932699D01*
X170187734Y-53932699D02*
X169616306Y-54504128D01*
X169616306Y-54504128D02*
X170235353Y-54504128D01*
X160021138Y-43374260D02*
X160021138Y-42374260D01*
X160021138Y-42374260D02*
X160259233Y-42374260D01*
X160259233Y-42374260D02*
X160402090Y-42421879D01*
X160402090Y-42421879D02*
X160497328Y-42517117D01*
X160497328Y-42517117D02*
X160544947Y-42612355D01*
X160544947Y-42612355D02*
X160592566Y-42802831D01*
X160592566Y-42802831D02*
X160592566Y-42945688D01*
X160592566Y-42945688D02*
X160544947Y-43136164D01*
X160544947Y-43136164D02*
X160497328Y-43231402D01*
X160497328Y-43231402D02*
X160402090Y-43326641D01*
X160402090Y-43326641D02*
X160259233Y-43374260D01*
X160259233Y-43374260D02*
X160021138Y-43374260D01*
X161068757Y-43374260D02*
X161259233Y-43374260D01*
X161259233Y-43374260D02*
X161354471Y-43326641D01*
X161354471Y-43326641D02*
X161402090Y-43279021D01*
X161402090Y-43279021D02*
X161497328Y-43136164D01*
X161497328Y-43136164D02*
X161544947Y-42945688D01*
X161544947Y-42945688D02*
X161544947Y-42564736D01*
X161544947Y-42564736D02*
X161497328Y-42469498D01*
X161497328Y-42469498D02*
X161449709Y-42421879D01*
X161449709Y-42421879D02*
X161354471Y-42374260D01*
X161354471Y-42374260D02*
X161163995Y-42374260D01*
X161163995Y-42374260D02*
X161068757Y-42421879D01*
X161068757Y-42421879D02*
X161021138Y-42469498D01*
X161021138Y-42469498D02*
X160973519Y-42564736D01*
X160973519Y-42564736D02*
X160973519Y-42802831D01*
X160973519Y-42802831D02*
X161021138Y-42898069D01*
X161021138Y-42898069D02*
X161068757Y-42945688D01*
X161068757Y-42945688D02*
X161163995Y-42993307D01*
X161163995Y-42993307D02*
X161354471Y-42993307D01*
X161354471Y-42993307D02*
X161449709Y-42945688D01*
X161449709Y-42945688D02*
X161497328Y-42898069D01*
X161497328Y-42898069D02*
X161544947Y-42802831D01*
X161295514Y-104833949D02*
X161295514Y-103833949D01*
X161295514Y-103833949D02*
X161533609Y-103833949D01*
X161533609Y-103833949D02*
X161676466Y-103881568D01*
X161676466Y-103881568D02*
X161771704Y-103976806D01*
X161771704Y-103976806D02*
X161819323Y-104072044D01*
X161819323Y-104072044D02*
X161866942Y-104262520D01*
X161866942Y-104262520D02*
X161866942Y-104405377D01*
X161866942Y-104405377D02*
X161819323Y-104595853D01*
X161819323Y-104595853D02*
X161771704Y-104691091D01*
X161771704Y-104691091D02*
X161676466Y-104786330D01*
X161676466Y-104786330D02*
X161533609Y-104833949D01*
X161533609Y-104833949D02*
X161295514Y-104833949D01*
X162200276Y-103833949D02*
X162819323Y-103833949D01*
X162819323Y-103833949D02*
X162485990Y-104214901D01*
X162485990Y-104214901D02*
X162628847Y-104214901D01*
X162628847Y-104214901D02*
X162724085Y-104262520D01*
X162724085Y-104262520D02*
X162771704Y-104310139D01*
X162771704Y-104310139D02*
X162819323Y-104405377D01*
X162819323Y-104405377D02*
X162819323Y-104643472D01*
X162819323Y-104643472D02*
X162771704Y-104738710D01*
X162771704Y-104738710D02*
X162724085Y-104786330D01*
X162724085Y-104786330D02*
X162628847Y-104833949D01*
X162628847Y-104833949D02*
X162343133Y-104833949D01*
X162343133Y-104833949D02*
X162247895Y-104786330D01*
X162247895Y-104786330D02*
X162200276Y-104738710D01*
X163438371Y-103833949D02*
X163533609Y-103833949D01*
X163533609Y-103833949D02*
X163628847Y-103881568D01*
X163628847Y-103881568D02*
X163676466Y-103929187D01*
X163676466Y-103929187D02*
X163724085Y-104024425D01*
X163724085Y-104024425D02*
X163771704Y-104214901D01*
X163771704Y-104214901D02*
X163771704Y-104452996D01*
X163771704Y-104452996D02*
X163724085Y-104643472D01*
X163724085Y-104643472D02*
X163676466Y-104738710D01*
X163676466Y-104738710D02*
X163628847Y-104786330D01*
X163628847Y-104786330D02*
X163533609Y-104833949D01*
X163533609Y-104833949D02*
X163438371Y-104833949D01*
X163438371Y-104833949D02*
X163343133Y-104786330D01*
X163343133Y-104786330D02*
X163295514Y-104738710D01*
X163295514Y-104738710D02*
X163247895Y-104643472D01*
X163247895Y-104643472D02*
X163200276Y-104452996D01*
X163200276Y-104452996D02*
X163200276Y-104214901D01*
X163200276Y-104214901D02*
X163247895Y-104024425D01*
X163247895Y-104024425D02*
X163295514Y-103929187D01*
X163295514Y-103929187D02*
X163343133Y-103881568D01*
X163343133Y-103881568D02*
X163438371Y-103833949D01*
X163637760Y-84045945D02*
X163637760Y-83045945D01*
X163637760Y-83045945D02*
X163875855Y-83045945D01*
X163875855Y-83045945D02*
X164018712Y-83093564D01*
X164018712Y-83093564D02*
X164113950Y-83188802D01*
X164113950Y-83188802D02*
X164161569Y-83284040D01*
X164161569Y-83284040D02*
X164209188Y-83474516D01*
X164209188Y-83474516D02*
X164209188Y-83617373D01*
X164209188Y-83617373D02*
X164161569Y-83807849D01*
X164161569Y-83807849D02*
X164113950Y-83903087D01*
X164113950Y-83903087D02*
X164018712Y-83998326D01*
X164018712Y-83998326D02*
X163875855Y-84045945D01*
X163875855Y-84045945D02*
X163637760Y-84045945D01*
X164590141Y-83141183D02*
X164637760Y-83093564D01*
X164637760Y-83093564D02*
X164732998Y-83045945D01*
X164732998Y-83045945D02*
X164971093Y-83045945D01*
X164971093Y-83045945D02*
X165066331Y-83093564D01*
X165066331Y-83093564D02*
X165113950Y-83141183D01*
X165113950Y-83141183D02*
X165161569Y-83236421D01*
X165161569Y-83236421D02*
X165161569Y-83331659D01*
X165161569Y-83331659D02*
X165113950Y-83474516D01*
X165113950Y-83474516D02*
X164542522Y-84045945D01*
X164542522Y-84045945D02*
X165161569Y-84045945D01*
X166066331Y-83045945D02*
X165590141Y-83045945D01*
X165590141Y-83045945D02*
X165542522Y-83522135D01*
X165542522Y-83522135D02*
X165590141Y-83474516D01*
X165590141Y-83474516D02*
X165685379Y-83426897D01*
X165685379Y-83426897D02*
X165923474Y-83426897D01*
X165923474Y-83426897D02*
X166018712Y-83474516D01*
X166018712Y-83474516D02*
X166066331Y-83522135D01*
X166066331Y-83522135D02*
X166113950Y-83617373D01*
X166113950Y-83617373D02*
X166113950Y-83855468D01*
X166113950Y-83855468D02*
X166066331Y-83950706D01*
X166066331Y-83950706D02*
X166018712Y-83998326D01*
X166018712Y-83998326D02*
X165923474Y-84045945D01*
X165923474Y-84045945D02*
X165685379Y-84045945D01*
X165685379Y-84045945D02*
X165590141Y-83998326D01*
X165590141Y-83998326D02*
X165542522Y-83950706D01*
X157988095Y-75400819D02*
X157988095Y-76210342D01*
X157988095Y-76210342D02*
X158035714Y-76305580D01*
X158035714Y-76305580D02*
X158083333Y-76353200D01*
X158083333Y-76353200D02*
X158178571Y-76400819D01*
X158178571Y-76400819D02*
X158369047Y-76400819D01*
X158369047Y-76400819D02*
X158464285Y-76353200D01*
X158464285Y-76353200D02*
X158511904Y-76305580D01*
X158511904Y-76305580D02*
X158559523Y-76210342D01*
X158559523Y-76210342D02*
X158559523Y-75400819D01*
X159559523Y-76400819D02*
X158988095Y-76400819D01*
X159273809Y-76400819D02*
X159273809Y-75400819D01*
X159273809Y-75400819D02*
X159178571Y-75543676D01*
X159178571Y-75543676D02*
X159083333Y-75638914D01*
X159083333Y-75638914D02*
X158988095Y-75686533D01*
X150522272Y-43374260D02*
X150522272Y-42374260D01*
X150522272Y-42374260D02*
X150760367Y-42374260D01*
X150760367Y-42374260D02*
X150903224Y-42421879D01*
X150903224Y-42421879D02*
X150998462Y-42517117D01*
X150998462Y-42517117D02*
X151046081Y-42612355D01*
X151046081Y-42612355D02*
X151093700Y-42802831D01*
X151093700Y-42802831D02*
X151093700Y-42945688D01*
X151093700Y-42945688D02*
X151046081Y-43136164D01*
X151046081Y-43136164D02*
X150998462Y-43231402D01*
X150998462Y-43231402D02*
X150903224Y-43326641D01*
X150903224Y-43326641D02*
X150760367Y-43374260D01*
X150760367Y-43374260D02*
X150522272Y-43374260D01*
X151427034Y-42374260D02*
X152093700Y-42374260D01*
X152093700Y-42374260D02*
X151665129Y-43374260D01*
X144631705Y-139780986D02*
X144631705Y-138780986D01*
X144631705Y-138780986D02*
X144869800Y-138780986D01*
X144869800Y-138780986D02*
X145012657Y-138828605D01*
X145012657Y-138828605D02*
X145107895Y-138923843D01*
X145107895Y-138923843D02*
X145155514Y-139019081D01*
X145155514Y-139019081D02*
X145203133Y-139209557D01*
X145203133Y-139209557D02*
X145203133Y-139352414D01*
X145203133Y-139352414D02*
X145155514Y-139542890D01*
X145155514Y-139542890D02*
X145107895Y-139638128D01*
X145107895Y-139638128D02*
X145012657Y-139733367D01*
X145012657Y-139733367D02*
X144869800Y-139780986D01*
X144869800Y-139780986D02*
X144631705Y-139780986D01*
X145536467Y-138780986D02*
X146155514Y-138780986D01*
X146155514Y-138780986D02*
X145822181Y-139161938D01*
X145822181Y-139161938D02*
X145965038Y-139161938D01*
X145965038Y-139161938D02*
X146060276Y-139209557D01*
X146060276Y-139209557D02*
X146107895Y-139257176D01*
X146107895Y-139257176D02*
X146155514Y-139352414D01*
X146155514Y-139352414D02*
X146155514Y-139590509D01*
X146155514Y-139590509D02*
X146107895Y-139685747D01*
X146107895Y-139685747D02*
X146060276Y-139733367D01*
X146060276Y-139733367D02*
X145965038Y-139780986D01*
X145965038Y-139780986D02*
X145679324Y-139780986D01*
X145679324Y-139780986D02*
X145584086Y-139733367D01*
X145584086Y-139733367D02*
X145536467Y-139685747D01*
X146536467Y-138876224D02*
X146584086Y-138828605D01*
X146584086Y-138828605D02*
X146679324Y-138780986D01*
X146679324Y-138780986D02*
X146917419Y-138780986D01*
X146917419Y-138780986D02*
X147012657Y-138828605D01*
X147012657Y-138828605D02*
X147060276Y-138876224D01*
X147060276Y-138876224D02*
X147107895Y-138971462D01*
X147107895Y-138971462D02*
X147107895Y-139066700D01*
X147107895Y-139066700D02*
X147060276Y-139209557D01*
X147060276Y-139209557D02*
X146488848Y-139780986D01*
X146488848Y-139780986D02*
X147107895Y-139780986D01*
X143082919Y-87935130D02*
X143082919Y-86935130D01*
X143082919Y-86935130D02*
X143321014Y-86935130D01*
X143321014Y-86935130D02*
X143463871Y-86982749D01*
X143463871Y-86982749D02*
X143559109Y-87077987D01*
X143559109Y-87077987D02*
X143606728Y-87173225D01*
X143606728Y-87173225D02*
X143654347Y-87363701D01*
X143654347Y-87363701D02*
X143654347Y-87506558D01*
X143654347Y-87506558D02*
X143606728Y-87697034D01*
X143606728Y-87697034D02*
X143559109Y-87792272D01*
X143559109Y-87792272D02*
X143463871Y-87887511D01*
X143463871Y-87887511D02*
X143321014Y-87935130D01*
X143321014Y-87935130D02*
X143082919Y-87935130D01*
X144035300Y-87030368D02*
X144082919Y-86982749D01*
X144082919Y-86982749D02*
X144178157Y-86935130D01*
X144178157Y-86935130D02*
X144416252Y-86935130D01*
X144416252Y-86935130D02*
X144511490Y-86982749D01*
X144511490Y-86982749D02*
X144559109Y-87030368D01*
X144559109Y-87030368D02*
X144606728Y-87125606D01*
X144606728Y-87125606D02*
X144606728Y-87220844D01*
X144606728Y-87220844D02*
X144559109Y-87363701D01*
X144559109Y-87363701D02*
X143987681Y-87935130D01*
X143987681Y-87935130D02*
X144606728Y-87935130D01*
X145225776Y-86935130D02*
X145321014Y-86935130D01*
X145321014Y-86935130D02*
X145416252Y-86982749D01*
X145416252Y-86982749D02*
X145463871Y-87030368D01*
X145463871Y-87030368D02*
X145511490Y-87125606D01*
X145511490Y-87125606D02*
X145559109Y-87316082D01*
X145559109Y-87316082D02*
X145559109Y-87554177D01*
X145559109Y-87554177D02*
X145511490Y-87744653D01*
X145511490Y-87744653D02*
X145463871Y-87839891D01*
X145463871Y-87839891D02*
X145416252Y-87887511D01*
X145416252Y-87887511D02*
X145321014Y-87935130D01*
X145321014Y-87935130D02*
X145225776Y-87935130D01*
X145225776Y-87935130D02*
X145130538Y-87887511D01*
X145130538Y-87887511D02*
X145082919Y-87839891D01*
X145082919Y-87839891D02*
X145035300Y-87744653D01*
X145035300Y-87744653D02*
X144987681Y-87554177D01*
X144987681Y-87554177D02*
X144987681Y-87316082D01*
X144987681Y-87316082D02*
X145035300Y-87125606D01*
X145035300Y-87125606D02*
X145082919Y-87030368D01*
X145082919Y-87030368D02*
X145130538Y-86982749D01*
X145130538Y-86982749D02*
X145225776Y-86935130D01*
X167759163Y-92604128D02*
X167759163Y-91604128D01*
X167759163Y-91604128D02*
X167997258Y-91604128D01*
X167997258Y-91604128D02*
X168140115Y-91651747D01*
X168140115Y-91651747D02*
X168235353Y-91746985D01*
X168235353Y-91746985D02*
X168282972Y-91842223D01*
X168282972Y-91842223D02*
X168330591Y-92032699D01*
X168330591Y-92032699D02*
X168330591Y-92175556D01*
X168330591Y-92175556D02*
X168282972Y-92366032D01*
X168282972Y-92366032D02*
X168235353Y-92461270D01*
X168235353Y-92461270D02*
X168140115Y-92556509D01*
X168140115Y-92556509D02*
X167997258Y-92604128D01*
X167997258Y-92604128D02*
X167759163Y-92604128D01*
X168711544Y-91699366D02*
X168759163Y-91651747D01*
X168759163Y-91651747D02*
X168854401Y-91604128D01*
X168854401Y-91604128D02*
X169092496Y-91604128D01*
X169092496Y-91604128D02*
X169187734Y-91651747D01*
X169187734Y-91651747D02*
X169235353Y-91699366D01*
X169235353Y-91699366D02*
X169282972Y-91794604D01*
X169282972Y-91794604D02*
X169282972Y-91889842D01*
X169282972Y-91889842D02*
X169235353Y-92032699D01*
X169235353Y-92032699D02*
X168663925Y-92604128D01*
X168663925Y-92604128D02*
X169282972Y-92604128D01*
X169616306Y-91604128D02*
X170282972Y-91604128D01*
X170282972Y-91604128D02*
X169854401Y-92604128D01*
X142373068Y-135507436D02*
X142373068Y-134507436D01*
X142373068Y-134507436D02*
X142611163Y-134507436D01*
X142611163Y-134507436D02*
X142754020Y-134555055D01*
X142754020Y-134555055D02*
X142849258Y-134650293D01*
X142849258Y-134650293D02*
X142896877Y-134745531D01*
X142896877Y-134745531D02*
X142944496Y-134936007D01*
X142944496Y-134936007D02*
X142944496Y-135078864D01*
X142944496Y-135078864D02*
X142896877Y-135269340D01*
X142896877Y-135269340D02*
X142849258Y-135364578D01*
X142849258Y-135364578D02*
X142754020Y-135459817D01*
X142754020Y-135459817D02*
X142611163Y-135507436D01*
X142611163Y-135507436D02*
X142373068Y-135507436D01*
X143277830Y-134507436D02*
X143896877Y-134507436D01*
X143896877Y-134507436D02*
X143563544Y-134888388D01*
X143563544Y-134888388D02*
X143706401Y-134888388D01*
X143706401Y-134888388D02*
X143801639Y-134936007D01*
X143801639Y-134936007D02*
X143849258Y-134983626D01*
X143849258Y-134983626D02*
X143896877Y-135078864D01*
X143896877Y-135078864D02*
X143896877Y-135316959D01*
X143896877Y-135316959D02*
X143849258Y-135412197D01*
X143849258Y-135412197D02*
X143801639Y-135459817D01*
X143801639Y-135459817D02*
X143706401Y-135507436D01*
X143706401Y-135507436D02*
X143420687Y-135507436D01*
X143420687Y-135507436D02*
X143325449Y-135459817D01*
X143325449Y-135459817D02*
X143277830Y-135412197D01*
X144230211Y-134507436D02*
X144849258Y-134507436D01*
X144849258Y-134507436D02*
X144515925Y-134888388D01*
X144515925Y-134888388D02*
X144658782Y-134888388D01*
X144658782Y-134888388D02*
X144754020Y-134936007D01*
X144754020Y-134936007D02*
X144801639Y-134983626D01*
X144801639Y-134983626D02*
X144849258Y-135078864D01*
X144849258Y-135078864D02*
X144849258Y-135316959D01*
X144849258Y-135316959D02*
X144801639Y-135412197D01*
X144801639Y-135412197D02*
X144754020Y-135459817D01*
X144754020Y-135459817D02*
X144658782Y-135507436D01*
X144658782Y-135507436D02*
X144373068Y-135507436D01*
X144373068Y-135507436D02*
X144277830Y-135459817D01*
X144277830Y-135459817D02*
X144230211Y-135412197D01*
X154795514Y-118675619D02*
X154795514Y-117675619D01*
X154795514Y-117675619D02*
X155033609Y-117675619D01*
X155033609Y-117675619D02*
X155176466Y-117723238D01*
X155176466Y-117723238D02*
X155271704Y-117818476D01*
X155271704Y-117818476D02*
X155319323Y-117913714D01*
X155319323Y-117913714D02*
X155366942Y-118104190D01*
X155366942Y-118104190D02*
X155366942Y-118247047D01*
X155366942Y-118247047D02*
X155319323Y-118437523D01*
X155319323Y-118437523D02*
X155271704Y-118532761D01*
X155271704Y-118532761D02*
X155176466Y-118628000D01*
X155176466Y-118628000D02*
X155033609Y-118675619D01*
X155033609Y-118675619D02*
X154795514Y-118675619D01*
X155700276Y-117675619D02*
X156319323Y-117675619D01*
X156319323Y-117675619D02*
X155985990Y-118056571D01*
X155985990Y-118056571D02*
X156128847Y-118056571D01*
X156128847Y-118056571D02*
X156224085Y-118104190D01*
X156224085Y-118104190D02*
X156271704Y-118151809D01*
X156271704Y-118151809D02*
X156319323Y-118247047D01*
X156319323Y-118247047D02*
X156319323Y-118485142D01*
X156319323Y-118485142D02*
X156271704Y-118580380D01*
X156271704Y-118580380D02*
X156224085Y-118628000D01*
X156224085Y-118628000D02*
X156128847Y-118675619D01*
X156128847Y-118675619D02*
X155843133Y-118675619D01*
X155843133Y-118675619D02*
X155747895Y-118628000D01*
X155747895Y-118628000D02*
X155700276Y-118580380D01*
X156890752Y-118104190D02*
X156795514Y-118056571D01*
X156795514Y-118056571D02*
X156747895Y-118008952D01*
X156747895Y-118008952D02*
X156700276Y-117913714D01*
X156700276Y-117913714D02*
X156700276Y-117866095D01*
X156700276Y-117866095D02*
X156747895Y-117770857D01*
X156747895Y-117770857D02*
X156795514Y-117723238D01*
X156795514Y-117723238D02*
X156890752Y-117675619D01*
X156890752Y-117675619D02*
X157081228Y-117675619D01*
X157081228Y-117675619D02*
X157176466Y-117723238D01*
X157176466Y-117723238D02*
X157224085Y-117770857D01*
X157224085Y-117770857D02*
X157271704Y-117866095D01*
X157271704Y-117866095D02*
X157271704Y-117913714D01*
X157271704Y-117913714D02*
X157224085Y-118008952D01*
X157224085Y-118008952D02*
X157176466Y-118056571D01*
X157176466Y-118056571D02*
X157081228Y-118104190D01*
X157081228Y-118104190D02*
X156890752Y-118104190D01*
X156890752Y-118104190D02*
X156795514Y-118151809D01*
X156795514Y-118151809D02*
X156747895Y-118199428D01*
X156747895Y-118199428D02*
X156700276Y-118294666D01*
X156700276Y-118294666D02*
X156700276Y-118485142D01*
X156700276Y-118485142D02*
X156747895Y-118580380D01*
X156747895Y-118580380D02*
X156795514Y-118628000D01*
X156795514Y-118628000D02*
X156890752Y-118675619D01*
X156890752Y-118675619D02*
X157081228Y-118675619D01*
X157081228Y-118675619D02*
X157176466Y-118628000D01*
X157176466Y-118628000D02*
X157224085Y-118580380D01*
X157224085Y-118580380D02*
X157271704Y-118485142D01*
X157271704Y-118485142D02*
X157271704Y-118294666D01*
X157271704Y-118294666D02*
X157224085Y-118199428D01*
X157224085Y-118199428D02*
X157176466Y-118151809D01*
X157176466Y-118151809D02*
X157081228Y-118104190D01*
X144631705Y-101680986D02*
X144631705Y-100680986D01*
X144631705Y-100680986D02*
X144869800Y-100680986D01*
X144869800Y-100680986D02*
X145012657Y-100728605D01*
X145012657Y-100728605D02*
X145107895Y-100823843D01*
X145107895Y-100823843D02*
X145155514Y-100919081D01*
X145155514Y-100919081D02*
X145203133Y-101109557D01*
X145203133Y-101109557D02*
X145203133Y-101252414D01*
X145203133Y-101252414D02*
X145155514Y-101442890D01*
X145155514Y-101442890D02*
X145107895Y-101538128D01*
X145107895Y-101538128D02*
X145012657Y-101633367D01*
X145012657Y-101633367D02*
X144869800Y-101680986D01*
X144869800Y-101680986D02*
X144631705Y-101680986D01*
X146155514Y-101680986D02*
X145584086Y-101680986D01*
X145869800Y-101680986D02*
X145869800Y-100680986D01*
X145869800Y-100680986D02*
X145774562Y-100823843D01*
X145774562Y-100823843D02*
X145679324Y-100919081D01*
X145679324Y-100919081D02*
X145584086Y-100966700D01*
X146488848Y-100680986D02*
X147155514Y-100680986D01*
X147155514Y-100680986D02*
X146726943Y-101680986D01*
X167217960Y-59307436D02*
X167217960Y-58307436D01*
X167217960Y-58307436D02*
X167456055Y-58307436D01*
X167456055Y-58307436D02*
X167598912Y-58355055D01*
X167598912Y-58355055D02*
X167694150Y-58450293D01*
X167694150Y-58450293D02*
X167741769Y-58545531D01*
X167741769Y-58545531D02*
X167789388Y-58736007D01*
X167789388Y-58736007D02*
X167789388Y-58878864D01*
X167789388Y-58878864D02*
X167741769Y-59069340D01*
X167741769Y-59069340D02*
X167694150Y-59164578D01*
X167694150Y-59164578D02*
X167598912Y-59259817D01*
X167598912Y-59259817D02*
X167456055Y-59307436D01*
X167456055Y-59307436D02*
X167217960Y-59307436D01*
X168741769Y-59307436D02*
X168170341Y-59307436D01*
X168456055Y-59307436D02*
X168456055Y-58307436D01*
X168456055Y-58307436D02*
X168360817Y-58450293D01*
X168360817Y-58450293D02*
X168265579Y-58545531D01*
X168265579Y-58545531D02*
X168170341Y-58593150D01*
X169075103Y-58307436D02*
X169694150Y-58307436D01*
X169694150Y-58307436D02*
X169360817Y-58688388D01*
X169360817Y-58688388D02*
X169503674Y-58688388D01*
X169503674Y-58688388D02*
X169598912Y-58736007D01*
X169598912Y-58736007D02*
X169646531Y-58783626D01*
X169646531Y-58783626D02*
X169694150Y-58878864D01*
X169694150Y-58878864D02*
X169694150Y-59116959D01*
X169694150Y-59116959D02*
X169646531Y-59212197D01*
X169646531Y-59212197D02*
X169598912Y-59259817D01*
X169598912Y-59259817D02*
X169503674Y-59307436D01*
X169503674Y-59307436D02*
X169217960Y-59307436D01*
X169217960Y-59307436D02*
X169122722Y-59259817D01*
X169122722Y-59259817D02*
X169075103Y-59212197D01*
X143559110Y-49835130D02*
X143559110Y-48835130D01*
X143559110Y-48835130D02*
X143797205Y-48835130D01*
X143797205Y-48835130D02*
X143940062Y-48882749D01*
X143940062Y-48882749D02*
X144035300Y-48977987D01*
X144035300Y-48977987D02*
X144082919Y-49073225D01*
X144082919Y-49073225D02*
X144130538Y-49263701D01*
X144130538Y-49263701D02*
X144130538Y-49406558D01*
X144130538Y-49406558D02*
X144082919Y-49597034D01*
X144082919Y-49597034D02*
X144035300Y-49692272D01*
X144035300Y-49692272D02*
X143940062Y-49787511D01*
X143940062Y-49787511D02*
X143797205Y-49835130D01*
X143797205Y-49835130D02*
X143559110Y-49835130D01*
X145035300Y-48835130D02*
X144559110Y-48835130D01*
X144559110Y-48835130D02*
X144511491Y-49311320D01*
X144511491Y-49311320D02*
X144559110Y-49263701D01*
X144559110Y-49263701D02*
X144654348Y-49216082D01*
X144654348Y-49216082D02*
X144892443Y-49216082D01*
X144892443Y-49216082D02*
X144987681Y-49263701D01*
X144987681Y-49263701D02*
X145035300Y-49311320D01*
X145035300Y-49311320D02*
X145082919Y-49406558D01*
X145082919Y-49406558D02*
X145082919Y-49644653D01*
X145082919Y-49644653D02*
X145035300Y-49739891D01*
X145035300Y-49739891D02*
X144987681Y-49787511D01*
X144987681Y-49787511D02*
X144892443Y-49835130D01*
X144892443Y-49835130D02*
X144654348Y-49835130D01*
X144654348Y-49835130D02*
X144559110Y-49787511D01*
X144559110Y-49787511D02*
X144511491Y-49739891D01*
X167759163Y-130704128D02*
X167759163Y-129704128D01*
X167759163Y-129704128D02*
X167997258Y-129704128D01*
X167997258Y-129704128D02*
X168140115Y-129751747D01*
X168140115Y-129751747D02*
X168235353Y-129846985D01*
X168235353Y-129846985D02*
X168282972Y-129942223D01*
X168282972Y-129942223D02*
X168330591Y-130132699D01*
X168330591Y-130132699D02*
X168330591Y-130275556D01*
X168330591Y-130275556D02*
X168282972Y-130466032D01*
X168282972Y-130466032D02*
X168235353Y-130561270D01*
X168235353Y-130561270D02*
X168140115Y-130656509D01*
X168140115Y-130656509D02*
X167997258Y-130704128D01*
X167997258Y-130704128D02*
X167759163Y-130704128D01*
X169187734Y-130037461D02*
X169187734Y-130704128D01*
X168949639Y-129656509D02*
X168711544Y-130370794D01*
X168711544Y-130370794D02*
X169330591Y-130370794D01*
X169663925Y-129799366D02*
X169711544Y-129751747D01*
X169711544Y-129751747D02*
X169806782Y-129704128D01*
X169806782Y-129704128D02*
X170044877Y-129704128D01*
X170044877Y-129704128D02*
X170140115Y-129751747D01*
X170140115Y-129751747D02*
X170187734Y-129799366D01*
X170187734Y-129799366D02*
X170235353Y-129894604D01*
X170235353Y-129894604D02*
X170235353Y-129989842D01*
X170235353Y-129989842D02*
X170187734Y-130132699D01*
X170187734Y-130132699D02*
X169616306Y-130704128D01*
X169616306Y-130704128D02*
X170235353Y-130704128D01*
X141831865Y-92604128D02*
X141831865Y-91604128D01*
X141831865Y-91604128D02*
X142069960Y-91604128D01*
X142069960Y-91604128D02*
X142212817Y-91651747D01*
X142212817Y-91651747D02*
X142308055Y-91746985D01*
X142308055Y-91746985D02*
X142355674Y-91842223D01*
X142355674Y-91842223D02*
X142403293Y-92032699D01*
X142403293Y-92032699D02*
X142403293Y-92175556D01*
X142403293Y-92175556D02*
X142355674Y-92366032D01*
X142355674Y-92366032D02*
X142308055Y-92461270D01*
X142308055Y-92461270D02*
X142212817Y-92556509D01*
X142212817Y-92556509D02*
X142069960Y-92604128D01*
X142069960Y-92604128D02*
X141831865Y-92604128D01*
X143355674Y-92604128D02*
X142784246Y-92604128D01*
X143069960Y-92604128D02*
X143069960Y-91604128D01*
X143069960Y-91604128D02*
X142974722Y-91746985D01*
X142974722Y-91746985D02*
X142879484Y-91842223D01*
X142879484Y-91842223D02*
X142784246Y-91889842D01*
X143831865Y-92604128D02*
X144022341Y-92604128D01*
X144022341Y-92604128D02*
X144117579Y-92556509D01*
X144117579Y-92556509D02*
X144165198Y-92508889D01*
X144165198Y-92508889D02*
X144260436Y-92366032D01*
X144260436Y-92366032D02*
X144308055Y-92175556D01*
X144308055Y-92175556D02*
X144308055Y-91794604D01*
X144308055Y-91794604D02*
X144260436Y-91699366D01*
X144260436Y-91699366D02*
X144212817Y-91651747D01*
X144212817Y-91651747D02*
X144117579Y-91604128D01*
X144117579Y-91604128D02*
X143927103Y-91604128D01*
X143927103Y-91604128D02*
X143831865Y-91651747D01*
X143831865Y-91651747D02*
X143784246Y-91699366D01*
X143784246Y-91699366D02*
X143736627Y-91794604D01*
X143736627Y-91794604D02*
X143736627Y-92032699D01*
X143736627Y-92032699D02*
X143784246Y-92127937D01*
X143784246Y-92127937D02*
X143831865Y-92175556D01*
X143831865Y-92175556D02*
X143927103Y-92223175D01*
X143927103Y-92223175D02*
X144117579Y-92223175D01*
X144117579Y-92223175D02*
X144212817Y-92175556D01*
X144212817Y-92175556D02*
X144260436Y-92127937D01*
X144260436Y-92127937D02*
X144308055Y-92032699D01*
X163637760Y-45945945D02*
X163637760Y-44945945D01*
X163637760Y-44945945D02*
X163875855Y-44945945D01*
X163875855Y-44945945D02*
X164018712Y-44993564D01*
X164018712Y-44993564D02*
X164113950Y-45088802D01*
X164113950Y-45088802D02*
X164161569Y-45184040D01*
X164161569Y-45184040D02*
X164209188Y-45374516D01*
X164209188Y-45374516D02*
X164209188Y-45517373D01*
X164209188Y-45517373D02*
X164161569Y-45707849D01*
X164161569Y-45707849D02*
X164113950Y-45803087D01*
X164113950Y-45803087D02*
X164018712Y-45898326D01*
X164018712Y-45898326D02*
X163875855Y-45945945D01*
X163875855Y-45945945D02*
X163637760Y-45945945D01*
X165161569Y-45945945D02*
X164590141Y-45945945D01*
X164875855Y-45945945D02*
X164875855Y-44945945D01*
X164875855Y-44945945D02*
X164780617Y-45088802D01*
X164780617Y-45088802D02*
X164685379Y-45184040D01*
X164685379Y-45184040D02*
X164590141Y-45231659D01*
X165780617Y-44945945D02*
X165875855Y-44945945D01*
X165875855Y-44945945D02*
X165971093Y-44993564D01*
X165971093Y-44993564D02*
X166018712Y-45041183D01*
X166018712Y-45041183D02*
X166066331Y-45136421D01*
X166066331Y-45136421D02*
X166113950Y-45326897D01*
X166113950Y-45326897D02*
X166113950Y-45564992D01*
X166113950Y-45564992D02*
X166066331Y-45755468D01*
X166066331Y-45755468D02*
X166018712Y-45850706D01*
X166018712Y-45850706D02*
X165971093Y-45898326D01*
X165971093Y-45898326D02*
X165875855Y-45945945D01*
X165875855Y-45945945D02*
X165780617Y-45945945D01*
X165780617Y-45945945D02*
X165685379Y-45898326D01*
X165685379Y-45898326D02*
X165637760Y-45850706D01*
X165637760Y-45850706D02*
X165590141Y-45755468D01*
X165590141Y-45755468D02*
X165542522Y-45564992D01*
X165542522Y-45564992D02*
X165542522Y-45326897D01*
X165542522Y-45326897D02*
X165590141Y-45136421D01*
X165590141Y-45136421D02*
X165637760Y-45041183D01*
X165637760Y-45041183D02*
X165685379Y-44993564D01*
X165685379Y-44993564D02*
X165780617Y-44945945D01*
X164959323Y-101680986D02*
X164959323Y-100680986D01*
X164959323Y-100680986D02*
X165197418Y-100680986D01*
X165197418Y-100680986D02*
X165340275Y-100728605D01*
X165340275Y-100728605D02*
X165435513Y-100823843D01*
X165435513Y-100823843D02*
X165483132Y-100919081D01*
X165483132Y-100919081D02*
X165530751Y-101109557D01*
X165530751Y-101109557D02*
X165530751Y-101252414D01*
X165530751Y-101252414D02*
X165483132Y-101442890D01*
X165483132Y-101442890D02*
X165435513Y-101538128D01*
X165435513Y-101538128D02*
X165340275Y-101633367D01*
X165340275Y-101633367D02*
X165197418Y-101680986D01*
X165197418Y-101680986D02*
X164959323Y-101680986D01*
X165911704Y-100776224D02*
X165959323Y-100728605D01*
X165959323Y-100728605D02*
X166054561Y-100680986D01*
X166054561Y-100680986D02*
X166292656Y-100680986D01*
X166292656Y-100680986D02*
X166387894Y-100728605D01*
X166387894Y-100728605D02*
X166435513Y-100776224D01*
X166435513Y-100776224D02*
X166483132Y-100871462D01*
X166483132Y-100871462D02*
X166483132Y-100966700D01*
X166483132Y-100966700D02*
X166435513Y-101109557D01*
X166435513Y-101109557D02*
X165864085Y-101680986D01*
X165864085Y-101680986D02*
X166483132Y-101680986D01*
X166959323Y-101680986D02*
X167149799Y-101680986D01*
X167149799Y-101680986D02*
X167245037Y-101633367D01*
X167245037Y-101633367D02*
X167292656Y-101585747D01*
X167292656Y-101585747D02*
X167387894Y-101442890D01*
X167387894Y-101442890D02*
X167435513Y-101252414D01*
X167435513Y-101252414D02*
X167435513Y-100871462D01*
X167435513Y-100871462D02*
X167387894Y-100776224D01*
X167387894Y-100776224D02*
X167340275Y-100728605D01*
X167340275Y-100728605D02*
X167245037Y-100680986D01*
X167245037Y-100680986D02*
X167054561Y-100680986D01*
X167054561Y-100680986D02*
X166959323Y-100728605D01*
X166959323Y-100728605D02*
X166911704Y-100776224D01*
X166911704Y-100776224D02*
X166864085Y-100871462D01*
X166864085Y-100871462D02*
X166864085Y-101109557D01*
X166864085Y-101109557D02*
X166911704Y-101204795D01*
X166911704Y-101204795D02*
X166959323Y-101252414D01*
X166959323Y-101252414D02*
X167054561Y-101300033D01*
X167054561Y-101300033D02*
X167245037Y-101300033D01*
X167245037Y-101300033D02*
X167340275Y-101252414D01*
X167340275Y-101252414D02*
X167387894Y-101204795D01*
X167387894Y-101204795D02*
X167435513Y-101109557D01*
X166508109Y-49835130D02*
X166508109Y-48835130D01*
X166508109Y-48835130D02*
X166746204Y-48835130D01*
X166746204Y-48835130D02*
X166889061Y-48882749D01*
X166889061Y-48882749D02*
X166984299Y-48977987D01*
X166984299Y-48977987D02*
X167031918Y-49073225D01*
X167031918Y-49073225D02*
X167079537Y-49263701D01*
X167079537Y-49263701D02*
X167079537Y-49406558D01*
X167079537Y-49406558D02*
X167031918Y-49597034D01*
X167031918Y-49597034D02*
X166984299Y-49692272D01*
X166984299Y-49692272D02*
X166889061Y-49787511D01*
X166889061Y-49787511D02*
X166746204Y-49835130D01*
X166746204Y-49835130D02*
X166508109Y-49835130D01*
X168031918Y-49835130D02*
X167460490Y-49835130D01*
X167746204Y-49835130D02*
X167746204Y-48835130D01*
X167746204Y-48835130D02*
X167650966Y-48977987D01*
X167650966Y-48977987D02*
X167555728Y-49073225D01*
X167555728Y-49073225D02*
X167460490Y-49120844D01*
X168984299Y-49835130D02*
X168412871Y-49835130D01*
X168698585Y-49835130D02*
X168698585Y-48835130D01*
X168698585Y-48835130D02*
X168603347Y-48977987D01*
X168603347Y-48977987D02*
X168508109Y-49073225D01*
X168508109Y-49073225D02*
X168412871Y-49120844D01*
X166508109Y-87935130D02*
X166508109Y-86935130D01*
X166508109Y-86935130D02*
X166746204Y-86935130D01*
X166746204Y-86935130D02*
X166889061Y-86982749D01*
X166889061Y-86982749D02*
X166984299Y-87077987D01*
X166984299Y-87077987D02*
X167031918Y-87173225D01*
X167031918Y-87173225D02*
X167079537Y-87363701D01*
X167079537Y-87363701D02*
X167079537Y-87506558D01*
X167079537Y-87506558D02*
X167031918Y-87697034D01*
X167031918Y-87697034D02*
X166984299Y-87792272D01*
X166984299Y-87792272D02*
X166889061Y-87887511D01*
X166889061Y-87887511D02*
X166746204Y-87935130D01*
X166746204Y-87935130D02*
X166508109Y-87935130D01*
X167460490Y-87030368D02*
X167508109Y-86982749D01*
X167508109Y-86982749D02*
X167603347Y-86935130D01*
X167603347Y-86935130D02*
X167841442Y-86935130D01*
X167841442Y-86935130D02*
X167936680Y-86982749D01*
X167936680Y-86982749D02*
X167984299Y-87030368D01*
X167984299Y-87030368D02*
X168031918Y-87125606D01*
X168031918Y-87125606D02*
X168031918Y-87220844D01*
X168031918Y-87220844D02*
X167984299Y-87363701D01*
X167984299Y-87363701D02*
X167412871Y-87935130D01*
X167412871Y-87935130D02*
X168031918Y-87935130D01*
X168889061Y-86935130D02*
X168698585Y-86935130D01*
X168698585Y-86935130D02*
X168603347Y-86982749D01*
X168603347Y-86982749D02*
X168555728Y-87030368D01*
X168555728Y-87030368D02*
X168460490Y-87173225D01*
X168460490Y-87173225D02*
X168412871Y-87363701D01*
X168412871Y-87363701D02*
X168412871Y-87744653D01*
X168412871Y-87744653D02*
X168460490Y-87839891D01*
X168460490Y-87839891D02*
X168508109Y-87887511D01*
X168508109Y-87887511D02*
X168603347Y-87935130D01*
X168603347Y-87935130D02*
X168793823Y-87935130D01*
X168793823Y-87935130D02*
X168889061Y-87887511D01*
X168889061Y-87887511D02*
X168936680Y-87839891D01*
X168936680Y-87839891D02*
X168984299Y-87744653D01*
X168984299Y-87744653D02*
X168984299Y-87506558D01*
X168984299Y-87506558D02*
X168936680Y-87411320D01*
X168936680Y-87411320D02*
X168889061Y-87363701D01*
X168889061Y-87363701D02*
X168793823Y-87316082D01*
X168793823Y-87316082D02*
X168603347Y-87316082D01*
X168603347Y-87316082D02*
X168508109Y-87363701D01*
X168508109Y-87363701D02*
X168460490Y-87411320D01*
X168460490Y-87411320D02*
X168412871Y-87506558D01*
X150046081Y-81474260D02*
X150046081Y-80474260D01*
X150046081Y-80474260D02*
X150284176Y-80474260D01*
X150284176Y-80474260D02*
X150427033Y-80521879D01*
X150427033Y-80521879D02*
X150522271Y-80617117D01*
X150522271Y-80617117D02*
X150569890Y-80712355D01*
X150569890Y-80712355D02*
X150617509Y-80902831D01*
X150617509Y-80902831D02*
X150617509Y-81045688D01*
X150617509Y-81045688D02*
X150569890Y-81236164D01*
X150569890Y-81236164D02*
X150522271Y-81331402D01*
X150522271Y-81331402D02*
X150427033Y-81426641D01*
X150427033Y-81426641D02*
X150284176Y-81474260D01*
X150284176Y-81474260D02*
X150046081Y-81474260D01*
X150998462Y-80569498D02*
X151046081Y-80521879D01*
X151046081Y-80521879D02*
X151141319Y-80474260D01*
X151141319Y-80474260D02*
X151379414Y-80474260D01*
X151379414Y-80474260D02*
X151474652Y-80521879D01*
X151474652Y-80521879D02*
X151522271Y-80569498D01*
X151522271Y-80569498D02*
X151569890Y-80664736D01*
X151569890Y-80664736D02*
X151569890Y-80759974D01*
X151569890Y-80759974D02*
X151522271Y-80902831D01*
X151522271Y-80902831D02*
X150950843Y-81474260D01*
X150950843Y-81474260D02*
X151569890Y-81474260D01*
X151950843Y-80569498D02*
X151998462Y-80521879D01*
X151998462Y-80521879D02*
X152093700Y-80474260D01*
X152093700Y-80474260D02*
X152331795Y-80474260D01*
X152331795Y-80474260D02*
X152427033Y-80521879D01*
X152427033Y-80521879D02*
X152474652Y-80569498D01*
X152474652Y-80569498D02*
X152522271Y-80664736D01*
X152522271Y-80664736D02*
X152522271Y-80759974D01*
X152522271Y-80759974D02*
X152474652Y-80902831D01*
X152474652Y-80902831D02*
X151903224Y-81474260D01*
X151903224Y-81474260D02*
X152522271Y-81474260D01*
D12*
%TO.C,C3*%
X153262000Y-75430748D02*
X153262000Y-75953252D01*
X151792000Y-75430748D02*
X151792000Y-75953252D01*
%TO.C,C2*%
X150519800Y-75930220D02*
X150519800Y-76211380D01*
X149499800Y-75930220D02*
X149499800Y-76211380D01*
%TO.C,C1*%
X152413580Y-78869000D02*
X152132420Y-78869000D01*
X152413580Y-77849000D02*
X152132420Y-77849000D01*
%TO.C,D45*%
X160909800Y-145629130D02*
X160909800Y-143629130D01*
X160909800Y-145629130D02*
X164109800Y-145629130D01*
X161209800Y-143329130D02*
X160909800Y-143629130D01*
X161209800Y-143329130D02*
X164109800Y-143329130D01*
X164109800Y-143329130D02*
X164109800Y-145629130D01*
%TO.C,D1*%
X147909800Y-69429130D02*
X147909800Y-67429130D01*
X147909800Y-69429130D02*
X151109800Y-69429130D01*
X148209800Y-67129130D02*
X147909800Y-67429130D01*
X148209800Y-67129130D02*
X151109800Y-67129130D01*
X151109800Y-67129130D02*
X151109800Y-69429130D01*
%TO.C,D4*%
X141446151Y-57199309D02*
X141446151Y-55199309D01*
X141446151Y-57199309D02*
X144646151Y-57199309D01*
X141746151Y-54899309D02*
X141446151Y-55199309D01*
X141746151Y-54899309D02*
X144646151Y-54899309D01*
X144646151Y-54899309D02*
X144646151Y-57199309D01*
%TO.C,D23*%
X154409800Y-83270800D02*
X154409800Y-81270800D01*
X154409800Y-83270800D02*
X157609800Y-83270800D01*
X154709800Y-80970800D02*
X154409800Y-81270800D01*
X154709800Y-80970800D02*
X157609800Y-80970800D01*
X157609800Y-80970800D02*
X157609800Y-83270800D01*
%TO.C,D40*%
X163252046Y-124841126D02*
X163252046Y-122841126D01*
X163252046Y-124841126D02*
X166452046Y-124841126D01*
X163552046Y-122541126D02*
X163252046Y-122841126D01*
X163552046Y-122541126D02*
X166452046Y-122541126D01*
X166452046Y-122541126D02*
X166452046Y-124841126D01*
%TO.C,D21*%
X145567554Y-86741126D02*
X145567554Y-84741126D01*
X145567554Y-86741126D02*
X148767554Y-86741126D01*
X145867554Y-84441126D02*
X145567554Y-84741126D01*
X145867554Y-84441126D02*
X148767554Y-84441126D01*
X148767554Y-84441126D02*
X148767554Y-86741126D01*
%TO.C,D2*%
X144245991Y-66276167D02*
X144245991Y-64276167D01*
X144245991Y-66276167D02*
X147445991Y-66276167D01*
X144545991Y-63976167D02*
X144245991Y-64276167D01*
X144545991Y-63976167D02*
X147445991Y-63976167D01*
X147445991Y-63976167D02*
X147445991Y-66276167D01*
%TO.C,D35*%
X142697205Y-128730311D02*
X142697205Y-126730311D01*
X142697205Y-128730311D02*
X145897205Y-128730311D01*
X142997205Y-126430311D02*
X142697205Y-126730311D01*
X142997205Y-126430311D02*
X145897205Y-126430311D01*
X145897205Y-126430311D02*
X145897205Y-128730311D01*
%TO.C,D44*%
X164573609Y-142476167D02*
X164573609Y-140476167D01*
X164573609Y-142476167D02*
X167773609Y-142476167D01*
X164873609Y-140176167D02*
X164573609Y-140476167D01*
X164873609Y-140176167D02*
X167773609Y-140176167D01*
X167773609Y-140176167D02*
X167773609Y-142476167D01*
%TO.C,D43*%
X166832246Y-138202617D02*
X166832246Y-136202617D01*
X166832246Y-138202617D02*
X170032246Y-138202617D01*
X167132246Y-135902617D02*
X166832246Y-136202617D01*
X167132246Y-135902617D02*
X170032246Y-135902617D01*
X170032246Y-135902617D02*
X170032246Y-138202617D01*
%TO.C,D15*%
X160909800Y-69429130D02*
X160909800Y-67429130D01*
X160909800Y-69429130D02*
X164109800Y-69429130D01*
X161209800Y-67129130D02*
X160909800Y-67429130D01*
X161209800Y-67129130D02*
X164109800Y-67129130D01*
X164109800Y-67129130D02*
X164109800Y-69429130D01*
%TO.C,D3*%
X141987354Y-62002617D02*
X141987354Y-60002617D01*
X141987354Y-62002617D02*
X145187354Y-62002617D01*
X142287354Y-59702617D02*
X141987354Y-60002617D01*
X142287354Y-59702617D02*
X145187354Y-59702617D01*
X145187354Y-59702617D02*
X145187354Y-62002617D01*
%TO.C,D36*%
X145567554Y-124841126D02*
X145567554Y-122841126D01*
X145567554Y-124841126D02*
X148767554Y-124841126D01*
X145867554Y-122541126D02*
X145567554Y-122841126D01*
X145867554Y-122541126D02*
X148767554Y-122541126D01*
X148767554Y-122541126D02*
X148767554Y-124841126D01*
%TO.C,D8*%
X154409800Y-45170800D02*
X154409800Y-43170800D01*
X154409800Y-45170800D02*
X157609800Y-45170800D01*
X154709800Y-42870800D02*
X154409800Y-43170800D01*
X154709800Y-42870800D02*
X157609800Y-42870800D01*
X157609800Y-42870800D02*
X157609800Y-45170800D01*
%TO.C,D41*%
X166122395Y-128730311D02*
X166122395Y-126730311D01*
X166122395Y-128730311D02*
X169322395Y-128730311D01*
X166422395Y-126430311D02*
X166122395Y-126730311D01*
X166422395Y-126430311D02*
X169322395Y-126430311D01*
X169322395Y-126430311D02*
X169322395Y-128730311D01*
%TO.C,D28*%
X166832246Y-100102617D02*
X166832246Y-98102617D01*
X166832246Y-100102617D02*
X170032246Y-100102617D01*
X167132246Y-97802617D02*
X166832246Y-98102617D01*
X167132246Y-97802617D02*
X170032246Y-97802617D01*
X170032246Y-97802617D02*
X170032246Y-100102617D01*
%TO.C,D14*%
X164573609Y-66276167D02*
X164573609Y-64276167D01*
X164573609Y-66276167D02*
X167773609Y-66276167D01*
X164873609Y-63976167D02*
X164573609Y-64276167D01*
X164873609Y-63976167D02*
X167773609Y-63976167D01*
X167773609Y-63976167D02*
X167773609Y-66276167D01*
%TO.C,D34*%
X141446151Y-133399309D02*
X141446151Y-131399309D01*
X141446151Y-133399309D02*
X144646151Y-133399309D01*
X141746151Y-131099309D02*
X141446151Y-131399309D01*
X141746151Y-131099309D02*
X144646151Y-131099309D01*
X144646151Y-131099309D02*
X144646151Y-133399309D01*
%TO.C,D18*%
X141987354Y-100102617D02*
X141987354Y-98102617D01*
X141987354Y-100102617D02*
X145187354Y-100102617D01*
X142287354Y-97802617D02*
X141987354Y-98102617D01*
X142287354Y-97802617D02*
X145187354Y-97802617D01*
X145187354Y-97802617D02*
X145187354Y-100102617D01*
%TO.C,D31*%
X147909800Y-145629130D02*
X147909800Y-143629130D01*
X147909800Y-145629130D02*
X151109800Y-145629130D01*
X148209800Y-143329130D02*
X147909800Y-143629130D01*
X148209800Y-143329130D02*
X151109800Y-143329130D01*
X151109800Y-143329130D02*
X151109800Y-145629130D01*
%TO.C,D16*%
X147909800Y-107529130D02*
X147909800Y-105529130D01*
X147909800Y-107529130D02*
X151109800Y-107529130D01*
X148209800Y-105229130D02*
X147909800Y-105529130D01*
X148209800Y-105229130D02*
X151109800Y-105229130D01*
X151109800Y-105229130D02*
X151109800Y-107529130D01*
%TO.C,D37*%
X149660367Y-122269441D02*
X149660367Y-120269441D01*
X149660367Y-122269441D02*
X152860367Y-122269441D01*
X149960367Y-119969441D02*
X149660367Y-120269441D01*
X149960367Y-119969441D02*
X152860367Y-119969441D01*
X152860367Y-119969441D02*
X152860367Y-122269441D01*
%TO.C,D6*%
X145567554Y-48641126D02*
X145567554Y-46641126D01*
X145567554Y-48641126D02*
X148767554Y-48641126D01*
X145867554Y-46341126D02*
X145567554Y-46641126D01*
X145867554Y-46341126D02*
X148767554Y-46341126D01*
X148767554Y-46341126D02*
X148767554Y-48641126D01*
%TO.C,D24*%
X159159233Y-84169441D02*
X159159233Y-82169441D01*
X159159233Y-84169441D02*
X162359233Y-84169441D01*
X159459233Y-81869441D02*
X159159233Y-82169441D01*
X159459233Y-81869441D02*
X162359233Y-81869441D01*
X162359233Y-81869441D02*
X162359233Y-84169441D01*
%TO.C,JP1*%
X159946000Y-74673000D02*
X161946000Y-74673000D01*
X159946000Y-77473000D02*
X159946000Y-74673000D01*
X161946000Y-74673000D02*
X161946000Y-77473000D01*
X161946000Y-77473000D02*
X159946000Y-77473000D01*
%TO.C,D39*%
X159159233Y-122269441D02*
X159159233Y-120269441D01*
X159159233Y-122269441D02*
X162359233Y-122269441D01*
X159459233Y-119969441D02*
X159159233Y-120269441D01*
X159459233Y-119969441D02*
X162359233Y-119969441D01*
X162359233Y-119969441D02*
X162359233Y-122269441D01*
%TO.C,D12*%
X167373449Y-57199309D02*
X167373449Y-55199309D01*
X167373449Y-57199309D02*
X170573449Y-57199309D01*
X167673449Y-54899309D02*
X167373449Y-55199309D01*
X167673449Y-54899309D02*
X170573449Y-54899309D01*
X170573449Y-54899309D02*
X170573449Y-57199309D01*
%TO.C,D9*%
X159159233Y-46069441D02*
X159159233Y-44069441D01*
X159159233Y-46069441D02*
X162359233Y-46069441D01*
X159459233Y-43769441D02*
X159159233Y-44069441D01*
X159459233Y-43769441D02*
X162359233Y-43769441D01*
X162359233Y-43769441D02*
X162359233Y-46069441D01*
%TO.C,D30*%
X160909800Y-107529130D02*
X160909800Y-105529130D01*
X160909800Y-107529130D02*
X164109800Y-107529130D01*
X161209800Y-105229130D02*
X160909800Y-105529130D01*
X161209800Y-105229130D02*
X164109800Y-105229130D01*
X164109800Y-105229130D02*
X164109800Y-107529130D01*
%TO.C,D25*%
X163252046Y-86741126D02*
X163252046Y-84741126D01*
X163252046Y-86741126D02*
X166452046Y-86741126D01*
X163552046Y-84441126D02*
X163252046Y-84741126D01*
X163552046Y-84441126D02*
X166452046Y-84441126D01*
X166452046Y-84441126D02*
X166452046Y-86741126D01*
%TO.C,U1*%
X154449800Y-76080800D02*
X154449800Y-75280800D01*
X154449800Y-76080800D02*
X154449800Y-76880800D01*
X157569800Y-76080800D02*
X157569800Y-75280800D01*
X157569800Y-76080800D02*
X157569800Y-76880800D01*
X154499800Y-77380800D02*
X154169800Y-77620800D01*
X154169800Y-77140800D01*
X154499800Y-77380800D01*
G36*
X154499800Y-77380800D02*
G01*
X154169800Y-77620800D01*
X154169800Y-77140800D01*
X154499800Y-77380800D01*
G37*
%TO.C,D7*%
X149660367Y-46069441D02*
X149660367Y-44069441D01*
X149660367Y-46069441D02*
X152860367Y-46069441D01*
X149960367Y-43769441D02*
X149660367Y-44069441D01*
X149960367Y-43769441D02*
X152860367Y-43769441D01*
X152860367Y-43769441D02*
X152860367Y-46069441D01*
%TO.C,D32*%
X144245991Y-142476167D02*
X144245991Y-140476167D01*
X144245991Y-142476167D02*
X147445991Y-142476167D01*
X144545991Y-140176167D02*
X144245991Y-140476167D01*
X144545991Y-140176167D02*
X147445991Y-140176167D01*
X147445991Y-140176167D02*
X147445991Y-142476167D01*
%TO.C,D20*%
X142697205Y-90630311D02*
X142697205Y-88630311D01*
X142697205Y-90630311D02*
X145897205Y-90630311D01*
X142997205Y-88330311D02*
X142697205Y-88630311D01*
X142997205Y-88330311D02*
X145897205Y-88330311D01*
X145897205Y-88330311D02*
X145897205Y-90630311D01*
%TO.C,D27*%
X167373449Y-95299309D02*
X167373449Y-93299309D01*
X167373449Y-95299309D02*
X170573449Y-95299309D01*
X167673449Y-92999309D02*
X167373449Y-93299309D01*
X167673449Y-92999309D02*
X170573449Y-92999309D01*
X170573449Y-92999309D02*
X170573449Y-95299309D01*
%TO.C,D33*%
X141987354Y-138202617D02*
X141987354Y-136202617D01*
X141987354Y-138202617D02*
X145187354Y-138202617D01*
X142287354Y-135902617D02*
X141987354Y-136202617D01*
X142287354Y-135902617D02*
X145187354Y-135902617D01*
X145187354Y-135902617D02*
X145187354Y-138202617D01*
%TO.C,D38*%
X154409800Y-121370800D02*
X154409800Y-119370800D01*
X154409800Y-121370800D02*
X157609800Y-121370800D01*
X154709800Y-119070800D02*
X154409800Y-119370800D01*
X154709800Y-119070800D02*
X157609800Y-119070800D01*
X157609800Y-119070800D02*
X157609800Y-121370800D01*
%TO.C,D17*%
X144245991Y-104376167D02*
X144245991Y-102376167D01*
X144245991Y-104376167D02*
X147445991Y-104376167D01*
X144545991Y-102076167D02*
X144245991Y-102376167D01*
X144545991Y-102076167D02*
X147445991Y-102076167D01*
X147445991Y-102076167D02*
X147445991Y-104376167D01*
%TO.C,D13*%
X166832246Y-62002617D02*
X166832246Y-60002617D01*
X166832246Y-62002617D02*
X170032246Y-62002617D01*
X167132246Y-59702617D02*
X166832246Y-60002617D01*
X167132246Y-59702617D02*
X170032246Y-59702617D01*
X170032246Y-59702617D02*
X170032246Y-62002617D01*
%TO.C,D5*%
X142697205Y-52530311D02*
X142697205Y-50530311D01*
X142697205Y-52530311D02*
X145897205Y-52530311D01*
X142997205Y-50230311D02*
X142697205Y-50530311D01*
X142997205Y-50230311D02*
X145897205Y-50230311D01*
X145897205Y-50230311D02*
X145897205Y-52530311D01*
%TO.C,D42*%
X167373449Y-133399309D02*
X167373449Y-131399309D01*
X167373449Y-133399309D02*
X170573449Y-133399309D01*
X167673449Y-131099309D02*
X167373449Y-131399309D01*
X167673449Y-131099309D02*
X170573449Y-131099309D01*
X170573449Y-131099309D02*
X170573449Y-133399309D01*
%TO.C,D19*%
X141446151Y-95299309D02*
X141446151Y-93299309D01*
X141446151Y-95299309D02*
X144646151Y-95299309D01*
X141746151Y-92999309D02*
X141446151Y-93299309D01*
X141746151Y-92999309D02*
X144646151Y-92999309D01*
X144646151Y-92999309D02*
X144646151Y-95299309D01*
%TO.C,D10*%
X163252046Y-48641126D02*
X163252046Y-46641126D01*
X163252046Y-48641126D02*
X166452046Y-48641126D01*
X163552046Y-46341126D02*
X163252046Y-46641126D01*
X163552046Y-46341126D02*
X166452046Y-46341126D01*
X166452046Y-46341126D02*
X166452046Y-48641126D01*
%TO.C,D29*%
X164573609Y-104376167D02*
X164573609Y-102376167D01*
X164573609Y-104376167D02*
X167773609Y-104376167D01*
X164873609Y-102076167D02*
X164573609Y-102376167D01*
X164873609Y-102076167D02*
X167773609Y-102076167D01*
X167773609Y-102076167D02*
X167773609Y-104376167D01*
%TO.C,D11*%
X166122395Y-52530311D02*
X166122395Y-50530311D01*
X166122395Y-52530311D02*
X169322395Y-52530311D01*
X166422395Y-50230311D02*
X166122395Y-50530311D01*
X166422395Y-50230311D02*
X169322395Y-50230311D01*
X169322395Y-50230311D02*
X169322395Y-52530311D01*
%TO.C,D26*%
X166122395Y-90630311D02*
X166122395Y-88630311D01*
X166122395Y-90630311D02*
X169322395Y-90630311D01*
X166422395Y-88330311D02*
X166122395Y-88630311D01*
X166422395Y-88330311D02*
X169322395Y-88330311D01*
X169322395Y-88330311D02*
X169322395Y-90630311D01*
%TO.C,D22*%
X149660367Y-84169441D02*
X149660367Y-82169441D01*
X149660367Y-84169441D02*
X152860367Y-84169441D01*
X149960367Y-81869441D02*
X149660367Y-82169441D01*
X149960367Y-81869441D02*
X152860367Y-81869441D01*
X152860367Y-81869441D02*
X152860367Y-84169441D01*
%TD*%
M02*
